<?xml version="1.0" encoding="UTF-8"?>
<svg id="Layer_1" xmlns="http://www.w3.org/2000/svg" xmlns:xlink="http://www.w3.org/1999/xlink" version="1.1" viewBox="0 0 469 469">
  <!-- Generator: Adobe Illustrator 29.2.1, SVG Export Plug-In . SVG Version: 2.1.0 Build 116)  -->
  <defs>
    <style>
      .st0 {
        fill: url(#radial-gradient);
      }

      .st1 {
        fill: blue;
        opacity: .6;
      }

      .st2 {
        opacity: .8;
      }

      .st2, .st3 {
        fill: red;
        isolation: isolate;
      }

      .st3 {
        opacity: .7;
      }
    </style>
    <radialGradient id="radial-gradient" cx="44.4" cy="425.6" fx="44.4" fy="425.6" r=".5" gradientTransform="translate(-13635.2 133318.2) scale(312.7 -312.7)" gradientUnits="userSpaceOnUse">
      <stop offset="0" stop-color="#fd99cc" stop-opacity=".8"/>
      <stop offset="1" stop-color="#000" stop-opacity="0"/>
    </radialGradient>
  </defs>
  <rect class="st1" width="469" height="469"/>
  <g>
    <circle class="st3" cy="224" r="1"/>
    <circle class="st3" cy="254" r="1"/>
    <circle class="st3" cx="2" cy="210" r="1"/>
    <circle class="st3" cx="2" cy="230" r="1"/>
    <circle class="st3" cx="4" cy="246" r="1"/>
    <circle class="st3" cx="6" cy="214" r="1"/>
    <circle class="st3" cx="8" cy="214" r="1"/>
    <circle class="st3" cx="8" cy="228" r="1"/>
    <circle class="st3" cx="8" cy="246" r="1"/>
    <circle class="st3" cx="12" cy="220" r="1"/>
    <circle class="st3" cx="12" cy="232" r="1"/>
    <circle class="st3" cx="20" cy="222" r="1"/>
    <circle class="st3" cx="22" cy="220" r="1"/>
    <circle class="st3" cx="22" cy="226" r="1"/>
    <circle class="st3" cx="22" cy="228" r="1"/>
    <circle class="st3" cx="24" cy="220" r="1"/>
    <circle class="st3" cx="26" cy="220" r="1"/>
    <circle class="st3" cx="446" cy="244" r="1"/>
    <circle class="st3" cx="450" cy="240" r="1"/>
    <circle class="st3" cx="450" cy="246" r="1"/>
    <circle class="st3" cx="450" cy="248" r="1"/>
    <circle class="st3" cx="454" cy="248" r="1"/>
    <circle class="st3" cx="456" cy="234" r="1"/>
    <circle class="st3" cx="456" cy="238" r="1"/>
    <circle class="st3" cx="456" cy="240" r="1"/>
    <circle class="st3" cx="456" cy="244" r="1"/>
    <circle class="st3" cx="458" cy="246" r="1"/>
    <circle class="st3" cx="458" cy="250" r="1"/>
    <circle class="st3" cx="460" cy="240" r="1"/>
    <circle class="st3" cx="460" cy="246" r="1"/>
    <circle class="st3" cx="462" cy="238" r="1"/>
    <circle class="st3" cx="462" cy="258" r="1"/>
    <circle class="st3" cx="464" cy="236" r="1"/>
    <circle class="st3" cx="466" cy="218" r="1"/>
    <circle class="st3" cx="466" cy="228" r="1"/>
    <circle class="st3" cx="466" cy="252" r="1"/>
    <circle class="st3" cx="466" cy="260" r="1"/>
    <circle class="st3" cx="468" cy="212" r="1"/>
    <circle class="st3" cx="468" cy="224" r="1"/>
    <circle class="st3" cx="468" cy="262" r="1"/>
  </g>
  <circle class="st0" cx="234.5" cy="234.5" r="156.3"/>
  <g>
    <circle class="st2" cx="234.5" cy="234.5" r=".9"/>
    <circle class="st2" cx="236.4" cy="234.7" r="1.1"/>
    <circle class="st2" cx="238.2" cy="235.3" r=".4"/>
    <circle class="st2" cx="240" cy="236.2" r="1"/>
    <circle class="st2" cx="241.5" cy="237.6" r=".6"/>
    <circle class="st2" cx="242.8" cy="239.2" r=".6"/>
    <circle class="st2" cx="243.9" cy="241.1" r="1.3"/>
    <circle class="st2" cx="244.6" cy="243.3" r=".8"/>
    <circle class="st2" cx="244.9" cy="245.7" r=".4"/>
    <circle class="st2" cx="244.9" cy="248.2" r=".9"/>
    <circle class="st2" cx="244.4" cy="250.9" r=".9"/>
    <circle class="st2" cx="243.5" cy="253.5" r=".7"/>
    <path class="st2" d="M242.2,255.5c.4,0,.7.3.7.7s-.3.7-.7.7-.7-.3-.7-.7.3-.7.7-.7Z"/>
    <circle class="st2" cx="240.4" cy="258.7" r=".8"/>
    <circle class="st2" cx="238.1" cy="261.1" r=".5"/>
    <circle class="st2" cx="235.4" cy="263.2" r=".9"/>
    <circle class="st2" cx="232.3" cy="265" r=".5"/>
    <circle class="st2" cx="228.9" cy="266.6" r=".5"/>
    <circle class="st2" cx="225.1" cy="267.7" r=".4"/>
    <circle class="st2" cx="221.1" cy="268.3" r="1.1"/>
    <circle class="st2" cx="216.8" cy="268.4" r="1"/>
    <circle class="st2" cx="212.4" cy="268.1" r="1.1"/>
    <circle class="st2" cx="207.8" cy="267.1" r="1.2"/>
    <circle class="st2" cx="203.3" cy="265.5" r=".9"/>
    <circle class="st2" cx="198.8" cy="263.4" r="1.3"/>
    <circle class="st2" cx="194.4" cy="260.6" r="1.2"/>
    <circle class="st2" cx="190.2" cy="257.3" r=".6"/>
    <circle class="st2" cx="186.4" cy="253.3" r="1.2"/>
    <circle class="st2" cx="182.8" cy="248.8" r=".3"/>
    <circle class="st2" cx="179.8" cy="243.7" r=".4"/>
    <circle class="st2" cx="177.2" cy="238.2" r=".9"/>
    <circle class="st2" cx="175.2" cy="232.2" r="1"/>
    <circle class="st2" cx="173.9" cy="225.9" r="1.2"/>
    <circle class="st2" cx="173.2" cy="219.3" r=".4"/>
    <circle class="st2" cx="173.3" cy="212.4" r=".8"/>
    <circle class="st2" cx="174.1" cy="205.5" r=".6"/>
    <circle class="st2" cx="175.8" cy="198.4" r=".9"/>
    <circle class="st2" cx="178.3" cy="191.5" r="1.1"/>
    <circle class="st2" cx="181.6" cy="184.6" r=".4"/>
    <circle class="st2" cx="185.7" cy="178" r=".6"/>
    <circle class="st2" cx="190.7" cy="171.7" r=".8"/>
    <circle class="st2" cx="196.4" cy="165.9" r="1"/>
    <circle class="st2" cx="202.9" cy="160.6" r=".9"/>
    <circle class="st2" cx="210" cy="155.9" r=".9"/>
    <circle class="st2" cx="217.8" cy="152" r=".5"/>
    <circle class="st2" cx="226.2" cy="148.8" r=".6"/>
    <circle class="st2" cx="235" cy="146.5" r=".4"/>
    <circle class="st2" cx="244.2" cy="145.1" r="1.2"/>
    <circle class="st2" cx="253.7" cy="144.7" r="1"/>
    <circle class="st2" cx="263.4" cy="145.3" r="1.1"/>
    <circle class="st2" cx="273.2" cy="147" r=".6"/>
    <circle class="st2" cx="282.9" cy="149.7" r="1.3"/>
    <circle class="st2" cx="292.4" cy="153.6" r=".9"/>
    <circle class="st2" cx="301.7" cy="158.5" r=".5"/>
    <circle class="st2" cx="310.5" cy="164.5" r=".3"/>
    <circle class="st2" cx="318.8" cy="171.5" r="1"/>
    <circle class="st2" cx="326.5" cy="179.4" r=".6"/>
    <circle class="st2" cx="333.4" cy="188.3" r="1.2"/>
    <circle class="st2" cx="339.4" cy="198.1" r=".5"/>
    <circle class="st2" cx="344.4" cy="208.6" r=".8"/>
    <circle class="st2" cx="348.4" cy="219.7" r=".9"/>
    <circle class="st2" cx="351.2" cy="231.4" r="1.1"/>
    <circle class="st2" cx="352.8" cy="243.5" r=".8"/>
    <path class="st2" d="M353.2,255.3c.4,0,.6.3.6.6s-.3.6-.6.6-.6-.3-.6-.6.3-.6.6-.6Z"/>
    <circle class="st2" cx="352.2" cy="268.5" r=".6"/>
    <circle class="st2" cx="349.9" cy="281.1" r="1.2"/>
    <circle class="st2" cx="346.2" cy="293.5" r=".8"/>
    <circle class="st2" cx="341.1" cy="305.7" r=".5"/>
    <circle class="st2" cx="334.8" cy="317.5" r="1.3"/>
    <circle class="st2" cx="327.1" cy="328.7" r=".7"/>
    <circle class="st2" cx="318.1" cy="339.2" r="1.2"/>
    <circle class="st2" cx="308" cy="348.8" r=".9"/>
    <circle class="st2" cx="296.8" cy="357.4" r="1.3"/>
    <circle class="st2" cx="284.6" cy="364.9" r="1.3"/>
    <circle class="st2" cx="271.5" cy="371.2" r=".8"/>
    <circle class="st2" cx="257.6" cy="376.2" r=".8"/>
    <circle class="st2" cx="243.1" cy="379.7" r=".8"/>
    <circle class="st2" cx="228.1" cy="381.7" r="1.1"/>
    <circle class="st2" cx="212.7" cy="382.2" r="1.2"/>
    <circle class="st2" cx="197.3" cy="381" r=".5"/>
    <circle class="st2" cx="181.8" cy="378.3" r=".5"/>
    <circle class="st2" cx="166.5" cy="373.8" r="1.1"/>
    <circle class="st2" cx="151.6" cy="367.8" r="1.1"/>
    <circle class="st2" cx="137.2" cy="360.1" r=".4"/>
    <circle class="st2" cx="123.5" cy="350.8" r=".5"/>
    <circle class="st2" cx="110.8" cy="340.1" r="1.1"/>
    <circle class="st2" cx="99" cy="328" r=".4"/>
    <circle class="st2" cx="88.5" cy="314.5" r=".3"/>
    <circle class="st2" cx="79.3" cy="299.9" r="1.2"/>
    <circle class="st2" cx="71.6" cy="284.2" r="1"/>
    <circle class="st2" cx="65.5" cy="267.7" r="1"/>
    <circle class="st2" cx="61" cy="250.4" r="1"/>
    <circle class="st2" cx="58.4" cy="232.5" r=".5"/>
    <circle class="st2" cx="57.7" cy="214.3" r=".3"/>
    <circle class="st2" cx="58.8" cy="195.8" r=".8"/>
    <circle class="st2" cx="61.9" cy="177.5" r=".6"/>
    <circle class="st2" cx="66.9" cy="159.3" r=".9"/>
    <circle class="st2" cx="73.8" cy="141.6" r=".9"/>
    <circle class="st2" cx="82.6" cy="124.5" r=".8"/>
    <circle class="st2" cx="93.2" cy="108.2" r=".9"/>
    <circle class="st2" cx="105.6" cy="93" r=".5"/>
    <circle class="st2" cx="119.6" cy="79" r="1.1"/>
    <circle class="st2" cx="135.2" cy="66.4" r=".6"/>
    <circle class="st2" cx="152.1" cy="55.4" r=".4"/>
    <circle class="st2" cx="170.3" cy="46.1" r=".9"/>
    <circle class="st2" cx="189.5" cy="38.6" r="1.1"/>
    <circle class="st2" cx="209.5" cy="33.2" r=".8"/>
    <circle class="st2" cx="230.2" cy="29.7" r=".5"/>
    <circle class="st2" cx="251.4" cy="28.5" r=".3"/>
    <circle class="st2" cx="272.7" cy="29.4" r="1.2"/>
    <circle class="st2" cx="294.1" cy="32.6" r=".9"/>
    <circle class="st2" cx="315.2" cy="38" r=".8"/>
    <circle class="st2" cx="335.8" cy="45.6" r=".6"/>
    <circle class="st2" cx="355.6" cy="55.3" r="1.2"/>
    <circle class="st2" cx="374.6" cy="67.2" r=".4"/>
    <circle class="st2" cx="392.3" cy="81.1" r="1.3"/>
    <circle class="st2" cx="408.7" cy="96.9" r="1.2"/>
    <circle class="st2" cx="423.5" cy="114.4" r=".8"/>
    <circle class="st2" cx="436.5" cy="133.5" r=".5"/>
    <circle class="st2" cx="447.6" cy="154.1" r="1"/>
    <circle class="st2" cx="456.6" cy="175.8" r="1.1"/>
    <circle class="st2" cx="463.3" cy="198.6" r="1"/>
    <circle class="st2" cx="467.7" cy="222.1" r=".7"/>
    <circle class="st2" cx="469" cy="246.1" r=".4"/>
    <circle class="st2" cx="469" cy="270.4" r=".5"/>
    <circle class="st2" cx="466" cy="294.7" r=".9"/>
    <circle class="st2" cx="460.4" cy="318.8" r=".4"/>
    <circle class="st2" cx="452.3" cy="342.3" r=".9"/>
    <circle class="st2" cx="441.8" cy="365.1" r="1.2"/>
    <circle class="st2" cx="428.8" cy="386.8" r=".6"/>
    <circle class="st2" cx="413.6" cy="407.2" r=".7"/>
    <circle class="st2" cx="396.2" cy="426.1" r="1"/>
    <circle class="st2" cx="376.8" cy="443.3" r=".8"/>
    <circle class="st2" cx="355.6" cy="458.4" r=".8"/>
    <circle class="st2" cx="332.8" cy="469" r=".7"/>
    <circle class="st2" cx="308.5" cy="469" r=".6"/>
    <circle class="st2" cx="283.1" cy="469" r=".5"/>
    <circle class="st2" cx="256.9" cy="469" r="1.2"/>
    <circle class="st2" cx="230" cy="469" r="1.1"/>
    <circle class="st2" cx="202.7" cy="469" r=".6"/>
    <circle class="st2" cx="175.4" cy="469" r="1.2"/>
    <circle class="st2" cx="148.4" cy="469" r="1.1"/>
    <circle class="st2" cx="121.8" cy="469" r=".6"/>
    <circle class="st2" cx="96.1" cy="469" r=".3"/>
    <circle class="st2" cx="71.6" cy="456.8" r="1.2"/>
    <circle class="st2" cx="48.4" cy="440.4" r=".9"/>
    <circle class="st2" cx="26.8" cy="421.5" r="1.2"/>
    <circle class="st2" cx="7.2" cy="400.4" r=".6"/>
    <circle class="st2" cy="377.2" r=".7"/>
    <circle class="st2" cy="352.2" r=".4"/>
    <circle class="st2" cx="234.5" cy="234.5" r=".5"/>
    <circle class="st2" cx="233.4" cy="236.1" r="1.1"/>
    <circle class="st2" cx="232" cy="237.4" r=".9"/>
    <circle class="st2" cx="230.3" cy="238.4" r=".7"/>
    <circle class="st2" cx="228.3" cy="239.1" r=".6"/>
    <circle class="st2" cx="226.3" cy="239.4" r=".6"/>
    <circle class="st2" cx="224.1" cy="239.3" r=".7"/>
    <circle class="st2" cx="221.8" cy="238.8" r="1"/>
    <circle class="st2" cx="219.6" cy="237.9" r="1.1"/>
    <circle class="st2" cx="217.4" cy="236.6" r=".6"/>
    <circle class="st2" cx="215.4" cy="234.9" r=".7"/>
    <circle class="st2" cx="213.5" cy="232.8" r=".4"/>
    <circle class="st2" cx="211.9" cy="230.3" r="1.1"/>
    <circle class="st2" cx="210.6" cy="227.5" r=".8"/>
    <circle class="st2" cx="209.7" cy="224.3" r=".6"/>
    <circle class="st2" cx="209.2" cy="221" r="1"/>
    <circle class="st2" cx="209.1" cy="217.4" r=".8"/>
    <circle class="st2" cx="209.5" cy="213.6" r="1"/>
    <circle class="st2" cx="210.5" cy="209.8" r="1.3"/>
    <circle class="st2" cx="211.9" cy="206" r="1.2"/>
    <circle class="st2" cx="214" cy="202.2" r=".4"/>
    <circle class="st2" cx="216.5" cy="198.6" r="1.1"/>
    <circle class="st2" cx="219.6" cy="195.1" r=".4"/>
    <circle class="st2" cx="223.2" cy="191.9" r=".6"/>
    <circle class="st2" cx="227.3" cy="189.1" r=".7"/>
    <circle class="st2" cx="231.9" cy="186.7" r=".8"/>
    <circle class="st2" cx="236.9" cy="184.8" r="1"/>
    <circle class="st2" cx="242.3" cy="183.4" r=".6"/>
    <circle class="st2" cx="248" cy="182.6" r="1"/>
    <circle class="st2" cx="253.9" cy="182.5" r=".9"/>
    <circle class="st2" cx="259.9" cy="183" r="1.2"/>
    <circle class="st2" cx="266.1" cy="184.3" r=".8"/>
    <circle class="st2" cx="272.3" cy="186.3" r=".5"/>
    <circle class="st2" cx="278.3" cy="189" r=".6"/>
    <circle class="st2" cx="284.2" cy="192.5" r="1.3"/>
    <circle class="st2" cx="289.8" cy="196.7" r=".6"/>
    <circle class="st2" cx="295.1" cy="201.7" r=".7"/>
    <circle class="st2" cx="299.9" cy="207.3" r=".5"/>
    <circle class="st2" cx="304.2" cy="213.6" r=".5"/>
    <circle class="st2" cx="307.8" cy="220.5" r=".8"/>
    <circle class="st2" cx="310.8" cy="227.9" r="1"/>
    <circle class="st2" cx="313" cy="235.8" r=".6"/>
    <circle class="st2" cx="314.3" cy="244" r="1.1"/>
    <circle class="st2" cx="314.8" cy="252.6" r=".9"/>
    <circle class="st2" cx="314.3" cy="261.3" r=".9"/>
    <circle class="st2" cx="312.9" cy="270.2" r=".7"/>
    <circle class="st2" cx="310.5" cy="279" r="1.2"/>
    <circle class="st2" cx="307.1" cy="287.6" r=".5"/>
    <circle class="st2" cx="302.7" cy="296.1" r="1.1"/>
    <circle class="st2" cx="297.3" cy="304.1" r="1.1"/>
    <circle class="st2" cx="291" cy="311.8" r=".9"/>
    <circle class="st2" cx="283.7" cy="318.8" r="1.1"/>
    <circle class="st2" cx="275.6" cy="325.1" r="1.1"/>
    <circle class="st2" cx="266.7" cy="330.7" r="1.1"/>
    <circle class="st2" cx="257.2" cy="335.3" r=".5"/>
    <circle class="st2" cx="246.9" cy="339" r=".9"/>
    <circle class="st2" cx="236.2" cy="341.7" r=".8"/>
    <circle class="st2" cx="225" cy="343.2" r="1.2"/>
    <circle class="st2" cx="213.6" cy="343.5" r=".8"/>
    <circle class="st2" cx="202" cy="342.6" r="1"/>
    <circle class="st2" cx="190.4" cy="340.5" r=".6"/>
    <circle class="st2" cx="178.8" cy="337.1" r=".9"/>
    <circle class="st2" cx="167.5" cy="332.5" r="1.2"/>
    <circle class="st2" cx="156.6" cy="326.6" r="1.2"/>
    <circle class="st2" cx="146.2" cy="319.4" r=".6"/>
    <circle class="st2" cx="136.5" cy="311.1" r="1.3"/>
    <circle class="st2" cx="127.5" cy="301.7" r="1.3"/>
    <circle class="st2" cx="119.5" cy="291.2" r=".5"/>
    <circle class="st2" cx="112.5" cy="279.8" r="1.2"/>
    <circle class="st2" cx="106.6" cy="267.6" r=".4"/>
    <circle class="st2" cx="102" cy="254.6" r=".4"/>
    <circle class="st2" cx="98.8" cy="241" r=".3"/>
    <circle class="st2" cx="96.9" cy="227" r="1"/>
    <circle class="st2" cx="96.5" cy="212.6" r=".7"/>
    <circle class="st2" cx="97.6" cy="198.1" r="1.2"/>
    <circle class="st2" cx="100.3" cy="183.6" r=".6"/>
    <circle class="st2" cx="104.5" cy="169.3" r=".5"/>
    <circle class="st2" cx="110.2" cy="155.3" r="1.1"/>
    <circle class="st2" cx="117.5" cy="141.8" r=".7"/>
    <circle class="st2" cx="126.2" cy="129" r=".4"/>
    <circle class="st2" cx="136.4" cy="117" r=".8"/>
    <circle class="st2" cx="147.8" cy="106" r=".4"/>
    <circle class="st2" cx="160.5" cy="96.1" r=".5"/>
    <circle class="st2" cx="174.4" cy="87.5" r=".7"/>
    <circle class="st2" cx="189.2" cy="80.2" r=".9"/>
    <circle class="st2" cx="204.9" cy="74.5" r=".5"/>
    <circle class="st2" cx="221.3" cy="70.4" r=".7"/>
    <circle class="st2" cx="238.2" cy="68" r="1"/>
    <circle class="st2" cx="255.5" cy="67.4" r=".8"/>
    <circle class="st2" cx="272.9" cy="68.5" r=".6"/>
    <circle class="st2" cx="290.3" cy="71.5" r="1.1"/>
    <circle class="st2" cx="307.5" cy="76.4" r="1.1"/>
    <circle class="st2" cx="324.3" cy="83" r=".5"/>
    <circle class="st2" cx="340.5" cy="91.5" r=".5"/>
    <circle class="st2" cx="355.8" cy="101.7" r=".5"/>
    <circle class="st2" cx="370.2" cy="113.5" r="1"/>
    <circle class="st2" cx="383.5" cy="126.9" r="1"/>
    <circle class="st2" cx="395.3" cy="141.8" r="1"/>
    <circle class="st2" cx="405.7" cy="158" r=".5"/>
    <circle class="st2" cx="414.5" cy="175.3" r=".7"/>
    <circle class="st2" cx="421.5" cy="193.6" r="1.1"/>
    <circle class="st2" cx="426.6" cy="212.8" r=".4"/>
    <circle class="st2" cx="429.7" cy="232.5" r="1.3"/>
    <circle class="st2" cx="430.8" cy="252.7" r=".7"/>
    <circle class="st2" cx="429.8" cy="273.1" r="1.3"/>
    <circle class="st2" cx="426.6" cy="293.4" r="1.2"/>
    <circle class="st2" cx="421.4" cy="313.5" r="1"/>
    <circle class="st2" cx="414" cy="333.2" r=".4"/>
    <circle class="st2" cx="404.5" cy="352.1" r="1.1"/>
    <circle class="st2" cx="393" cy="370.2" r="1.1"/>
    <circle class="st2" cx="379.6" cy="387.1" r=".9"/>
    <circle class="st2" cx="364.4" cy="402.6" r=".5"/>
    <circle class="st2" cx="347.5" cy="416.7" r=".6"/>
    <circle class="st2" cx="329.1" cy="429" r="1.1"/>
    <circle class="st2" cx="309.3" cy="439.5" r="1.2"/>
    <circle class="st2" cx="288.4" cy="447.9" r="1.2"/>
    <circle class="st2" cx="266.6" cy="454.2" r="1.3"/>
    <circle class="st2" cx="244" cy="458.2" r=".8"/>
    <circle class="st2" cx="220.9" cy="459.9" r=".8"/>
    <circle class="st2" cx="197.6" cy="459.3" r=".6"/>
    <circle class="st2" cx="174.3" cy="456.1" r=".7"/>
    <circle class="st2" cx="151.2" cy="450.6" r=".5"/>
    <circle class="st2" cx="128.7" cy="442.6" r=".8"/>
    <circle class="st2" cx="106.9" cy="432.3" r=".6"/>
    <circle class="st2" cx="86.1" cy="419.7" r="1.1"/>
    <circle class="st2" cx="66.6" cy="404.9" r=".7"/>
    <circle class="st2" cx="48.5" cy="388" r=".7"/>
    <circle class="st2" cx="32.2" cy="369.2" r=".8"/>
    <circle class="st2" cx="17.8" cy="348.7" r=".8"/>
    <circle class="st2" cx="5.4" cy="326.6" r=".8"/>
    <circle class="st2" cy="303.2" r=".3"/>
    <circle class="st2" cy="278.7" r=".5"/>
    <circle class="st2" cy="253.3" r=".8"/>
    <circle class="st2" cy="227.4" r="1.3"/>
    <circle class="st2" cy="201.1" r="1.2"/>
    <circle class="st2" cy="174.8" r="1"/>
    <circle class="st2" cy="148.8" r=".5"/>
    <circle class="st2" cy="123.2" r="1.1"/>
    <circle class="st2" cx="8.1" cy="98.5" r=".7"/>
    <circle class="st2" cx="21.6" cy="74.9" r=".3"/>
    <circle class="st2" cx="37.7" cy="52.7" r="1.2"/>
    <circle class="st2" cx="56.1" cy="32" r=".6"/>
    <circle class="st2" cx="76.6" cy="13.3" r="1.2"/>
    <circle class="st2" cx="99.2" r=".8"/>
    <circle class="st2" cx="123.5" r=".9"/>
    <circle class="st2" cx="149.3" r=".4"/>
    <circle class="st2" cx="176.4" r="1.1"/>
    <circle class="st2" cx="204.5" r=".4"/>
    <circle class="st2" cx="233.3" r=".8"/>
    <circle class="st2" cx="262.5" r=".6"/>
    <circle class="st2" cx="234.5" cy="234.5" r=".3"/>
    <circle class="st2" cx="233.7" cy="232.8" r="1.1"/>
    <circle class="st2" cx="233.3" cy="230.9" r=".3"/>
    <circle class="st2" cx="233.3" cy="228.9" r="1.1"/>
    <circle class="st2" cx="233.6" cy="226.9" r="1.3"/>
    <circle class="st2" cx="234.4" cy="224.9" r=".8"/>
    <circle class="st2" cx="235.6" cy="223.1" r=".4"/>
    <circle class="st2" cx="237.1" cy="221.4" r="1.2"/>
    <circle class="st2" cx="239" cy="219.9" r="1"/>
    <circle class="st2" cx="241.2" cy="218.6" r=".8"/>
    <circle class="st2" cx="243.7" cy="217.7" r="1"/>
    <circle class="st2" cx="246.5" cy="217.2" r="1"/>
    <circle class="st2" cx="249.4" cy="217" r=".6"/>
    <circle class="st2" cx="252.5" cy="217.3" r=".8"/>
    <circle class="st2" cx="255.7" cy="218.1" r=".4"/>
    <circle class="st2" cx="258.9" cy="219.3" r=".5"/>
    <circle class="st2" cx="262" cy="221.1" r=".7"/>
    <circle class="st2" cx="265.1" cy="223.3" r=".9"/>
    <circle class="st2" cx="267.9" cy="226" r=".5"/>
    <circle class="st2" cx="270.5" cy="229.2" r=".3"/>
    <circle class="st2" cx="272.7" cy="232.9" r="1"/>
    <circle class="st2" cx="274.6" cy="236.9" r="1.3"/>
    <circle class="st2" cx="276.1" cy="241.3" r=".5"/>
    <circle class="st2" cx="277" cy="246" r="1.1"/>
    <circle class="st2" cx="277.4" cy="251" r=".6"/>
    <path class="st2" d="M277.2,255.6c.3,0,.5.2.5.5s-.2.5-.5.5-.5-.2-.5-.5.2-.5.5-.5Z"/>
    <circle class="st2" cx="276.3" cy="261.5" r="1.1"/>
    <circle class="st2" cx="274.8" cy="266.8" r=".6"/>
    <circle class="st2" cx="272.7" cy="272.1" r=".5"/>
    <circle class="st2" cx="269.9" cy="277.3" r=".4"/>
    <circle class="st2" cx="266.4" cy="282.3" r=".6"/>
    <circle class="st2" cx="262.2" cy="287" r=".5"/>
    <circle class="st2" cx="257.4" cy="291.3" r=".4"/>
    <circle class="st2" cx="252" cy="295.2" r="1"/>
    <circle class="st2" cx="246" cy="298.5" r=".4"/>
    <circle class="st2" cx="239.5" cy="301.3" r=".8"/>
    <circle class="st2" cx="232.6" cy="303.4" r=".3"/>
    <circle class="st2" cx="225.3" cy="304.7" r=".5"/>
    <circle class="st2" cx="217.8" cy="305.3" r=".9"/>
    <circle class="st2" cx="210" cy="305" r=".6"/>
    <circle class="st2" cx="202.1" cy="303.8" r="1.2"/>
    <circle class="st2" cx="194.1" cy="301.8" r=".9"/>
    <circle class="st2" cx="186.3" cy="298.9" r="1.2"/>
    <circle class="st2" cx="178.7" cy="295" r=".8"/>
    <circle class="st2" cx="171.4" cy="290.2" r="1.1"/>
    <circle class="st2" cx="164.4" cy="284.6" r="1.2"/>
    <circle class="st2" cx="158" cy="278.1" r=".5"/>
    <circle class="st2" cx="152.2" cy="270.8" r=".3"/>
    <circle class="st2" cx="147.1" cy="262.8" r="1"/>
    <circle class="st2" cx="142.8" cy="254.1" r="1.1"/>
    <circle class="st2" cx="139.4" cy="244.8" r=".4"/>
    <circle class="st2" cx="136.9" cy="235" r="1.2"/>
    <circle class="st2" cx="135.4" cy="224.8" r="1.2"/>
    <circle class="st2" cx="135.1" cy="214.3" r=".8"/>
    <circle class="st2" cx="135.8" cy="203.7" r="1.2"/>
    <circle class="st2" cx="137.8" cy="193" r=".4"/>
    <circle class="st2" cx="140.8" cy="182.4" r=".8"/>
    <circle class="st2" cx="145.1" cy="172" r=".8"/>
    <circle class="st2" cx="150.5" cy="161.9" r=".8"/>
    <circle class="st2" cx="157.1" cy="152.3" r="1.1"/>
    <circle class="st2" cx="164.8" cy="143.3" r=".8"/>
    <circle class="st2" cx="173.5" cy="135" r="1.3"/>
    <circle class="st2" cx="183.1" cy="127.5" r=".9"/>
    <circle class="st2" cx="193.7" cy="121" r="1.1"/>
    <circle class="st2" cx="205.1" cy="115.6" r=".6"/>
    <circle class="st2" cx="217.2" cy="111.3" r=".8"/>
    <circle class="st2" cx="229.8" cy="108.3" r="1"/>
    <circle class="st2" cx="242.9" cy="106.5" r="1.2"/>
    <circle class="st2" cx="256.2" cy="106.2" r=".8"/>
    <circle class="st2" cx="269.8" cy="107.2" r=".4"/>
    <circle class="st2" cx="283.3" cy="109.7" r="1.1"/>
    <circle class="st2" cx="296.7" cy="113.7" r=".9"/>
    <circle class="st2" cx="309.8" cy="119.1" r="1.1"/>
    <circle class="st2" cx="322.4" cy="125.9" r=".7"/>
    <circle class="st2" cx="334.4" cy="134.1" r=".7"/>
    <circle class="st2" cx="345.7" cy="143.7" r=".4"/>
    <circle class="st2" cx="356" cy="154.5" r=".9"/>
    <circle class="st2" cx="365.2" cy="166.5" r=".7"/>
    <circle class="st2" cx="373.3" cy="179.5" r=".6"/>
    <circle class="st2" cx="380" cy="193.5" r="1"/>
    <circle class="st2" cx="385.4" cy="208.3" r=".8"/>
    <circle class="st2" cx="389.2" cy="223.7" r=".5"/>
    <circle class="st2" cx="391.4" cy="239.7" r=".8"/>
    <circle class="st2" cx="391.9" cy="256" r="1.1"/>
    <circle class="st2" cx="390.7" cy="272.4" r=".6"/>
    <circle class="st2" cx="387.8" cy="288.9" r=".3"/>
    <circle class="st2" cx="383.2" cy="305.1" r="1"/>
    <circle class="st2" cx="376.8" cy="320.9" r=".8"/>
    <circle class="st2" cx="368.8" cy="336.2" r=".8"/>
    <circle class="st2" cx="359" cy="350.7" r=".9"/>
    <circle class="st2" cx="347.7" cy="364.3" r=".5"/>
    <circle class="st2" cx="335" cy="376.8" r=".9"/>
    <circle class="st2" cx="320.8" cy="388" r=".6"/>
    <circle class="st2" cx="305.4" cy="397.8" r=".3"/>
    <circle class="st2" cx="288.9" cy="406" r="1.1"/>
    <circle class="st2" cx="271.4" cy="412.5" r=".8"/>
    <circle class="st2" cx="253.2" cy="417.3" r=".5"/>
    <circle class="st2" cx="234.4" cy="420.2" r=".6"/>
    <circle class="st2" cx="215.2" cy="421.1" r=".4"/>
    <circle class="st2" cx="195.8" cy="420" r=".5"/>
    <circle class="st2" cx="176.4" cy="416.9" r=".7"/>
    <circle class="st2" cx="157.3" cy="411.7" r=".4"/>
    <circle class="st2" cx="138.6" cy="404.5" r=".6"/>
    <circle class="st2" cx="120.6" cy="395.4" r=".3"/>
    <circle class="st2" cx="103.4" cy="384.3" r="1.1"/>
    <circle class="st2" cx="87.4" cy="371.4" r=".7"/>
    <circle class="st2" cx="72.6" cy="356.8" r=".8"/>
    <circle class="st2" cx="59.3" cy="340.6" r=".9"/>
    <circle class="st2" cx="47.6" cy="322.9" r="1"/>
    <circle class="st2" cx="37.8" cy="303.9" r=".6"/>
    <circle class="st2" cx="29.8" cy="283.9" r="1.3"/>
    <circle class="st2" cx="24" cy="262.9" r=".4"/>
    <circle class="st2" cx="20.2" cy="241.3" r=".4"/>
    <circle class="st2" cx="18.8" cy="219.2" r=".4"/>
    <circle class="st2" cx="19.6" cy="196.8" r="1.2"/>
    <circle class="st2" cx="22.7" cy="174.5" r=".9"/>
    <circle class="st2" cx="28.2" cy="152.4" r=".4"/>
    <circle class="st2" cx="36" cy="130.8" r=".9"/>
    <circle class="st2" cx="46.1" cy="110" r="1.1"/>
    <circle class="st2" cx="58.3" cy="90.2" r="1"/>
    <circle class="st2" cx="72.7" cy="71.5" r=".7"/>
    <circle class="st2" cx="89" cy="54.3" r=".5"/>
    <circle class="st2" cx="107.2" cy="38.8" r=".5"/>
    <circle class="st2" cx="127" cy="25.1" r=".5"/>
    <circle class="st2" cx="148.3" cy="13.4" r="1.2"/>
    <circle class="st2" cx="170.9" cy="3.9" r="1.1"/>
    <circle class="st2" cx="194.5" r="1.2"/>
    <circle class="st2" cx="219" r="1.1"/>
    <circle class="st2" cx="244" r="1.2"/>
    <circle class="st2" cx="269.3" r=".9"/>
    <circle class="st2" cx="294.6" r=".5"/>
    <circle class="st2" cx="319.6" r=".8"/>
    <circle class="st2" cx="344.2" cy="6.9" r=".7"/>
    <circle class="st2" cx="367.9" cy="17.7" r=".7"/>
    <circle class="st2" cx="390.5" cy="31" r=".8"/>
    <circle class="st2" cx="411.9" cy="46.6" r=".3"/>
    <circle class="st2" cx="431.6" cy="64.5" r=".6"/>
    <circle class="st2" cx="449.6" cy="84.5" r="1"/>
    <circle class="st2" cx="465.5" cy="106.4" r=".3"/>
    <circle class="st2" cx="469" cy="129.9" r=".5"/>
    <circle class="st2" cx="469" cy="155" r=".8"/>
    <circle class="st2" cx="469" cy="181.2" r="1"/>
    <circle class="st2" cx="469" cy="208.4" r=".6"/>
    <circle class="st2" cx="469" cy="236.2" r="1.2"/>
    <circle class="st2" cx="469" cy="264.5" r=".7"/>
    <circle class="st2" cx="469" cy="292.8" r=".5"/>
    <circle class="st2" cx="469" cy="320.8" r=".6"/>
    <circle class="st2" cx="469" cy="348.4" r="1.2"/>
    <circle class="st2" cx="469" cy="375.1" r=".8"/>
    <circle class="st2" cx="466.3" cy="400.6" r="1"/>
  </g>
</svg>