<?xml version="1.0" encoding="UTF-8"?>
<svg id="Layer_1" xmlns="http://www.w3.org/2000/svg" xmlns:xlink="http://www.w3.org/1999/xlink" version="1.1" viewBox="0 0 469 469">
  <!-- Generator: Adobe Illustrator 29.2.1, SVG Export Plug-In . SVG Version: 2.1.0 Build 116)  -->
  <defs>
    <style>
      .st0 {
        fill: url(#radial-gradient);
      }

      .st1 {
        fill: #ff4800;
        isolation: isolate;
        opacity: .8;
      }
    </style>
    <radialGradient id="radial-gradient" cx="44.4" cy="425.6" fx="44.4" fy="425.6" r=".5" gradientTransform="translate(-13635.2 133318.2) scale(312.7 -312.7)" gradientUnits="userSpaceOnUse">
      <stop offset="0" stop-color="#9cf" stop-opacity=".8"/>
      <stop offset="1" stop-color="#000" stop-opacity="0"/>
    </radialGradient>
  </defs>
  <rect width="469" height="469"/>
  <circle class="st0" cx="234.5" cy="234.5" r="156.3"/>
  <g>
    <circle class="st1" cx="234.5" cy="234.5" r=".5"/>
    <circle class="st1" cx="237.5" cy="235" r=".3"/>
    <circle class="st1" cx="240.3" cy="236.5" r=".9"/>
    <circle class="st1" cx="242.6" cy="238.9" r=".4"/>
    <circle class="st1" cx="244.2" cy="242" r=".9"/>
    <circle class="st1" cx="244.9" cy="245.8" r=".5"/>
    <circle class="st1" cx="244.6" cy="249.9" r="1.3"/>
    <circle class="st1" cx="243.2" cy="254.2" r=".5"/>
    <circle class="st1" cx="240.6" cy="258.4" r=".9"/>
    <circle class="st1" cx="236.9" cy="262.1" r=".5"/>
    <circle class="st1" cx="232.1" cy="265.2" r="1.3"/>
    <circle class="st1" cx="226.3" cy="267.4" r=".8"/>
    <circle class="st1" cx="219.8" cy="268.4" r="1.1"/>
    <circle class="st1" cx="212.8" cy="268.1" r="1.2"/>
    <circle class="st1" cx="205.5" cy="266.4" r=".5"/>
    <circle class="st1" cx="198.2" cy="263.1" r="1.2"/>
    <circle class="st1" cx="191.3" cy="258.2" r=".7"/>
    <circle class="st1" cx="185.1" cy="251.8" r=".7"/>
    <circle class="st1" cx="179.9" cy="244" r="1.2"/>
    <circle class="st1" cx="176" cy="234.9" r=".6"/>
    <circle class="st1" cx="173.7" cy="224.8" r="1"/>
    <circle class="st1" cx="173.2" cy="214" r=".9"/>
    <circle class="st1" cx="174.7" cy="202.8" r="1.2"/>
    <circle class="st1" cx="178.2" cy="191.5" r="1.2"/>
    <circle class="st1" cx="184" cy="180.6" r=".4"/>
    <circle class="st1" cx="191.8" cy="170.5" r=".5"/>
    <circle class="st1" cx="201.6" cy="161.5" r=".9"/>
    <circle class="st1" cx="213.3" cy="154.1" r="1.2"/>
    <circle class="st1" cx="226.5" cy="148.7" r=".4"/>
    <circle class="st1" cx="240.9" cy="145.5" r=".6"/>
    <path class="st1" d="M256.1,143.8c.5,0,.9.4.9.9s-.4.9-.9.9-.9-.4-.9-.9.4-.9.9-.9Z"/>
    <circle class="st1" cx="271.8" cy="146.7" r="1.1"/>
    <circle class="st1" cx="287.4" cy="151.4" r=".8"/>
    <circle class="st1" cx="302.3" cy="158.9" r="1.1"/>
    <circle class="st1" cx="316.2" cy="169.1" r=".9"/>
    <circle class="st1" cx="328.6" cy="181.9" r=".8"/>
    <circle class="st1" cx="338.8" cy="197.1" r=".8"/>
    <circle class="st1" cx="346.6" cy="214.2" r=".7"/>
    <circle class="st1" cx="351.5" cy="232.8" r="1.2"/>
    <circle class="st1" cx="353.2" cy="252.5" r=".6"/>
    <circle class="st1" cx="351.6" cy="272.7" r=".8"/>
    <circle class="st1" cx="346.4" cy="292.8" r=".4"/>
    <circle class="st1" cx="337.8" cy="312.2" r=".9"/>
    <circle class="st1" cx="325.8" cy="330.4" r=".4"/>
    <circle class="st1" cx="310.5" cy="346.6" r=".4"/>
    <circle class="st1" cx="292.3" cy="360.4" r=".3"/>
    <circle class="st1" cx="271.7" cy="371.1" r="1"/>
    <circle class="st1" cx="249.1" cy="378.4" r="1.3"/>
    <circle class="st1" cx="225" cy="382" r=".4"/>
    <circle class="st1" cx="200.2" cy="381.4" r=".8"/>
    <circle class="st1" cx="175.4" cy="376.6" r=".5"/>
    <circle class="st1" cx="151.2" cy="367.6" r="1.2"/>
    <circle class="st1" cx="128.5" cy="354.4" r="1.1"/>
    <circle class="st1" cx="107.8" cy="337.3" r=".5"/>
    <circle class="st1" cx="90" cy="316.6" r="1.1"/>
    <circle class="st1" cx="75.6" cy="292.9" r=".6"/>
    <circle class="st1" cx="65.1" cy="266.5" r="1.2" transform="translate(-14.6 4) rotate(-3.2)"/>
    <circle class="st1" cx="59.1" cy="238.4" r="1"/>
    <circle class="st1" cx="57.8" cy="209.1" r=".7"/>
    <circle class="st1" cx="61.4" cy="179.4" r=".7"/>
    <circle class="st1" cx="70.1" cy="150.4" r="1"/>
    <circle class="st1" cx="83.6" cy="122.7" r="1.3"/>
    <circle class="st1" cx="101.9" cy="97.2" r=".5"/>
    <circle class="st1" cx="124.5" cy="74.8" r="1"/>
    <circle class="st1" cx="150.9" cy="56.1" r="1"/>
    <circle class="st1" cx="180.5" cy="41.8" r=".8"/>
    <circle class="st1" cx="212.6" cy="32.5" r="1"/>
    <circle class="st1" cx="246.2" cy="28.6" r="1"/>
    <circle class="st1" cx="280.6" cy="30.3" r=".9"/>
    <circle class="st1" cx="314.6" cy="37.8" r="1.1"/>
    <circle class="st1" cx="347.4" cy="51" r=".7"/>
    <circle class="st1" cx="378.1" cy="69.7" r=".8"/>
    <circle class="st1" cx="405.6" cy="93.6" r=".9"/>
    <circle class="st1" cx="429" cy="122" r=".4"/>
    <circle class="st1" cx="447.8" cy="154.4" r="1.1"/>
    <circle class="st1" cx="461" cy="189.9" r="1.2"/>
    <circle class="st1" cx="468.4" cy="227.6" r=".5"/>
    <circle class="st1" cx="469" cy="266.6" r=".7"/>
    <circle class="st1" cx="463.8" cy="305.6" r=".7"/>
    <circle class="st1" cx="451.8" cy="343.7" r="1.2"/>
    <circle class="st1" cx="433.4" cy="379.7" r="1"/>
    <circle class="st1" cx="409" cy="412.6" r="1"/>
    <circle class="st1" cx="379.2" cy="441.4" r="1.2"/>
    <circle class="st1" cx="344.6" cy="465.1" r="1.2"/>
    <circle class="st1" cx="306.1" cy="469" r=".4"/>
    <circle class="st1" cx="264.6" cy="469" r=".4"/>
    <circle class="st1" cx="221.4" cy="469" r=".3"/>
    <circle class="st1" cx="177.5" cy="469" r="1.3"/>
    <circle class="st1" cx="134.2" cy="469" r="1"/>
    <circle class="st1" cx="92.6" cy="468.9" r=".9"/>
    <circle class="st1" cx="54" cy="444.7" r="1.1"/>
    <circle class="st1" cx="19.6" cy="414.2" r="1"/>
    <circle class="st1" cy="378" r="1.1"/>
    <circle class="st1" cy="337.1" r=".8"/>
    <circle class="st1" cy="292.4" r="1"/>
    <circle class="st1" cy="245.2" r=".7"/>
    <circle class="st1" cy="196.7" r=".9"/>
    <circle class="st1" cy="148.2" r=".9"/>
    <circle class="st1" cy="101" r="1"/>
    <circle class="st1" cy="56.6" r=".6"/>
    <circle class="st1" cx="17.4" cy="16.2" r=".5"/>
    <circle class="st1" cx="54.4" r=".8"/>
    <circle class="st1" cx="97.2" r=".5"/>
    <circle class="st1" cx="144.5" r=".6"/>
    <circle class="st1" cx="195.3" r=".6"/>
    <circle class="st1" cx="248.1" r=".6"/>
    <circle class="st1" cx="301.6" r="1.2"/>
    <circle class="st1" cx="354.3" r=".6"/>
    <circle class="st1" cx="404.6" r=".6"/>
    <circle class="st1" cx="451.2" r=".6"/>
    <circle class="st1" cx="469" cy="15.4" r=".8"/>
    <circle class="st1" cx="469" cy="59.2" r=".8"/>
    <circle class="st1" cx="469" cy="108.6" r=".6"/>
    <circle class="st1" cx="469" cy="162.4" r=".8"/>
    <circle class="st1" cx="469" cy="219.1" r="1"/>
    <circle class="st1" cx="469" cy="277.2" r=".9"/>
    <circle class="st1" cx="469" cy="335.2" r=".9"/>
    <circle class="st1" cx="469" cy="391.5" r=".4"/>
    <circle class="st1" cx="469" cy="444.3" r="1.2"/>
    <circle class="st1" cx="469" cy="469" r=".8"/>
    <circle class="st1" cx="450.6" cy="469" r=".4"/>
    <circle class="st1" cx="399.9" cy="469" r=".6"/>
    <circle class="st1" cx="343.7" cy="469" r=".6"/>
    <circle class="st1" cx="283.6" cy="469" r="1.1"/>
    <circle class="st1" cx="221.2" cy="469" r="1.1"/>
    <circle class="st1" cx="158.1" cy="469" r="1.1"/>
    <circle class="st1" cx="96.1" cy="469" r=".8"/>
    <circle class="st1" cx="36.9" cy="469" r=".4"/>
    <circle class="st1" cy="469" r=".7"/>
    <circle class="st1" cy="469" r=".6"/>
    <circle class="st1" cy="442.4" r="1.1"/>
    <circle class="st1" cy="384.5" r=".6"/>
    <circle class="st1" cy="321.7" r=".8"/>
    <circle class="st1" cy="255.5" r=".4"/>
    <circle class="st1" cy="187.7" r=".5"/>
    <circle class="st1" cy="120.2" r=".7"/>
    <circle class="st1" cy="54.8" r=".8"/>
    <circle class="st1" r=".9"/>
    <circle class="st1" r="1.2"/>
    <circle class="st1" r=".6"/>
    <circle class="st1" cx="40.4" r="1"/>
    <circle class="st1" cx="105.3" r="1"/>
    <circle class="st1" cx="174.6" r="1.3"/>
    <circle class="st1" cx="246.6" r=".4"/>
    <circle class="st1" cx="319.3" r=".4"/>
    <circle class="st1" cx="390.7" r="1.1"/>
    <circle class="st1" cx="458.8" r=".6"/>
    <circle class="st1" cx="469" r=".8"/>
    <circle class="st1" cx="469" r="1.1"/>
    <circle class="st1" cx="469" r=".4"/>
    <circle class="st1" cx="234.5" cy="234.5" r=".5"/>
    <circle class="st1" cx="234" cy="237.5" r=".4"/>
    <circle class="st1" cx="232.5" cy="240.3" r=".7"/>
    <circle class="st1" cx="230.1" cy="242.6" r=".6"/>
    <circle class="st1" cx="227" cy="244.2" r=".4"/>
    <circle class="st1" cx="223.2" cy="244.9" r=".4"/>
    <circle class="st1" cx="219.1" cy="244.6" r=".5"/>
    <circle class="st1" cx="214.8" cy="243.2" r=".6"/>
    <circle class="st1" cx="210.6" cy="240.6" r="1"/>
    <circle class="st1" cx="206.9" cy="236.9" r="1.1"/>
    <circle class="st1" cx="203.8" cy="232.1" r="1.3"/>
    <circle class="st1" cx="201.6" cy="226.3" r="1.2"/>
    <circle class="st1" cx="200.6" cy="219.8" r=".7"/>
    <circle class="st1" cx="200.9" cy="212.8" r="1.1"/>
    <circle class="st1" cx="202.6" cy="205.5" r=".6"/>
    <circle class="st1" cx="205.9" cy="198.2" r="1.1"/>
    <circle class="st1" cx="210.8" cy="191.3" r=".8"/>
    <circle class="st1" cx="217.2" cy="185.1" r="1.2"/>
    <circle class="st1" cx="225" cy="179.9" r=".7"/>
    <circle class="st1" cx="234.1" cy="176" r="1.1"/>
    <circle class="st1" cx="244.2" cy="173.7" r=".5"/>
    <circle class="st1" cx="255" cy="173.2" r=".4"/>
    <circle class="st1" cx="266.2" cy="174.7" r=".8"/>
    <circle class="st1" cx="277.5" cy="178.2" r=".7"/>
    <circle class="st1" cx="288.4" cy="184" r=".9"/>
    <circle class="st1" cx="298.5" cy="191.8" r=".4"/>
    <circle class="st1" cx="307.5" cy="201.6" r=".7"/>
    <circle class="st1" cx="314.9" cy="213.3" r=".3"/>
    <circle class="st1" cx="320.3" cy="226.5" r=".6"/>
    <circle class="st1" cx="323.5" cy="240.9" r=".7"/>
    <circle class="st1" cx="324.3" cy="256.1" r="1.3"/>
    <circle class="st1" cx="322.3" cy="271.8" r=".5"/>
    <circle class="st1" cx="317.6" cy="287.4" r=".3"/>
    <circle class="st1" cx="310.1" cy="302.3" r=".6"/>
    <circle class="st1" cx="299.9" cy="316.2" r=".7"/>
    <circle class="st1" cx="287.1" cy="328.6" r=".7"/>
    <circle class="st1" cx="271.9" cy="338.8" r="1.1"/>
    <circle class="st1" cx="254.8" cy="346.6" r=".5"/>
    <circle class="st1" cx="236.2" cy="351.5" r="1.1"/>
    <circle class="st1" cx="216.5" cy="353.2" r=".8"/>
    <circle class="st1" cx="196.3" cy="351.6" r=".8"/>
    <circle class="st1" cx="176.2" cy="346.4" r=".3"/>
    <circle class="st1" cx="156.8" cy="337.8" r="1.1"/>
    <circle class="st1" cx="138.6" cy="325.8" r="1.2"/>
    <circle class="st1" cx="122.4" cy="310.5" r=".9"/>
    <circle class="st1" cx="108.6" cy="292.3" r=".6"/>
    <circle class="st1" cx="97.9" cy="271.7" r=".8"/>
    <circle class="st1" cx="90.6" cy="249.1" r=".4"/>
    <circle class="st1" cx="87" cy="225" r=".9"/>
    <circle class="st1" cx="87.6" cy="200.2" r=".5"/>
    <circle class="st1" cx="92.4" cy="175.4" r="1"/>
    <circle class="st1" cx="101.4" cy="151.2" r="1.2"/>
    <circle class="st1" cx="114.6" cy="128.5" r="1.2"/>
    <circle class="st1" cx="131.7" cy="107.8" r=".3"/>
    <circle class="st1" cx="152.4" cy="90" r="1.2"/>
    <circle class="st1" cx="176.1" cy="75.6" r=".4"/>
    <circle class="st1" cx="202.5" cy="65.1" r=".8"/>
    <circle class="st1" cx="230.6" cy="59.1" r=".6"/>
    <circle class="st1" cx="259.9" cy="57.8" r="1.3"/>
    <circle class="st1" cx="289.6" cy="61.4" r=".3"/>
    <circle class="st1" cx="318.6" cy="70.1" r="1"/>
    <circle class="st1" cx="346.3" cy="83.6" r="1.2"/>
    <circle class="st1" cx="371.8" cy="101.9" r="1"/>
    <circle class="st1" cx="394.2" cy="124.5" r=".9"/>
    <circle class="st1" cx="412.9" cy="150.9" r=".9"/>
    <circle class="st1" cx="427.2" cy="180.5" r=".7"/>
    <circle class="st1" cx="436.5" cy="212.6" r=".6"/>
    <circle class="st1" cx="440.4" cy="246.2" r=".8"/>
    <circle class="st1" cx="438.7" cy="280.6" r="1.1"/>
    <circle class="st1" cx="431.2" cy="314.6" r=".9"/>
    <circle class="st1" cx="418" cy="347.4" r="1.2"/>
    <circle class="st1" cx="399.3" cy="378.1" r=".8"/>
    <circle class="st1" cx="375.4" cy="405.6" r=".8"/>
    <circle class="st1" cx="347" cy="429" r="1.1"/>
    <circle class="st1" cx="314.6" cy="447.8" r="1.2"/>
    <circle class="st1" cx="279.1" cy="461" r=".5"/>
    <circle class="st1" cx="241.4" cy="468.4" r="1"/>
    <circle class="st1" cx="202.4" cy="469" r="1.2"/>
    <circle class="st1" cx="163.4" cy="463.8" r="1.2"/>
    <circle class="st1" cx="125.3" cy="451.8" r=".3"/>
    <circle class="st1" cx="89.3" cy="433.4" r="1.1"/>
    <circle class="st1" cx="56.4" cy="409" r=".8"/>
    <circle class="st1" cx="27.6" cy="379.2" r="1.3"/>
    <circle class="st1" cx="3.9" cy="344.6" r="1"/>
    <circle class="st1" cy="306.1" r=".9"/>
    <circle class="st1" cy="264.6" r=".3"/>
    <circle class="st1" cy="221.4" r="1.2"/>
    <circle class="st1" cy="177.5" r="1.3"/>
    <circle class="st1" cy="134.2" r=".4"/>
    <circle class="st1" cx=".1" cy="92.6" r="1.1"/>
    <circle class="st1" cx="24.3" cy="54" r="1.3"/>
    <circle class="st1" cx="54.8" cy="19.6" r="1"/>
    <circle class="st1" cx="91" r="1.1"/>
    <circle class="st1" cx="131.9" r="1.1"/>
    <circle class="st1" cx="176.6" r="1.3"/>
    <circle class="st1" cx="223.8" r=".8"/>
    <circle class="st1" cx="272.3" r=".8"/>
    <circle class="st1" cx="320.8" r="1.1"/>
    <circle class="st1" cx="368" r=".9"/>
    <circle class="st1" cx="412.4" r=".3"/>
    <circle class="st1" cx="452.8" cy="17.4" r=".5"/>
    <circle class="st1" cx="469" cy="54.4" r=".4"/>
    <circle class="st1" cx="469" cy="97.2" r="1"/>
    <circle class="st1" cx="469" cy="144.5" r="1"/>
    <circle class="st1" cx="469" cy="195.3" r="1.1"/>
    <circle class="st1" cx="469" cy="248.1" r=".3"/>
    <circle class="st1" cx="469" cy="301.6" r=".9"/>
    <circle class="st1" cx="469" cy="354.3" r="1.1"/>
    <circle class="st1" cx="469" cy="404.6" r=".6"/>
    <circle class="st1" cx="469" cy="451.2" r="1.1"/>
    <circle class="st1" cx="453.6" cy="469" r=".5"/>
    <circle class="st1" cx="409.8" cy="469" r=".6"/>
    <circle class="st1" cx="360.4" cy="469" r=".3"/>
    <circle class="st1" cx="306.6" cy="469" r=".4"/>
    <circle class="st1" cx="249.9" cy="469" r="1.2"/>
    <circle class="st1" cx="191.8" cy="469" r="1"/>
    <circle class="st1" cx="133.8" cy="469" r="1.1"/>
    <circle class="st1" cx="77.5" cy="469" r="1"/>
    <circle class="st1" cx="24.7" cy="469" r=".9"/>
    <circle class="st1" cy="469" r=".5"/>
    <circle class="st1" cy="450.6" r="1.1"/>
    <circle class="st1" cy="399.9" r="1.1"/>
    <circle class="st1" cy="343.7" r="1"/>
    <circle class="st1" cy="283.6" r=".9"/>
    <circle class="st1" cy="221.2" r=".8"/>
    <circle class="st1" cy="158.1" r=".9"/>
    <circle class="st1" cy="96.1" r=".8"/>
    <circle class="st1" cy="36.9" r=".4"/>
    <circle class="st1" r="1.2"/>
    <circle class="st1" r="1.1"/>
    <circle class="st1" cx="26.6" r=".7"/>
    <circle class="st1" cx="84.5" r=".4"/>
    <circle class="st1" cx="147.3" r="1"/>
    <circle class="st1" cx="213.5" r=".7"/>
    <circle class="st1" cx="281.3" r=".9"/>
    <circle class="st1" cx="348.8" r="1.1"/>
    <circle class="st1" cx="414.2" r=".6"/>
    <circle class="st1" cx="469" r="1.1"/>
    <circle class="st1" cx="469" r="1.3"/>
    <circle class="st1" cx="469" r=".3"/>
    <circle class="st1" cx="469" cy="40.4" r=".5"/>
    <circle class="st1" cx="469" cy="105.3" r=".7"/>
    <circle class="st1" cx="469" cy="174.6" r=".7"/>
    <circle class="st1" cx="469" cy="246.6" r="1.1"/>
    <circle class="st1" cx="469" cy="319.3" r=".4"/>
    <circle class="st1" cx="469" cy="390.7" r="1"/>
    <circle class="st1" cx="469" cy="458.8" r=".4"/>
    <circle class="st1" cx="469" cy="469" r="1.1"/>
    <circle class="st1" cx="469" cy="469" r=".6"/>
    <circle class="st1" cx="469" cy="469" r=".4"/>
    <circle class="st1" cx="234.5" cy="234.5" r="1"/>
    <circle class="st1" cx="231.5" cy="234" r=".5"/>
    <circle class="st1" cx="228.7" cy="232.5" r="1.1"/>
    <circle class="st1" cx="226.4" cy="230.1" r="1"/>
    <circle class="st1" cx="224.8" cy="227" r=".9"/>
    <circle class="st1" cx="224.1" cy="223.2" r=".7"/>
    <circle class="st1" cx="224.4" cy="219.1" r=".6"/>
    <circle class="st1" cx="225.8" cy="214.8" r=".9"/>
    <circle class="st1" cx="228.4" cy="210.6" r=".7"/>
    <circle class="st1" cx="232.1" cy="206.9" r=".3"/>
    <circle class="st1" cx="236.9" cy="203.8" r=".3"/>
    <circle class="st1" cx="242.7" cy="201.6" r="1.1"/>
    <circle class="st1" cx="249.2" cy="200.6" r=".8"/>
    <circle class="st1" cx="256.2" cy="200.9" r="1.2" transform="translate(16.9 421.6) rotate(-80.8)"/>
    <circle class="st1" cx="263.5" cy="202.6" r=".9"/>
    <circle class="st1" cx="270.8" cy="205.9" r=".5"/>
    <circle class="st1" cx="277.7" cy="210.8" r="1"/>
    <circle class="st1" cx="283.9" cy="217.2" r=".7"/>
    <circle class="st1" cx="289.1" cy="225" r="1.1"/>
    <circle class="st1" cx="293" cy="234.1" r=".9"/>
    <circle class="st1" cx="295.3" cy="244.2" r=".8"/>
    <circle class="st1" cx="295.8" cy="255" r=".6"/>
    <circle class="st1" cx="294.3" cy="266.2" r=".4"/>
    <circle class="st1" cx="290.8" cy="277.5" r=".5"/>
    <circle class="st1" cx="285" cy="288.4" r=".4"/>
    <circle class="st1" cx="277.2" cy="298.5" r=".4"/>
    <circle class="st1" cx="267.4" cy="307.5" r=".4"/>
    <path class="st1" d="M255.7,313.9c.5,0,.9.4.9.9s-.4.9-.9.9-.9-.4-.9-.9.4-.9.9-.9Z"/>
    <circle class="st1" cx="242.5" cy="320.3" r=".6"/>
    <circle class="st1" cx="228.1" cy="323.5" r=".6"/>
    <circle class="st1" cx="212.9" cy="324.3" r="1.1"/>
    <circle class="st1" cx="197.2" cy="322.3" r=".4"/>
    <circle class="st1" cx="181.6" cy="317.6" r="1.1"/>
    <circle class="st1" cx="166.7" cy="310.1" r=".4"/>
    <circle class="st1" cx="152.8" cy="299.9" r=".5"/>
    <circle class="st1" cx="140.4" cy="287.1" r=".9"/>
    <circle class="st1" cx="130.2" cy="271.9" r=".3"/>
    <circle class="st1" cx="122.4" cy="254.8" r="1.2"/>
    <circle class="st1" cx="117.5" cy="236.2" r=".6"/>
    <circle class="st1" cx="115.8" cy="216.5" r=".4"/>
    <circle class="st1" cx="117.4" cy="196.3" r=".7"/>
    <circle class="st1" cx="122.6" cy="176.2" r=".9"/>
    <circle class="st1" cx="131.2" cy="156.8" r=".7"/>
    <circle class="st1" cx="143.2" cy="138.6" r="1.2"/>
    <circle class="st1" cx="158.5" cy="122.4" r=".8"/>
    <circle class="st1" cx="176.7" cy="108.6" r=".9"/>
    <circle class="st1" cx="197.3" cy="97.9" r=".7"/>
    <circle class="st1" cx="219.9" cy="90.6" r=".7"/>
    <circle class="st1" cx="244" cy="87" r=".8"/>
    <circle class="st1" cx="268.8" cy="87.6" r=".8"/>
    <circle class="st1" cx="293.6" cy="92.4" r="1"/>
    <circle class="st1" cx="317.8" cy="101.4" r="1.3"/>
    <circle class="st1" cx="340.5" cy="114.6" r="1"/>
    <circle class="st1" cx="361.2" cy="131.7" r=".4"/>
    <circle class="st1" cx="379" cy="152.4" r=".8"/>
    <circle class="st1" cx="393.4" cy="176.1" r=".9"/>
    <circle class="st1" cx="403.9" cy="202.5" r=".6"/>
    <circle class="st1" cx="409.9" cy="230.6" r=".9"/>
    <circle class="st1" cx="411.2" cy="259.9" r=".6"/>
    <circle class="st1" cx="407.6" cy="289.6" r="1.1"/>
    <circle class="st1" cx="398.9" cy="318.6" r=".6"/>
    <circle class="st1" cx="385.4" cy="346.3" r="1.3"/>
    <circle class="st1" cx="367.1" cy="371.8" r=".5"/>
    <circle class="st1" cx="344.5" cy="394.2" r="1"/>
    <circle class="st1" cx="318.1" cy="412.9" r=".4"/>
    <circle class="st1" cx="288.5" cy="427.2" r=".5"/>
    <circle class="st1" cx="256.4" cy="436.5" r="1.2"/>
    <circle class="st1" cx="222.8" cy="440.4" r=".6"/>
    <circle class="st1" cx="188.4" cy="438.7" r=".8"/>
    <circle class="st1" cx="154.4" cy="431.2" r=".9"/>
    <circle class="st1" cx="121.6" cy="418" r=".9"/>
    <circle class="st1" cx="90.9" cy="399.3" r=".8"/>
    <circle class="st1" cx="63.4" cy="375.4" r="1.3"/>
    <circle class="st1" cx="40" cy="347" r=".9"/>
    <circle class="st1" cx="21.2" cy="314.6" r="1.1"/>
    <circle class="st1" cx="8" cy="279.1" r="1.1"/>
    <circle class="st1" cx=".6" cy="241.4" r="1.1"/>
    <circle class="st1" cy="202.4" r=".3"/>
    <circle class="st1" cx="5.2" cy="163.4" r=".9"/>
    <circle class="st1" cx="17.2" cy="125.3" r=".3"/>
    <circle class="st1" cx="35.6" cy="89.3" r="1"/>
    <circle class="st1" cx="60" cy="56.4" r=".9"/>
    <circle class="st1" cx="89.8" cy="27.6" r=".8"/>
    <circle class="st1" cx="124.4" cy="3.9" r=".9"/>
    <circle class="st1" cx="162.9" r="1.3"/>
    <circle class="st1" cx="204.4" r="1.3"/>
    <circle class="st1" cx="247.6" r=".7"/>
    <circle class="st1" cx="291.5" r="1"/>
    <circle class="st1" cx="334.8" r="1"/>
    <circle class="st1" cx="376.4" cy=".1" r="1.3"/>
    <circle class="st1" cx="415" cy="24.3" r=".7"/>
    <circle class="st1" cx="449.4" cy="54.8" r=".6"/>
    <circle class="st1" cx="469" cy="91" r=".9"/>
    <circle class="st1" cx="469" cy="131.9" r=".6"/>
    <circle class="st1" cx="469" cy="176.6" r=".5"/>
    <circle class="st1" cx="469" cy="223.8" r="1.2"/>
    <circle class="st1" cx="469" cy="272.3" r=".3"/>
    <circle class="st1" cx="469" cy="320.8" r="1"/>
    <circle class="st1" cx="469" cy="368" r="1.3"/>
    <circle class="st1" cx="469" cy="412.4" r=".5"/>
    <circle class="st1" cx="451.6" cy="452.8" r="1.3"/>
    <circle class="st1" cx="414.6" cy="469" r="1.2"/>
    <circle class="st1" cx="371.8" cy="469" r=".8"/>
    <circle class="st1" cx="324.5" cy="469" r=".5"/>
    <circle class="st1" cx="273.7" cy="469" r=".5"/>
    <circle class="st1" cx="220.9" cy="469" r=".5"/>
    <circle class="st1" cx="167.4" cy="469" r="1"/>
    <circle class="st1" cx="114.7" cy="469" r=".8"/>
    <circle class="st1" cx="64.4" cy="469" r=".7" transform="translate(-25.8 4.3) rotate(-3.2)"/>
    <circle class="st1" cx="17.8" cy="469" r="1.3"/>
    <circle class="st1" cy="453.6" r="1"/>
    <circle class="st1" cy="409.8" r="1.2"/>
    <circle class="st1" cy="360.4" r=".5"/>
    <circle class="st1" cy="306.6" r=".5"/>
    <circle class="st1" cy="249.9" r=".6"/>
    <circle class="st1" cy="191.8" r="1.2"/>
    <circle class="st1" cy="133.8" r="1"/>
    <circle class="st1" cy="77.5" r=".6"/>
    <circle class="st1" cy="24.7" r=".7"/>
    <circle class="st1" r=".6"/>
    <circle class="st1" cx="18.4" r=".9"/>
    <circle class="st1" cx="69.1" r=".7"/>
    <circle class="st1" cx="125.3" r="1"/>
    <circle class="st1" cx="185.4" r=".5"/>
    <circle class="st1" cx="247.8" r=".3"/>
    <circle class="st1" cx="310.9" r="1"/>
    <circle class="st1" cx="372.9" r=".5"/>
    <circle class="st1" cx="432.1" r=".6"/>
    <circle class="st1" cx="469" r=".9"/>
    <circle class="st1" cx="469" r=".5"/>
    <circle class="st1" cx="469" cy="26.6" r=".4"/>
    <circle class="st1" cx="469" cy="84.5" r=".5"/>
    <circle class="st1" cx="469" cy="147.3" r=".9"/>
    <circle class="st1" cx="469" cy="213.5" r="1.1"/>
    <circle class="st1" cx="469" cy="281.3" r=".6"/>
    <circle class="st1" cx="469" cy="348.8" r=".3"/>
    <circle class="st1" cx="469" cy="414.2" r="1.3"/>
    <circle class="st1" cx="469" cy="469" r="1.3"/>
    <circle class="st1" cx="469" cy="469" r=".5"/>
    <circle class="st1" cx="469" cy="469" r="1.2"/>
    <circle class="st1" cx="428.6" cy="469" r=".5"/>
    <circle class="st1" cx="363.7" cy="469" r="1.1"/>
    <circle class="st1" cx="294.4" cy="469" r="1.3"/>
    <circle class="st1" cx="222.4" cy="469" r="1.1"/>
    <circle class="st1" cx="149.7" cy="469" r=".6"/>
    <circle class="st1" cx="78.3" cy="469" r=".3"/>
    <circle class="st1" cx="10.2" cy="469" r=".6"/>
    <circle class="st1" cy="469" r="1.1"/>
    <circle class="st1" cy="469" r=".6"/>
    <circle class="st1" cy="469" r=".7"/>
    <circle class="st1" cx="234.5" cy="234.5" r="1.3"/>
    <circle class="st1" cx="235" cy="231.5" r="1"/>
    <circle class="st1" cx="236.5" cy="228.7" r=".7"/>
    <circle class="st1" cx="238.9" cy="226.4" r=".7"/>
    <circle class="st1" cx="242" cy="224.8" r=".5"/>
    <circle class="st1" cx="245.8" cy="224.1" r="1.2"/>
    <circle class="st1" cx="249.9" cy="224.4" r=".7"/>
    <circle class="st1" cx="254.2" cy="225.8" r=".9"/>
    <circle class="st1" cx="258.4" cy="228.4" r="1.2"/>
    <circle class="st1" cx="262.1" cy="232.1" r=".3"/>
    <circle class="st1" cx="265.2" cy="236.9" r="1.3"/>
    <circle class="st1" cx="267.4" cy="242.7" r="1"/>
    <circle class="st1" cx="268.4" cy="249.2" r="1"/>
    <path class="st1" d="M268.1,255.6c.4,0,.7.3.7.7s-.3.7-.7.7-.7-.3-.7-.7.3-.7.7-.7Z"/>
    <circle class="st1" cx="266.4" cy="263.5" r="1.1"/>
    <circle class="st1" cx="263.1" cy="270.8" r="1.1"/>
    <circle class="st1" cx="258.2" cy="277.7" r=".8"/>
    <circle class="st1" cx="251.8" cy="283.9" r=".4"/>
    <circle class="st1" cx="244" cy="289.1" r=".4"/>
    <circle class="st1" cx="234.9" cy="293" r=".6"/>
    <circle class="st1" cx="224.8" cy="295.3" r=".4"/>
    <circle class="st1" cx="214" cy="295.8" r=".6"/>
    <circle class="st1" cx="202.8" cy="294.3" r=".6"/>
    <circle class="st1" cx="191.5" cy="290.8" r=".9"/>
    <circle class="st1" cx="180.6" cy="285" r=".3"/>
    <circle class="st1" cx="170.5" cy="277.2" r=".9"/>
    <circle class="st1" cx="161.5" cy="267.4" r=".6"/>
    <circle class="st1" cx="154.1" cy="255.7" r=".4"/>
    <circle class="st1" cx="148.7" cy="242.5" r="1.2"/>
    <circle class="st1" cx="145.5" cy="228.1" r=".4"/>
    <circle class="st1" cx="144.7" cy="212.9" r=".9"/>
    <circle class="st1" cx="146.7" cy="197.2" r=".6"/>
    <circle class="st1" cx="151.4" cy="181.6" r="1"/>
    <circle class="st1" cx="158.9" cy="166.7" r="1.2"/>
    <circle class="st1" cx="169.1" cy="152.8" r=".6"/>
    <circle class="st1" cx="181.9" cy="140.4" r=".7"/>
    <circle class="st1" cx="197.1" cy="130.2" r=".6"/>
    <circle class="st1" cx="214.2" cy="122.4" r="1.2"/>
    <circle class="st1" cx="232.8" cy="117.5" r=".7"/>
    <circle class="st1" cx="252.5" cy="115.8" r="1.1"/>
    <circle class="st1" cx="272.7" cy="117.4" r="1.2"/>
    <circle class="st1" cx="292.8" cy="122.6" r=".6"/>
    <circle class="st1" cx="312.2" cy="131.2" r=".9"/>
    <circle class="st1" cx="330.4" cy="143.2" r=".7"/>
    <circle class="st1" cx="346.6" cy="158.5" r="1"/>
    <circle class="st1" cx="360.4" cy="176.7" r=".5"/>
    <circle class="st1" cx="371.1" cy="197.3" r="1.1"/>
    <circle class="st1" cx="378.4" cy="219.9" r="1.1"/>
    <circle class="st1" cx="382" cy="244" r="1.2"/>
    <circle class="st1" cx="381.4" cy="268.8" r="1"/>
    <circle class="st1" cx="376.6" cy="293.6" r="1.3"/>
    <circle class="st1" cx="367.6" cy="317.8" r=".3"/>
    <circle class="st1" cx="354.4" cy="340.5" r=".3"/>
    <circle class="st1" cx="337.3" cy="361.2" r=".5"/>
    <circle class="st1" cx="316.6" cy="379" r=".9"/>
    <circle class="st1" cx="292.9" cy="393.4" r=".9"/>
    <circle class="st1" cx="266.5" cy="403.9" r=".5"/>
    <circle class="st1" cx="238.4" cy="409.9" r=".6"/>
    <circle class="st1" cx="209.1" cy="411.2" r=".7"/>
    <circle class="st1" cx="179.4" cy="407.6" r="1.3"/>
    <circle class="st1" cx="150.4" cy="398.9" r=".4"/>
    <circle class="st1" cx="122.7" cy="385.4" r=".5"/>
    <circle class="st1" cx="97.2" cy="367.1" r=".4"/>
    <circle class="st1" cx="74.8" cy="344.5" r=".6"/>
    <circle class="st1" cx="56.1" cy="318.1" r=".6"/>
    <circle class="st1" cx="41.8" cy="288.5" r="1"/>
    <circle class="st1" cx="32.5" cy="256.4" r=".9"/>
    <circle class="st1" cx="28.6" cy="222.8" r="1"/>
    <circle class="st1" cx="30.3" cy="188.4" r="1.3"/>
    <circle class="st1" cx="37.8" cy="154.4" r=".8"/>
    <circle class="st1" cx="51" cy="121.6" r="1.1"/>
    <circle class="st1" cx="69.7" cy="90.9" r="1"/>
    <circle class="st1" cx="93.6" cy="63.4" r=".6"/>
    <circle class="st1" cx="122" cy="40" r="1.2"/>
    <circle class="st1" cx="154.4" cy="21.2" r=".6"/>
    <circle class="st1" cx="189.9" cy="8" r=".4"/>
    <circle class="st1" cx="227.6" cy=".6" r="1.3"/>
    <circle class="st1" cx="266.6" r=".8"/>
    <circle class="st1" cx="305.6" cy="5.2" r=".4"/>
    <circle class="st1" cx="343.7" cy="17.2" r="1"/>
    <circle class="st1" cx="379.7" cy="35.6" r="1"/>
    <circle class="st1" cx="412.6" cy="60" r=".9"/>
    <circle class="st1" cx="441.4" cy="89.8" r="1.2"/>
    <circle class="st1" cx="465.1" cy="124.4" r=".4"/>
    <circle class="st1" cx="469" cy="162.9" r=".4"/>
    <circle class="st1" cx="469" cy="204.4" r=".7"/>
    <circle class="st1" cx="469" cy="247.6" r=".4"/>
    <circle class="st1" cx="469" cy="291.5" r=".9"/>
    <circle class="st1" cx="469" cy="334.8" r=".7"/>
    <circle class="st1" cx="468.9" cy="376.4" r=".9"/>
    <circle class="st1" cx="444.7" cy="415" r="1"/>
    <circle class="st1" cx="414.2" cy="449.4" r="1.2"/>
    <circle class="st1" cx="378" cy="469" r=".7"/>
    <circle class="st1" cx="337.1" cy="469" r="1.2"/>
    <circle class="st1" cx="292.4" cy="469" r="1"/>
    <circle class="st1" cx="245.2" cy="469" r=".6"/>
    <circle class="st1" cx="196.7" cy="469" r=".9"/>
    <circle class="st1" cx="148.2" cy="469" r="1"/>
    <circle class="st1" cx="101" cy="469" r=".8"/>
    <circle class="st1" cx="56.6" cy="469" r=".3"/>
    <circle class="st1" cx="16.2" cy="451.6" r="1.1"/>
    <circle class="st1" cy="414.6" r=".9"/>
    <circle class="st1" cy="371.8" r=".5"/>
    <circle class="st1" cy="324.5" r=".4"/>
    <circle class="st1" cy="273.7" r=".4"/>
    <circle class="st1" cy="220.9" r="1.3"/>
    <circle class="st1" cy="167.4" r=".3"/>
    <circle class="st1" cy="114.7" r=".7"/>
    <circle class="st1" cy="64.4" r=".5"/>
    <circle class="st1" cy="17.8" r="1.2"/>
    <circle class="st1" cx="15.4" r="1.3"/>
    <circle class="st1" cx="59.2" r=".3"/>
    <circle class="st1" cx="108.6" r="1.1"/>
    <circle class="st1" cx="162.4" r=".9"/>
    <circle class="st1" cx="219.1" r=".4"/>
    <circle class="st1" cx="277.2" r=".5"/>
    <circle class="st1" cx="335.2" r=".4"/>
    <circle class="st1" cx="391.5" r=".4"/>
    <circle class="st1" cx="444.3" r="1"/>
    <circle class="st1" cx="469" r="1"/>
    <circle class="st1" cx="469" cy="18.4" r=".9"/>
    <circle class="st1" cx="469" cy="69.1" r="1.3"/>
    <circle class="st1" cx="469" cy="125.3" r=".6"/>
    <circle class="st1" cx="469" cy="185.4" r=".5"/>
    <circle class="st1" cx="469" cy="247.8" r=".9"/>
    <circle class="st1" cx="469" cy="310.9" r=".8"/>
    <circle class="st1" cx="469" cy="372.9" r="1"/>
    <circle class="st1" cx="469" cy="432.1" r=".8"/>
    <circle class="st1" cx="469" cy="469" r=".6"/>
    <circle class="st1" cx="469" cy="469" r=".7"/>
    <circle class="st1" cx="442.4" cy="469" r=".3"/>
    <circle class="st1" cx="384.5" cy="469" r=".9"/>
    <circle class="st1" cx="321.7" cy="469" r="1.1"/>
    <circle class="st1" cx="255.5" cy="469" r=".5"/>
    <circle class="st1" cx="187.7" cy="469" r=".6"/>
    <circle class="st1" cx="120.2" cy="469" r=".8"/>
    <circle class="st1" cx="54.8" cy="469" r="1.1"/>
    <circle class="st1" cy="469" r=".6"/>
    <circle class="st1" cy="469" r=".8"/>
    <circle class="st1" cy="469" r=".5"/>
    <circle class="st1" cy="428.6" r=".6"/>
    <circle class="st1" cy="363.7" r=".5"/>
    <circle class="st1" cy="294.4" r=".5"/>
    <circle class="st1" cy="222.4" r="1.2"/>
    <circle class="st1" cy="149.7" r="1.1"/>
    <circle class="st1" cy="78.3" r=".6"/>
    <circle class="st1" cy="10.2" r=".4"/>
    <circle class="st1" r=".8"/>
    <circle class="st1" r=".8"/>
    <circle class="st1" r="1.1"/>
  </g>
</svg>