<?xml version="1.0" encoding="UTF-8"?>
<svg id="Layer_1" xmlns="http://www.w3.org/2000/svg" xmlns:xlink="http://www.w3.org/1999/xlink" version="1.1" viewBox="0 0 469 469">
  <!-- Generator: Adobe Illustrator 29.2.1, SVG Export Plug-In . SVG Version: 2.1.0 Build 116)  -->
  <defs>
    <style>
      .st0 {
        fill: url(#radial-gradient);
      }

      .st1 {
        fill: #ff5fec;
        opacity: .8;
      }

      .st1, .st2 {
        isolation: isolate;
      }

      .st2 {
        fill: #ff0;
        opacity: .7;
      }
    </style>
    <radialGradient id="radial-gradient" cx="44.4" cy="425.6" fx="44.4" fy="425.6" r=".5" gradientTransform="translate(-13635.2 133318.2) scale(312.7 -312.7)" gradientUnits="userSpaceOnUse">
      <stop offset="0" stop-color="#f9c" stop-opacity=".8"/>
      <stop offset="1" stop-color="#000" stop-opacity="0"/>
    </radialGradient>
  </defs>
  <rect width="469" height="469"/>
  <g>
    <circle class="st2" cy="30" r="1"/>
    <circle class="st2" cx="2" cy="6" r="1"/>
    <circle class="st2" cx="12" cy="6" r="1"/>
    <circle class="st2" cx="14" cy="8" r="1"/>
    <circle class="st2" cx="16" cy="4" r="1"/>
    <circle class="st2" cx="18" cy="2" r="1"/>
    <circle class="st2" cx="18" cy="8" r="1"/>
    <circle class="st2" cx="18" cy="12" r="1"/>
    <circle class="st2" cx="18" cy="14" r="1"/>
    <circle class="st2" cx="20" cy="14" r="1"/>
    <circle class="st2" cx="22" cy="16" r="1"/>
    <circle class="st2" cx="24" cy="10" r="1"/>
    <circle class="st2" cx="24" cy="18" r="1"/>
    <circle class="st2" cx="26" cy="14" r="1"/>
    <circle class="st2" cx="30" cy="10" r="1"/>
    <circle class="st2" cx="30" cy="12" r="1"/>
    <circle class="st2" cx="34" cy="10" r="1"/>
    <circle class="st2" cx="36" cy="4" r="1"/>
    <circle class="st2" cx="48" r="1"/>
    <circle class="st2" cx="432" cy="466" r="1"/>
    <circle class="st2" cx="440" cy="458" r="1"/>
    <circle class="st2" cx="440" cy="464" r="1"/>
    <circle class="st2" cx="442" cy="462" r="1"/>
    <circle class="st2" cx="442" cy="466" r="1"/>
    <circle class="st2" cx="448" cy="460" r="1"/>
    <circle class="st2" cx="450" cy="460" r="1"/>
    <circle class="st2" cx="454" cy="456" r="1"/>
    <circle class="st2" cx="460" cy="460" r="1"/>
    <circle class="st2" cx="462" cy="460" r="1"/>
    <circle class="st2" cx="462" cy="462" r="1"/>
    <circle class="st2" cx="462" cy="464" r="1"/>
    <circle class="st2" cx="464" cy="448" r="1"/>
    <circle class="st2" cx="464" cy="456" r="1"/>
    <circle class="st2" cx="466" cy="450" r="1"/>
    <circle class="st2" cx="466" cy="462" r="1"/>
    <circle class="st2" cx="468" cy="450" r="1"/>
    <circle class="st2" cx="468" cy="452" r="1"/>
    <circle class="st2" cx="468" cy="468" r="1"/>
  </g>
  <circle class="st0" cx="234.5" cy="234.5" r="156.3"/>
  <g>
    <circle class="st1" cx="234.5" cy="234.5" r="1.3"/>
    <circle class="st1" cx="237.6" cy="235" r=".5"/>
    <circle class="st1" cx="240.5" cy="236.6" r="1"/>
    <circle class="st1" cx="242.8" cy="239.2" r="1.2"/>
    <circle class="st1" cx="244.4" cy="242.5" r=".6"/>
    <circle class="st1" cx="245" cy="246.5" r=".7"/>
    <circle class="st1" cx="244.4" cy="250.8" r="1"/>
    <circle class="st1" cx="242.7" cy="255.2" r=".9"/>
    <circle class="st1" cx="239.7" cy="259.4" r=".5"/>
    <circle class="st1" cx="235.5" cy="263.1" r=".6"/>
    <circle class="st1" cx="230.2" cy="266.1" r="1.1"/>
    <circle class="st1" cx="223.9" cy="267.9" r="1.2"/>
    <circle class="st1" cx="216.9" cy="268.4" r=".5"/>
    <circle class="st1" cx="209.5" cy="267.5" r=".8"/>
    <circle class="st1" cx="201.9" cy="265" r=".8"/>
    <circle class="st1" cx="194.6" cy="260.7" r=".7"/>
    <circle class="st1" cx="187.8" cy="254.8" r="1.2"/>
    <circle class="st1" cx="181.9" cy="247.4" r=".8"/>
    <circle class="st1" cx="177.3" cy="238.5" r="1"/>
    <circle class="st1" cx="174.3" cy="228.4" r=".8"/>
    <circle class="st1" cx="173.1" cy="217.4" r=".5"/>
    <circle class="st1" cx="174.1" cy="205.8" r=".3"/>
    <circle class="st1" cx="177.2" cy="194.2" r=".9"/>
    <circle class="st1" cx="182.6" cy="182.8" r="1.2"/>
    <circle class="st1" cx="190.3" cy="172.1" r="1"/>
    <circle class="st1" cx="200.2" cy="162.6" r="1.1"/>
    <circle class="st1" cx="212" cy="154.8" r="1.1"/>
    <circle class="st1" cx="225.6" cy="149" r="1.2"/>
    <circle class="st1" cx="240.5" cy="145.5" r="1.1"/>
    <circle class="st1" cx="256.2" cy="144.7" r=".5"/>
    <circle class="st1" cx="272.4" cy="146.8" r=".8"/>
    <circle class="st1" cx="288.5" cy="151.8" r=".9"/>
    <circle class="st1" cx="303.9" cy="159.9" r="1"/>
    <circle class="st1" cx="318.1" cy="170.8" r=".7"/>
    <circle class="st1" cx="330.6" cy="184.5" r=".4"/>
    <circle class="st1" cx="340.7" cy="200.6" r=".8"/>
    <circle class="st1" cx="348.1" cy="218.7" r=".8"/>
    <circle class="st1" cx="352.3" cy="238.3" r=".8"/>
    <circle class="st1" cx="353.1" cy="258.9" r=".5"/>
    <circle class="st1" cx="350.2" cy="279.8" r="1.2"/>
    <circle class="st1" cx="343.5" cy="300.5" r="1"/>
    <circle class="st1" cx="333.1" cy="320.1" r="1.2"/>
    <circle class="st1" cx="319.2" cy="338.1" r=".9"/>
    <circle class="st1" cx="301.9" cy="353.7" r=".6"/>
    <circle class="st1" cx="281.7" cy="366.4" r="1"/>
    <circle class="st1" cx="259.2" cy="375.7" r=".8"/>
    <circle class="st1" cx="234.9" cy="381" r=".5"/>
    <circle class="st1" cx="209.4" cy="382.1" r=".8"/>
    <circle class="st1" cx="183.7" cy="378.7" r=".7"/>
    <circle class="st1" cx="158.4" cy="370.7" r="1.2"/>
    <circle class="st1" cx="134.3" cy="358.3" r=".7"/>
    <circle class="st1" cx="112.3" cy="341.6" r=".9"/>
    <circle class="st1" cx="93.2" cy="320.9" r=".8"/>
    <circle class="st1" cx="77.6" cy="296.9" r="1.2"/>
    <circle class="st1" cx="66.2" cy="270" r=".9"/>
    <circle class="st1" cx="59.4" cy="241" r=".7"/>
    <circle class="st1" cx="57.7" cy="210.7" r="1.2"/>
    <circle class="st1" cx="61.3" cy="180.1" r=".3"/>
    <circle class="st1" cx="70.2" cy="150" r="1.1"/>
    <circle class="st1" cx="84.4" cy="121.4" r=".6"/>
    <circle class="st1" cx="103.6" cy="95.2" r=".5"/>
    <circle class="st1" cx="127.4" cy="72.4" r=".9"/>
    <circle class="st1" cx="155.2" cy="53.6" r=".8"/>
    <circle class="st1" cx="186.4" cy="39.7" r=".8"/>
    <circle class="st1" cx="219.9" cy="31.2" r="1.2"/>
    <circle class="st1" cx="255" cy="28.5" r="1.3"/>
    <circle class="st1" cx="290.5" cy="31.9" r="1.1"/>
    <circle class="st1" cx="325.5" cy="41.5" r="1"/>
    <circle class="st1" cx="358.8" cy="57.1" r=".7"/>
    <circle class="st1" cx="389.3" cy="78.5" r=".8"/>
    <circle class="st1" cx="416.2" cy="105.3" r=".3"/>
    <circle class="st1" cx="438.4" cy="136.6" r="1.3"/>
    <circle class="st1" cx="455.1" cy="171.8" r=".9"/>
    <circle class="st1" cx="465.7" cy="209.8" r=".8"/>
    <circle class="st1" cx="469" cy="249.7" r="1"/>
    <circle class="st1" cx="466.8" cy="290.2" r="1.1"/>
    <circle class="st1" cx="456.9" cy="330.1" r="1.2"/>
    <circle class="st1" cx="440.1" cy="368.2" r="1.2"/>
    <circle class="st1" cx="416.8" cy="403.3" r=".6"/>
    <circle class="st1" cx="387.4" cy="434.4" r=".9"/>
    <circle class="st1" cx="352.7" cy="460.3" r="1.1"/>
    <circle class="st1" cx="313.6" cy="469" r="1.1"/>
    <circle class="st1" cx="271.2" cy="469" r=".8"/>
    <circle class="st1" cx="226.6" cy="469" r=".5"/>
    <circle class="st1" cx="181.2" cy="469" r=".6"/>
    <circle class="st1" cx="136.3" cy="469" r=".6"/>
    <circle class="st1" cx="93.2" cy="469" r=".8"/>
    <circle class="st1" cx="53.3" cy="444.2" r="1.1"/>
    <circle class="st1" cx="17.9" cy="412.4" r=".6"/>
    <circle class="st1" cy="374.6" r=".8"/>
    <circle class="st1" cy="331.8" r=".7"/>
    <circle class="st1" cy="285.1" r=".4"/>
    <circle class="st1" cy="235.9" r="1"/>
    <circle class="st1" cy="185.6" r=".4"/>
    <circle class="st1" cy="135.6" r="1.2"/>
    <circle class="st1" cy="87.5" r=".5"/>
    <circle class="st1" cy="42.7" r=".6"/>
    <circle class="st1" cx="30.3" cy="2.7" r=".5"/>
    <circle class="st1" cx="71" r=".9"/>
    <circle class="st1" cx="117.3" r="1.1"/>
    <circle class="st1" cx="168.1" r=".4"/>
    <circle class="st1" cx="221.8" r="1.3"/>
    <circle class="st1" cx="277" r=".4"/>
    <circle class="st1" cx="332.1" r=".5"/>
    <circle class="st1" cx="385.3" r="1"/>
    <circle class="st1" cx="435.1" r=".3"/>
    <circle class="st1" cx="469" cy="2.7" r="1"/>
    <circle class="st1" cx="469" cy="46" r=".9"/>
    <circle class="st1" cx="469" cy="95.7" r="1.2"/>
    <circle class="st1" cx="469" cy="150.4" r="1"/>
    <circle class="st1" cx="469" cy="208.6" r=".7"/>
    <circle class="st1" cx="469" cy="268.6" r=".9"/>
    <circle class="st1" cx="469" cy="328.7" r=".4"/>
    <circle class="st1" cx="469" cy="387.2" r="1.1"/>
    <circle class="st1" cx="469" cy="442.1" r=".3"/>
    <circle class="st1" cx="469" cy="469" r=".6"/>
    <circle class="st1" cx="449.4" cy="469" r="1.2"/>
    <circle class="st1" cx="396.6" cy="469" r="1.1"/>
    <circle class="st1" cx="338.1" cy="469" r=".5"/>
    <circle class="st1" cx="275.6" cy="469" r="1.1"/>
    <circle class="st1" cx="210.8" cy="469" r=".8"/>
    <circle class="st1" cx="145.6" cy="469" r=".8"/>
    <circle class="st1" cx="82" cy="469" r="1.3"/>
    <circle class="st1" cx="21.7" cy="469" r="1.1"/>
    <circle class="st1" cy="469" r=".4"/>
    <circle class="st1" cy="469" r="1.3"/>
    <circle class="st1" cy="421.5" r="1"/>
    <circle class="st1" cy="359.4" r="1"/>
    <circle class="st1" cy="292.7" r="1.3"/>
    <circle class="st1" cy="223.2" r=".6"/>
    <circle class="st1" cy="153" r=".8"/>
    <circle class="st1" cy="84.1" r=".5"/>
    <circle class="st1" cy="18.5" r="1.1"/>
    <circle class="st1" r=".5"/>
    <circle class="st1" r=".7"/>
    <circle class="st1" cx="21.1" r=".8"/>
    <circle class="st1" cx="86.5" r=".8"/>
    <circle class="st1" cx="157.3" r="1.2"/>
    <circle class="st1" cx="231.3" r=".4"/>
    <circle class="st1" cx="306.6" r=".5"/>
    <circle class="st1" cx="380.8" r="1.2"/>
    <circle class="st1" cx="451.7" r=".5"/>
    <circle class="st1" cx="469" r=".3"/>
    <circle class="st1" cx="469" r=".3"/>
    <circle class="st1" cx="469" r=".3"/>
    <circle class="st1" cx="469" cy="61.8" r="1"/>
    <circle class="st1" cx="469" cy="136.4" r=".5"/>
    <circle class="st1" cx="469" cy="214.9" r=".8"/>
    <circle class="st1" cx="469" cy="295.1" r="1.2"/>
    <circle class="st1" cx="469" cy="374.6" r=".6"/>
    <circle class="st1" cx="234.5" cy="234.5" r="1.1"/>
    <circle class="st1" cx="231.4" cy="234" r=".7"/>
    <circle class="st1" cx="228.5" cy="232.4" r=".4"/>
    <circle class="st1" cx="226.2" cy="229.8" r=".9"/>
    <circle class="st1" cx="224.6" cy="226.5" r=".7"/>
    <circle class="st1" cx="224" cy="222.5" r="1.2"/>
    <circle class="st1" cx="224.6" cy="218.2" r=".9"/>
    <circle class="st1" cx="226.3" cy="213.8" r=".4"/>
    <circle class="st1" cx="229.3" cy="209.6" r=".8"/>
    <circle class="st1" cx="233.5" cy="205.9" r=".8"/>
    <circle class="st1" cx="238.8" cy="202.9" r=".7"/>
    <circle class="st1" cx="245.1" cy="201.1" r=".9"/>
    <circle class="st1" cx="252.1" cy="200.6" r=".5"/>
    <circle class="st1" cx="259.5" cy="201.5" r=".8"/>
    <circle class="st1" cx="267.1" cy="204" r=".7"/>
    <circle class="st1" cx="274.4" cy="208.3" r=".7"/>
    <circle class="st1" cx="281.2" cy="214.2" r=".5"/>
    <circle class="st1" cx="287.1" cy="221.6" r="1.1"/>
    <circle class="st1" cx="291.7" cy="230.5" r=".6"/>
    <circle class="st1" cx="294.7" cy="240.6" r="1.3"/>
    <circle class="st1" cx="295.9" cy="251.6" r=".6"/>
    <circle class="st1" cx="294.9" cy="263.2" r=".9"/>
    <circle class="st1" cx="291.8" cy="274.8" r=".9"/>
    <circle class="st1" cx="286.4" cy="286.2" r="1.1"/>
    <circle class="st1" cx="278.7" cy="296.9" r=".6"/>
    <circle class="st1" cx="268.8" cy="306.4" r=".9"/>
    <circle class="st1" cx="257" cy="314.2" r="1.3"/>
    <circle class="st1" cx="243.4" cy="320" r="1.2"/>
    <circle class="st1" cx="228.5" cy="323.5" r=".5"/>
    <circle class="st1" cx="212.8" cy="324.3" r="1.2"/>
    <circle class="st1" cx="196.6" cy="322.2" r=".5"/>
    <circle class="st1" cx="180.5" cy="317.2" r="1.3"/>
    <circle class="st1" cx="165.1" cy="309.1" r=".4"/>
    <circle class="st1" cx="150.9" cy="298.2" r=".4"/>
    <circle class="st1" cx="138.4" cy="284.5" r="1.1"/>
    <circle class="st1" cx="128.3" cy="268.4" r=".8"/>
    <circle class="st1" cx="120.9" cy="250.3" r=".4"/>
    <circle class="st1" cx="116.7" cy="230.7" r=".7"/>
    <circle class="st1" cx="115.9" cy="210.1" r=".4"/>
    <circle class="st1" cx="118.8" cy="189.2" r=".4"/>
    <circle class="st1" cx="125.5" cy="168.5" r="1"/>
    <circle class="st1" cx="135.9" cy="148.9" r=".5"/>
    <circle class="st1" cx="149.8" cy="130.9" r="1"/>
    <circle class="st1" cx="167.1" cy="115.3" r=".5"/>
    <circle class="st1" cx="187.3" cy="102.6" r=".8"/>
    <circle class="st1" cx="209.8" cy="93.3" r="1.2"/>
    <circle class="st1" cx="234.1" cy="88" r=".7"/>
    <circle class="st1" cx="259.6" cy="86.9" r=".7"/>
    <circle class="st1" cx="285.3" cy="90.3" r=".6"/>
    <circle class="st1" cx="310.6" cy="98.3" r=".8"/>
    <circle class="st1" cx="334.7" cy="110.7" r=".4"/>
    <circle class="st1" cx="356.7" cy="127.4" r=".9"/>
    <circle class="st1" cx="375.8" cy="148.1" r="1.2"/>
    <circle class="st1" cx="391.4" cy="172.1" r=".5"/>
    <circle class="st1" cx="402.8" cy="199" r=".6"/>
    <circle class="st1" cx="409.6" cy="228" r="1.2"/>
    <circle class="st1" cx="411.3" cy="258.3" r="1.2"/>
    <circle class="st1" cx="407.7" cy="288.9" r=".8"/>
    <circle class="st1" cx="398.8" cy="319" r="1.3"/>
    <circle class="st1" cx="384.6" cy="347.6" r="1"/>
    <circle class="st1" cx="365.4" cy="373.8" r=".4"/>
    <circle class="st1" cx="341.6" cy="396.6" r="1.2"/>
    <circle class="st1" cx="313.8" cy="415.4" r=".7"/>
    <circle class="st1" cx="282.6" cy="429.3" r=".9"/>
    <circle class="st1" cx="249.1" cy="437.8" r=".5"/>
    <circle class="st1" cx="214" cy="440.5" r=".9"/>
    <circle class="st1" cx="178.5" cy="437.1" r="1.2"/>
    <circle class="st1" cx="143.5" cy="427.5" r=".9"/>
    <circle class="st1" cx="110.2" cy="411.9" r=".4"/>
    <circle class="st1" cx="79.7" cy="390.5" r=".5"/>
    <circle class="st1" cx="52.8" cy="363.7" r="1.2"/>
    <circle class="st1" cx="30.6" cy="332.4" r="1.1"/>
    <circle class="st1" cx="13.9" cy="297.2" r=".8"/>
    <circle class="st1" cx="3.3" cy="259.2" r=".5"/>
    <circle class="st1" cy="219.3" r="1.1"/>
    <circle class="st1" cx="2.2" cy="178.8" r="1"/>
    <circle class="st1" cx="12.1" cy="138.9" r=".4"/>
    <circle class="st1" cx="28.9" cy="100.8" r="1.1"/>
    <circle class="st1" cx="52.2" cy="65.7" r="1.1"/>
    <circle class="st1" cx="81.6" cy="34.6" r=".7"/>
    <circle class="st1" cx="116.3" cy="8.7" r=".8"/>
    <circle class="st1" cx="155.4" r=".3"/>
    <circle class="st1" cx="197.8" r=".4"/>
    <circle class="st1" cx="242.4" r="1.1"/>
    <circle class="st1" cx="287.8" r=".5"/>
    <circle class="st1" cx="332.7" r=".3"/>
    <circle class="st1" cx="375.8" r="1.1"/>
    <circle class="st1" cx="415.7" cy="24.8" r=".6"/>
    <circle class="st1" cx="451.1" cy="56.6" r=".3"/>
    <circle class="st1" cx="469" cy="94.4" r=".5"/>
    <circle class="st1" cx="469" cy="137.2" r="1"/>
    <circle class="st1" cx="469" cy="183.9" r=".9"/>
    <circle class="st1" cx="469" cy="233.1" r=".8"/>
    <circle class="st1" cx="469" cy="283.4" r=".5"/>
    <circle class="st1" cx="469" cy="333.4" r=".3"/>
    <circle class="st1" cx="469" cy="381.5" r=".5"/>
    <circle class="st1" cx="469" cy="426.3" r=".4"/>
    <circle class="st1" cx="438.7" cy="466.3" r="1.2"/>
    <circle class="st1" cx="398" cy="469" r=".9"/>
    <circle class="st1" cx="351.7" cy="469" r=".9"/>
    <circle class="st1" cx="300.9" cy="469" r=".4"/>
    <circle class="st1" cx="247.2" cy="469" r=".7"/>
    <circle class="st1" cx="192" cy="469" r=".5"/>
    <circle class="st1" cx="136.9" cy="469" r="1.3"/>
    <circle class="st1" cx="83.7" cy="469" r=".9"/>
    <circle class="st1" cx="33.9" cy="469" r="1.1"/>
    <circle class="st1" cy="466.3" r=".6"/>
    <circle class="st1" cy="423" r="1.2"/>
    <circle class="st1" cy="373.3" r="1.2"/>
    <circle class="st1" cy="318.6" r=".6"/>
    <circle class="st1" cy="260.4" r="1.2"/>
    <circle class="st1" cy="200.4" r="1.2"/>
    <circle class="st1" cy="140.3" r=".9"/>
    <circle class="st1" cy="81.8" r=".5"/>
    <circle class="st1" cy="26.9" r="1.2"/>
    <circle class="st1" r=".6"/>
    <circle class="st1" cx="19.6" r=".5"/>
    <circle class="st1" cx="72.4" r=".8"/>
    <circle class="st1" cx="130.9" r=".4"/>
    <circle class="st1" cx="193.4" r="1"/>
    <circle class="st1" cx="258.2" r="1.2"/>
    <circle class="st1" cx="323.4" r=".5"/>
    <circle class="st1" cx="387" r=".7"/>
    <circle class="st1" cx="447.3" r="1.2"/>
    <circle class="st1" cx="469" r="1.2"/>
    <circle class="st1" cx="469" r=".8"/>
    <circle class="st1" cx="469" cy="47.5" r=".8"/>
    <circle class="st1" cx="469" cy="109.6" r="1.1"/>
    <circle class="st1" cx="469" cy="176.3" r="1.2"/>
    <circle class="st1" cx="469" cy="245.8" r="1"/>
    <circle class="st1" cx="469" cy="316" r=".6"/>
    <circle class="st1" cx="469" cy="384.9" r=".5"/>
    <circle class="st1" cx="469" cy="450.5" r=".4"/>
    <circle class="st1" cx="469" cy="469" r=".3"/>
    <circle class="st1" cx="469" cy="469" r=".8"/>
    <circle class="st1" cx="447.9" cy="469" r="1"/>
    <circle class="st1" cx="382.5" cy="469" r="1"/>
    <circle class="st1" cx="311.7" cy="469" r=".7"/>
    <circle class="st1" cx="237.7" cy="469" r=".4"/>
    <circle class="st1" cx="162.4" cy="469" r=".4"/>
    <circle class="st1" cx="88.2" cy="469" r=".5"/>
    <circle class="st1" cx="17.3" cy="469" r=".7"/>
    <circle class="st1" cy="469" r=".9"/>
    <circle class="st1" cy="469" r="1.2"/>
    <circle class="st1" cy="469" r=".6"/>
    <circle class="st1" cy="407.2" r=".6"/>
    <circle class="st1" cy="332.6" r=".8"/>
    <circle class="st1" cy="254.1" r="1.1"/>
    <circle class="st1" cy="173.9" r=".7"/>
    <circle class="st1" cy="94.4" r=".8"/>
  </g>
</svg>