<?xml version="1.0" encoding="UTF-8"?>
<svg id="Layer_1" xmlns="http://www.w3.org/2000/svg" xmlns:xlink="http://www.w3.org/1999/xlink" version="1.1" viewBox="0 0 469 469">
  <!-- Generator: Adobe Illustrator 29.2.1, SVG Export Plug-In . SVG Version: 2.1.0 Build 116)  -->
  <defs>
    <style>
      .st0 {
        fill: url(#radial-gradient);
      }

      .st1 {
        fill: #009692;
        isolation: isolate;
        opacity: .8;
      }
    </style>
    <radialGradient id="radial-gradient" cx="44.4" cy="425.6" fx="44.4" fy="425.6" r=".5" gradientTransform="translate(-13635.2 133318.2) scale(312.7 -312.7)" gradientUnits="userSpaceOnUse">
      <stop offset="0" stop-color="#6fc" stop-opacity=".8"/>
      <stop offset="1" stop-color="#000" stop-opacity="0"/>
    </radialGradient>
  </defs>
  <circle class="st0" cx="234.5" cy="234.5" r="156.3"/>
  <g>
    <circle class="st1" cx="234.5" cy="234.5" r=".9"/>
    <circle class="st1" cx="235.8" cy="234.6" r=".5"/>
    <circle class="st1" cx="237.1" cy="234.9" r="1.1"/>
    <circle class="st1" cx="238.4" cy="235.3" r="1"/>
    <circle class="st1" cx="239.6" cy="236" r=".5"/>
    <circle class="st1" cx="240.7" cy="236.8" r=".9"/>
    <circle class="st1" cx="241.7" cy="237.7" r=".7"/>
    <circle class="st1" cx="242.6" cy="238.9" r=".6"/>
    <circle class="st1" cx="243.4" cy="240.1" r="1.2"/>
    <circle class="st1" cx="244" cy="241.5" r=".6"/>
    <circle class="st1" cx="244.5" cy="243" r=".7"/>
    <circle class="st1" cx="244.8" cy="244.6" r="1.1"/>
    <circle class="st1" cx="245" cy="246.3" r=".3"/>
    <circle class="st1" cx="244.9" cy="248.1" r="1.3"/>
    <circle class="st1" cx="244.7" cy="249.9" r=".9"/>
    <circle class="st1" cx="244.2" cy="251.7" r="1.1"/>
    <circle class="st1" cx="243.5" cy="253.5" r="1.2"/>
    <circle class="st1" cx="242.6" cy="255.3" r="1.1"/>
    <circle class="st1" cx="241.6" cy="257.1" r=".7"/>
    <circle class="st1" cx="240.2" cy="258.8" r="1"/>
    <circle class="st1" cx="238.7" cy="260.5" r=".8"/>
    <circle class="st1" cx="237" cy="262" r=".9"/>
    <circle class="st1" cx="235.1" cy="263.4" r=".4"/>
    <circle class="st1" cx="233" cy="264.7" r=".8"/>
    <circle class="st1" cx="230.7" cy="265.8" r="1.2"/>
    <circle class="st1" cx="228.3" cy="266.8" r=".7"/>
    <circle class="st1" cx="225.7" cy="267.5" r=".7"/>
    <circle class="st1" cx="222.9" cy="268.1" r=".6"/>
    <circle class="st1" cx="220.1" cy="268.4" r=".8"/>
    <circle class="st1" cx="217.1" cy="268.5" r=".4"/>
    <circle class="st1" cx="214.1" cy="268.3" r=".9"/>
    <circle class="st1" cx="211" cy="267.8" r=".3"/>
    <circle class="st1" cx="207.9" cy="267.1" r=".7"/>
    <circle class="st1" cx="204.8" cy="266.1" r="1.1"/>
    <circle class="st1" cx="201.7" cy="264.8" r=".7"/>
    <circle class="st1" cx="198.6" cy="263.3" r=".7"/>
    <circle class="st1" cx="195.6" cy="261.4" r=".5"/>
    <circle class="st1" cx="192.6" cy="259.3" r="1.3"/>
    <circle class="st1" cx="189.8" cy="256.9" r="1.3"/>
    <circle class="st1" cx="187.1" cy="254.2" r=".3"/>
    <circle class="st1" cx="184.6" cy="251.2" r=".6"/>
    <circle class="st1" cx="182.3" cy="248" r=".6"/>
    <circle class="st1" cx="180.2" cy="244.5" r="1.1"/>
    <circle class="st1" cx="178.3" cy="240.8" r=".8"/>
    <circle class="st1" cx="176.7" cy="236.9" r=".8"/>
    <circle class="st1" cx="175.4" cy="232.8" r=".8"/>
    <circle class="st1" cx="174.3" cy="228.5" r=".4"/>
    <circle class="st1" cx="173.6" cy="224" r=".5"/>
    <circle class="st1" cx="173.2" cy="219.5" r=".9"/>
    <circle class="st1" cx="173.2" cy="214.8" r=".8"/>
    <circle class="st1" cx="173.5" cy="210" r="1"/>
    <circle class="st1" cx="174.2" cy="205.2" r=".8"/>
    <circle class="st1" cx="175.2" cy="200.4" r="1.1"/>
    <circle class="st1" cx="176.7" cy="195.6" r="1.1"/>
    <circle class="st1" cx="178.5" cy="190.8" r=".5"/>
    <circle class="st1" cx="180.8" cy="186.1" r=".7"/>
    <circle class="st1" cx="183.4" cy="181.5" r=".7"/>
    <circle class="st1" cx="186.4" cy="177" r=".9"/>
    <circle class="st1" cx="189.8" cy="172.7" r="1.1"/>
    <circle class="st1" cx="193.6" cy="168.6" r=".6"/>
    <circle class="st1" cx="197.7" cy="164.7" r="1.1"/>
    <circle class="st1" cx="202.2" cy="161.1" r=".8"/>
    <circle class="st1" cx="207" cy="157.8" r=".3"/>
    <circle class="st1" cx="212.1" cy="154.7" r="1.2"/>
    <circle class="st1" cx="217.5" cy="152.1" r="1"/>
    <circle class="st1" cx="223.2" cy="149.8" r=".9"/>
    <circle class="st1" cx="229.1" cy="147.9" r=".7"/>
    <circle class="st1" cx="235.2" cy="146.4" r="1.1"/>
    <circle class="st1" cx="241.5" cy="145.4" r=".6"/>
    <circle class="st1" cx="248" cy="144.8" r=".7"/>
    <circle class="st1" cx="254.6" cy="144.7" r=".9"/>
    <circle class="st1" cx="261.2" cy="145" r=".5"/>
    <circle class="st1" cx="267.9" cy="145.9" r=".6"/>
    <circle class="st1" cx="274.6" cy="147.3" r=".6"/>
    <circle class="st1" cx="281.3" cy="149.2" r=".8"/>
    <circle class="st1" cx="287.9" cy="151.6" r="1.2"/>
    <circle class="st1" cx="294.4" cy="154.5" r=".8"/>
    <circle class="st1" cx="300.7" cy="157.9" r="1.2"/>
    <circle class="st1" cx="306.9" cy="161.8" r=".4"/>
    <circle class="st1" cx="312.8" cy="166.2" r=".3"/>
    <circle class="st1" cx="318.5" cy="171.1" r=".9"/>
    <circle class="st1" cx="323.8" cy="176.5" r=".7"/>
    <circle class="st1" cx="328.8" cy="182.3" r=".3"/>
    <circle class="st1" cx="333.5" cy="188.5" r="1.1"/>
    <circle class="st1" cx="337.7" cy="195.1" r=".5"/>
    <circle class="st1" cx="341.5" cy="202.1" r="1"/>
    <circle class="st1" cx="344.8" cy="209.4" r=".4"/>
    <circle class="st1" cx="347.5" cy="217" r="1.2"/>
    <circle class="st1" cx="349.8" cy="224.9" r=".5"/>
    <circle class="st1" cx="351.5" cy="233" r="1.1"/>
    <circle class="st1" cx="352.6" cy="241.4" r=".8"/>
    <circle class="st1" cx="353.2" cy="249.8" r="1.3"/>
    <circle class="st1" cx="353.1" cy="258.4" r="1"/>
    <circle class="st1" cx="352.4" cy="267" r=".7"/>
    <circle class="st1" cx="351" cy="275.7" r=".9"/>
    <circle class="st1" cx="349" cy="284.3" r=".5"/>
    <circle class="st1" cx="346.4" cy="292.9" r=".4"/>
    <circle class="st1" cx="343.1" cy="301.3" r=".4"/>
    <circle class="st1" cx="339.2" cy="309.5" r="1.1"/>
    <circle class="st1" cx="334.7" cy="317.6" r=".8"/>
    <circle class="st1" cx="329.6" cy="325.3" r=".6"/>
    <circle class="st1" cx="323.8" cy="332.8" r=".4"/>
    <circle class="st1" cx="317.5" cy="339.8" r=".6"/>
    <circle class="st1" cx="310.6" cy="346.5" r="1"/>
    <circle class="st1" cx="303.2" cy="352.7" r=".8"/>
    <circle class="st1" cx="295.3" cy="358.5" r="1.2"/>
    <circle class="st1" cx="286.9" cy="363.6" r=".6"/>
    <circle class="st1" cx="278.1" cy="368.3" r=".8"/>
    <circle class="st1" cx="268.9" cy="372.3" r=".8"/>
    <circle class="st1" cx="259.3" cy="375.6" r=".4"/>
    <circle class="st1" cx="249.5" cy="378.4" r=".9"/>
    <circle class="st1" cx="239.3" cy="380.4" r=".9"/>
    <circle class="st1" cx="229" cy="381.7" r="1"/>
    <circle class="st1" cx="218.5" cy="382.2" r="1.2"/>
    <circle class="st1" cx="207.9" cy="382" r="1.1"/>
    <circle class="st1" cx="197.3" cy="381.1" r=".5"/>
    <circle class="st1" cx="186.6" cy="379.3" r="1"/>
    <circle class="st1" cx="176.1" cy="376.8" r="1.1"/>
    <circle class="st1" cx="165.6" cy="373.5" r=".4"/>
    <circle class="st1" cx="155.3" cy="369.5" r=".5"/>
    <circle class="st1" cx="145.3" cy="364.6" r="1"/>
    <circle class="st1" cx="135.5" cy="359.1" r="1.2"/>
    <circle class="st1" cx="126.1" cy="352.7" r=".8"/>
    <circle class="st1" cx="117.1" cy="345.7" r=".9"/>
    <circle class="st1" cx="108.5" cy="338" r=".5"/>
    <circle class="st1" cx="100.5" cy="329.7" r=".4"/>
    <circle class="st1" cx="93" cy="320.7" r=".7"/>
    <circle class="st1" cx="86.1" cy="311.1" r="1.1"/>
    <circle class="st1" cx="79.9" cy="301" r="1"/>
    <circle class="st1" cx="74.4" cy="290.4" r="1.2"/>
    <circle class="st1" cx="69.6" cy="279.3" r="1.2"/>
    <circle class="st1" cx="65.5" cy="267.8" r=".9"/>
    <path class="st1" d="M62.3,255.2c.5,0,.8.4.8.8s-.4.8-.8.8-.8-.4-.8-.8.4-.8.8-.8Z"/>
    <circle class="st1" cx="59.9" cy="243.9" r=".4"/>
    <circle class="st1" cx="58.3" cy="231.6" r="1.2"/>
    <circle class="st1" cx="57.7" cy="219.1" r=".9"/>
    <circle class="st1" cx="57.9" cy="206.4" r=".4"/>
    <circle class="st1" cx="59" cy="193.8" r=".7"/>
    <circle class="st1" cx="61.1" cy="181.1" r=".9"/>
    <circle class="st1" cx="64" cy="168.6" r="1"/>
    <circle class="st1" cx="67.9" cy="156.2" r=".4"/>
    <circle class="st1" cx="72.7" cy="144" r=".5"/>
    <circle class="st1" cx="78.4" cy="132.1" r="1"/>
    <circle class="st1" cx="84.9" cy="120.6" r=".6"/>
    <circle class="st1" cx="92.3" cy="109.5" r="1.2"/>
    <circle class="st1" cx="100.5" cy="98.9" r=".9"/>
    <circle class="st1" cx="109.6" cy="88.8" r="1"/>
    <circle class="st1" cx="119.4" cy="79.3" r=".5"/>
    <circle class="st1" cx="129.9" cy="70.4" r=".5"/>
    <circle class="st1" cx="141" cy="62.3" r=".9"/>
    <circle class="st1" cx="234.5" cy="234.5" r="1"/>
    <circle class="st1" cx="233.8" cy="235.6" r=".4"/>
    <circle class="st1" cx="232.9" cy="236.6" r=".5"/>
    <circle class="st1" cx="231.9" cy="237.4" r="1.1"/>
    <circle class="st1" cx="230.7" cy="238.1" r="1"/>
    <circle class="st1" cx="229.5" cy="238.7" r=".7"/>
    <circle class="st1" cx="228.1" cy="239.1" r=".3"/>
    <circle class="st1" cx="226.7" cy="239.3" r=".4"/>
    <circle class="st1" cx="225.2" cy="239.4" r="1"/>
    <circle class="st1" cx="223.7" cy="239.3" r=".5"/>
    <circle class="st1" cx="222.1" cy="238.9" r=".3"/>
    <circle class="st1" cx="220.6" cy="238.4" r=".6"/>
    <circle class="st1" cx="219" cy="237.7" r=".5"/>
    <circle class="st1" cx="217.6" cy="236.7" r="1.3"/>
    <circle class="st1" cx="216.1" cy="235.6" r=".8"/>
    <circle class="st1" cx="214.8" cy="234.3" r=".9"/>
    <circle class="st1" cx="213.5" cy="232.8" r=".9"/>
    <circle class="st1" cx="212.4" cy="231.1" r=".4"/>
    <circle class="st1" cx="211.4" cy="229.3" r="1.1"/>
    <circle class="st1" cx="210.6" cy="227.3" r=".7"/>
    <circle class="st1" cx="209.9" cy="225.2" r=".6"/>
    <circle class="st1" cx="209.4" cy="222.9" r=".9"/>
    <circle class="st1" cx="209.2" cy="220.6" r=".4"/>
    <circle class="st1" cx="209.1" cy="218.1" r=".5"/>
    <circle class="st1" cx="209.3" cy="215.6" r="1"/>
    <circle class="st1" cx="209.7" cy="213" r=".3"/>
    <circle class="st1" cx="210.3" cy="210.3" r="1.3"/>
    <circle class="st1" cx="211.2" cy="207.7" r=".6"/>
    <circle class="st1" cx="212.4" cy="205.1" r="1"/>
    <circle class="st1" cx="213.8" cy="202.5" r=".8"/>
    <circle class="st1" cx="215.4" cy="200" r=".8"/>
    <circle class="st1" cx="217.4" cy="197.5" r=".7"/>
    <circle class="st1" cx="219.5" cy="195.2" r=".7"/>
    <circle class="st1" cx="222" cy="193" r=".4"/>
    <circle class="st1" cx="224.6" cy="190.9" r=".3"/>
    <circle class="st1" cx="227.5" cy="189" r="1.2"/>
    <circle class="st1" cx="230.6" cy="187.3" r=".8"/>
    <circle class="st1" cx="234" cy="185.9" r=".9"/>
    <circle class="st1" cx="237.5" cy="184.6" r="1.1"/>
    <circle class="st1" cx="241.1" cy="183.7" r=".6"/>
    <circle class="st1" cx="245" cy="183" r="1"/>
    <circle class="st1" cx="248.9" cy="182.6" r="1"/>
    <circle class="st1" cx="253" cy="182.5" r=".9"/>
    <circle class="st1" cx="257.1" cy="182.7" r="1"/>
    <circle class="st1" cx="261.3" cy="183.2" r=".5"/>
    <circle class="st1" cx="265.6" cy="184.1" r="1"/>
    <circle class="st1" cx="269.8" cy="185.4" r="1.1"/>
    <circle class="st1" cx="274" cy="187" r=".9"/>
    <circle class="st1" cx="278.2" cy="188.9" r=".7"/>
    <circle class="st1" cx="282.2" cy="191.2" r=".8"/>
    <circle class="st1" cx="286.2" cy="193.9" r=".9"/>
    <circle class="st1" cx="290" cy="196.9" r=".7"/>
    <circle class="st1" cx="293.7" cy="200.2" r=".7"/>
    <circle class="st1" cx="297.1" cy="203.9" r=".7"/>
    <circle class="st1" cx="300.3" cy="207.9" r=".6"/>
    <circle class="st1" cx="303.3" cy="212.2" r=".5"/>
    <circle class="st1" cx="306" cy="216.8" r=".8"/>
    <circle class="st1" cx="308.3" cy="221.6" r=".9"/>
    <circle class="st1" cx="310.4" cy="226.7" r=".6"/>
    <circle class="st1" cx="312" cy="232" r=".6"/>
    <circle class="st1" cx="313.3" cy="237.6" r="1"/>
    <circle class="st1" cx="314.2" cy="243.2" r=".4"/>
    <circle class="st1" cx="314.7" cy="249.1" r="1.1"/>
    <circle class="st1" cx="314.8" cy="255" r=".4"/>
    <circle class="st1" cx="314.4" cy="261" r=".4"/>
    <circle class="st1" cx="313.5" cy="267.1" r=".3"/>
    <circle class="st1" cx="312.2" cy="273.1" r=".7"/>
    <circle class="st1" cx="310.4" cy="279.2" r="1.2"/>
    <circle class="st1" cx="308.2" cy="285.2" r=".5"/>
    <circle class="st1" cx="305.5" cy="291" r="1"/>
    <circle class="st1" cx="302.3" cy="296.8" r="1"/>
    <circle class="st1" cx="298.6" cy="302.4" r="1"/>
    <circle class="st1" cx="294.5" cy="307.7" r="1"/>
    <circle class="st1" cx="290" cy="312.8" r=".3"/>
    <circle class="st1" cx="285" cy="317.7" r="1.3"/>
    <circle class="st1" cx="279.6" cy="322.2" r=".5"/>
    <circle class="st1" cx="273.9" cy="326.4" r=".6"/>
    <circle class="st1" cx="267.7" cy="330.1" r="1.1"/>
    <circle class="st1" cx="261.2" cy="333.5" r="1.2"/>
    <circle class="st1" cx="254.5" cy="336.4" r=".6"/>
    <circle class="st1" cx="247.4" cy="338.9" r="1.2"/>
    <circle class="st1" cx="240.1" cy="340.9" r="1.2"/>
    <circle class="st1" cx="232.6" cy="342.3" r="1"/>
    <circle class="st1" cx="224.9" cy="343.2" r="1.1"/>
    <circle class="st1" cx="217" cy="343.6" r="1.3"/>
    <circle class="st1" cx="209.1" cy="343.3" r=".4"/>
    <circle class="st1" cx="201.1" cy="342.5" r=".3"/>
    <circle class="st1" cx="193.1" cy="341.1" r=".5"/>
    <circle class="st1" cx="185.1" cy="339.1" r="1"/>
    <circle class="st1" cx="177.3" cy="336.6" r="1.1"/>
    <circle class="st1" cx="169.5" cy="333.4" r=".5"/>
    <circle class="st1" cx="161.9" cy="329.6" r=".5"/>
    <circle class="st1" cx="154.5" cy="325.2" r=".9"/>
    <circle class="st1" cx="147.4" cy="320.3" r="1.1"/>
    <circle class="st1" cx="140.6" cy="314.8" r="1.1"/>
    <circle class="st1" cx="134.1" cy="308.8" r=".4"/>
    <circle class="st1" cx="128" cy="302.2" r=".7" transform="translate(-182.6 408.5) rotate(-85.9)"/>
    <circle class="st1" cx="122.3" cy="295.2" r="1.1"/>
    <circle class="st1" cx="117.1" cy="287.7" r=".4"/>
    <circle class="st1" cx="112.5" cy="279.7" r=".5"/>
    <circle class="st1" cx="108.3" cy="271.4" r="1.2"/>
    <circle class="st1" cx="104.7" cy="262.7" r=".7"/>
    <circle class="st1" cx="101.8" cy="253.7" r="1.3"/>
    <circle class="st1" cx="99.4" cy="244.4" r=".5"/>
    <circle class="st1" cx="97.8" cy="234.9" r=".9"/>
    <circle class="st1" cx="96.8" cy="225.2" r=".9"/>
    <circle class="st1" cx="96.5" cy="215.3" r=".5"/>
    <circle class="st1" cx="96.9" cy="205.4" r="1"/>
    <circle class="st1" cx="98" cy="195.4" r=".3"/>
    <circle class="st1" cx="99.9" cy="185.4" r=".7"/>
    <circle class="st1" cx="102.4" cy="175.5" r=".8"/>
    <circle class="st1" cx="105.8" cy="165.8" r="1.2"/>
    <circle class="st1" cx="109.8" cy="156.2" r=".7"/>
    <circle class="st1" cx="114.6" cy="146.8" r="1"/>
    <circle class="st1" cx="120" cy="137.7" r="1.1"/>
    <circle class="st1" cx="126.2" cy="129" r=".9"/>
    <circle class="st1" cx="133" cy="120.6" r=".4"/>
    <circle class="st1" cx="140.5" cy="112.7" r=".5"/>
    <circle class="st1" cx="148.6" cy="105.3" r=".4"/>
    <circle class="st1" cx="157.2" cy="98.5" r="1.1"/>
    <circle class="st1" cx="166.4" cy="92.2" r=".6"/>
    <circle class="st1" cx="176.1" cy="86.5" r="1.1"/>
    <circle class="st1" cx="186.3" cy="81.5" r="1.2"/>
    <circle class="st1" cx="196.9" cy="77.2" r=".9"/>
    <circle class="st1" cx="207.8" cy="73.7" r=".7"/>
    <circle class="st1" cx="219.1" cy="70.9" r="1.2"/>
    <circle class="st1" cx="230.6" cy="68.9" r="1.3"/>
    <circle class="st1" cx="242.3" cy="67.7" r=".6"/>
    <circle class="st1" cx="254.2" cy="67.4" r="1.1"/>
    <circle class="st1" cx="266.2" cy="67.9" r="1.3"/>
    <circle class="st1" cx="278.2" cy="69.2" r="1.1"/>
    <circle class="st1" cx="290.1" cy="71.5" r=".6"/>
    <circle class="st1" cx="302" cy="74.6" r=".4"/>
    <circle class="st1" cx="313.7" cy="78.6" r="1.1"/>
    <circle class="st1" cx="325.1" cy="83.4" r="1.1"/>
    <circle class="st1" cx="336.3" cy="89.1" r=".9"/>
    <circle class="st1" cx="347.1" cy="95.6" r="1.3"/>
    <circle class="st1" cx="357.5" cy="102.9" r=".9"/>
    <circle class="st1" cx="367.4" cy="111" r=".8"/>
    <circle class="st1" cx="376.8" cy="119.8" r=".9"/>
    <circle class="st1" cx="385.6" cy="129.4" r=".3"/>
    <circle class="st1" cx="393.8" cy="139.6" r="1.2"/>
    <circle class="st1" cx="401.2" cy="150.5" r="1.3"/>
    <circle class="st1" cx="407.9" cy="161.9" r="1.1"/>
    <circle class="st1" cx="413.9" cy="173.9" r="1.1"/>
    <circle class="st1" cx="419" cy="186.3" r=".9"/>
    <circle class="st1" cx="423.2" cy="199.2" r=".8"/>
    <circle class="st1" cx="426.5" cy="212.4" r=".6"/>
    <circle class="st1" cx="428.9" cy="225.9" r=".8"/>
    <circle class="st1" cx="430.3" cy="239.7" r=".9"/>
    <circle class="st1" cx="234.5" cy="234.5" r=".9"/>
    <circle class="st1" cx="233.9" cy="233.3" r=".6"/>
    <circle class="st1" cx="233.5" cy="232.1" r="1.2"/>
    <circle class="st1" cx="233.3" cy="230.7" r=".7"/>
    <circle class="st1" cx="233.2" cy="229.4" r=".4"/>
    <circle class="st1" cx="233.4" cy="228" r=".8"/>
    <circle class="st1" cx="233.7" cy="226.7" r=".7"/>
    <circle class="st1" cx="234.2" cy="225.3" r="1.2"/>
    <circle class="st1" cx="234.9" cy="224" r=".8"/>
    <circle class="st1" cx="235.8" cy="222.7" r="1"/>
    <circle class="st1" cx="236.9" cy="221.6" r="1"/>
    <circle class="st1" cx="238.1" cy="220.5" r=".7"/>
    <circle class="st1" cx="239.5" cy="219.5" r=".7"/>
    <circle class="st1" cx="241" cy="218.7" r=".7"/>
    <circle class="st1" cx="242.7" cy="218" r=".5"/>
    <circle class="st1" cx="244.5" cy="217.5" r="1.2"/>
    <circle class="st1" cx="246.4" cy="217.2" r=".7"/>
    <circle class="st1" cx="248.5" cy="217" r=".3"/>
    <circle class="st1" cx="250.5" cy="217.1" r=".5"/>
    <circle class="st1" cx="252.7" cy="217.4" r="1.2"/>
    <circle class="st1" cx="254.9" cy="217.9" r="1.1"/>
    <circle class="st1" cx="257.1" cy="218.6" r=".5"/>
    <circle class="st1" cx="259.2" cy="219.5" r=".9"/>
    <circle class="st1" cx="261.4" cy="220.7" r=".7"/>
    <circle class="st1" cx="263.5" cy="222.1" r=".3"/>
    <circle class="st1" cx="265.6" cy="223.8" r=".5"/>
    <circle class="st1" cx="267.5" cy="225.6" r=".3"/>
    <circle class="st1" cx="269.3" cy="227.7" r=".5"/>
    <circle class="st1" cx="271" cy="230" r="1.1"/>
    <circle class="st1" cx="272.6" cy="232.6" r="1.1"/>
    <circle class="st1" cx="273.9" cy="235.3" r=".8"/>
    <circle class="st1" cx="275.1" cy="238.2" r="1.1"/>
    <circle class="st1" cx="276" cy="241.2" r=".6"/>
    <circle class="st1" cx="276.7" cy="244.4" r="1"/>
    <circle class="st1" cx="277.2" cy="247.8" r=".4"/>
    <circle class="st1" cx="277.4" cy="251.2" r=".5"/>
    <circle class="st1" cx="277.3" cy="254.8" r=".6"/>
    <circle class="st1" cx="276.9" cy="258.4" r="1"/>
    <circle class="st1" cx="276.2" cy="262" r=".4"/>
    <circle class="st1" cx="275.2" cy="265.7" r="1.2"/>
    <circle class="st1" cx="273.9" cy="269.3" r=".5"/>
    <circle class="st1" cx="272.3" cy="273" r=".4"/>
    <circle class="st1" cx="270.3" cy="276.5" r=".6"/>
    <circle class="st1" cx="268.1" cy="280" r=".9"/>
    <circle class="st1" cx="265.5" cy="283.4" r="1.2"/>
    <circle class="st1" cx="262.6" cy="286.6" r="1.1"/>
    <circle class="st1" cx="259.4" cy="289.6" r="1"/>
    <circle class="st1" cx="255.9" cy="292.5" r=".3"/>
    <circle class="st1" cx="252.1" cy="295.1" r="1.1"/>
    <circle class="st1" cx="248.1" cy="297.5" r=".7"/>
    <circle class="st1" cx="243.8" cy="299.6" r="1"/>
    <circle class="st1" cx="239.3" cy="301.4" r=".9"/>
    <circle class="st1" cx="234.6" cy="302.9" r=".8"/>
    <circle class="st1" cx="229.7" cy="304" r=".3"/>
    <circle class="st1" cx="224.6" cy="304.8" r="1.2"/>
    <circle class="st1" cx="219.4" cy="305.2" r=".9"/>
    <circle class="st1" cx="214.1" cy="305.3" r="1"/>
    <circle class="st1" cx="208.7" cy="304.9" r=".9"/>
    <circle class="st1" cx="203.3" cy="304.1" r=".4"/>
    <circle class="st1" cx="197.9" cy="302.9" r=".9"/>
    <circle class="st1" cx="192.4" cy="301.2" r=".4"/>
    <circle class="st1" cx="187.1" cy="299.2" r=".9"/>
    <circle class="st1" cx="181.8" cy="296.7" r="1.1"/>
    <circle class="st1" cx="176.6" cy="293.8" r=".6"/>
    <circle class="st1" cx="171.6" cy="290.4" r=".7"/>
    <circle class="st1" cx="166.8" cy="286.6" r=".5"/>
    <circle class="st1" cx="162.2" cy="282.5" r=".7"/>
    <circle class="st1" cx="157.8" cy="277.9" r=".3"/>
    <circle class="st1" cx="153.8" cy="273" r=".3"/>
    <circle class="st1" cx="150.1" cy="267.7" r=".5"/>
    <circle class="st1" cx="146.7" cy="262" r=".5"/>
    <circle class="st1" cx="143.7" cy="256.1" r=".3"/>
    <circle class="st1" cx="141.1" cy="249.9" r=".4"/>
    <circle class="st1" cx="138.9" cy="243.4" r=".9"/>
    <circle class="st1" cx="137.2" cy="236.6" r="1.2"/>
    <circle class="st1" cx="136" cy="229.7" r=".5"/>
    <circle class="st1" cx="135.3" cy="222.7" r="1.3"/>
    <circle class="st1" cx="135.1" cy="215.5" r=".5"/>
    <circle class="st1" cx="135.4" cy="208.2" r="1.2"/>
    <circle class="st1" cx="136.2" cy="200.8" r=".6"/>
    <circle class="st1" cx="137.6" cy="193.5" r=".4"/>
    <circle class="st1" cx="139.6" cy="186.2" r=".8"/>
    <circle class="st1" cx="142.1" cy="178.9" r="1.3"/>
    <circle class="st1" cx="145.2" cy="171.8" r=".5"/>
    <circle class="st1" cx="148.8" cy="164.8" r=".7"/>
    <circle class="st1" cx="153" cy="158.1" r=".7"/>
    <circle class="st1" cx="157.6" cy="151.6" r=".9"/>
    <circle class="st1" cx="162.8" cy="145.3" r="1"/>
    <circle class="st1" cx="168.6" cy="139.4" r="1.1"/>
    <circle class="st1" cx="174.7" cy="133.9" r=".8"/>
    <circle class="st1" cx="181.4" cy="128.8" r="1.1"/>
    <circle class="st1" cx="188.4" cy="124.1" r=".4"/>
    <circle class="st1" cx="195.9" cy="119.9" r=".9"/>
    <circle class="st1" cx="203.8" cy="116.2" r=".3"/>
    <circle class="st1" cx="211.9" cy="113" r=".4"/>
    <circle class="st1" cx="220.4" cy="110.4" r="1.3"/>
    <circle class="st1" cx="229.1" cy="108.4" r="1.3"/>
    <circle class="st1" cx="238" cy="107" r=".7"/>
    <circle class="st1" cx="247.1" cy="106.3" r=".4"/>
    <circle class="st1" cx="256.3" cy="106.2" r=".4"/>
    <circle class="st1" cx="265.6" cy="106.8" r=".3"/>
    <circle class="st1" cx="274.9" cy="108" r=".3"/>
    <circle class="st1" cx="284.2" cy="110" r=".3"/>
    <circle class="st1" cx="293.5" cy="112.6" r="1"/>
    <circle class="st1" cx="302.5" cy="115.9" r="1.2"/>
    <circle class="st1" cx="311.5" cy="119.9" r="1"/>
    <circle class="st1" cx="320.1" cy="124.6" r=".4"/>
    <circle class="st1" cx="328.6" cy="129.9" r="1.1"/>
    <circle class="st1" cx="336.6" cy="135.8" r=".4"/>
    <circle class="st1" cx="344.3" cy="142.4" r="1.1"/>
    <circle class="st1" cx="351.6" cy="149.6" r="1.3"/>
    <circle class="st1" cx="358.4" cy="157.4" r="1.1"/>
    <circle class="st1" cx="364.7" cy="165.7" r=".5"/>
    <circle class="st1" cx="370.4" cy="174.5" r="1.1"/>
    <circle class="st1" cx="375.5" cy="183.8" r=".5"/>
    <circle class="st1" cx="380" cy="193.5" r=".5"/>
    <circle class="st1" cx="383.8" cy="203.5" r="1"/>
    <circle class="st1" cx="387" cy="214" r="1.2"/>
    <circle class="st1" cx="389.3" cy="224.7" r="1"/>
    <circle class="st1" cx="391" cy="235.6" r="1.3"/>
    <circle class="st1" cx="391.8" cy="246.7" r=".3"/>
    <circle class="st1" cx="391.9" cy="257.9" r=".4"/>
    <circle class="st1" cx="391.1" cy="269.2" r=".4"/>
    <circle class="st1" cx="389.5" cy="280.6" r="1.2"/>
    <circle class="st1" cx="387.1" cy="291.8" r=".9"/>
    <circle class="st1" cx="383.9" cy="303" r=".6"/>
    <circle class="st1" cx="379.9" cy="313.9" r="1"/>
    <circle class="st1" cx="375" cy="324.7" r="1.2"/>
    <circle class="st1" cx="369.4" cy="335.1" r="1.2"/>
    <circle class="st1" cx="363" cy="345.3" r=".9"/>
    <circle class="st1" cx="355.8" cy="354.9" r=".4"/>
    <circle class="st1" cx="347.9" cy="364.2" r=".8"/>
    <circle class="st1" cx="339.2" cy="372.9" r=".4"/>
    <circle class="st1" cx="330" cy="381" r=".6"/>
    <circle class="st1" cx="320" cy="388.5" r=".8"/>
    <circle class="st1" cx="309.5" cy="395.4" r=".8"/>
    <circle class="st1" cx="298.5" cy="401.5" r=".5"/>
    <circle class="st1" cx="287" cy="406.8" r="1.3"/>
    <circle class="st1" cx="275" cy="411.4" r=".8"/>
    <circle class="st1" cx="262.7" cy="415.1" r=".9"/>
    <circle class="st1" cx="250" cy="417.9" r="1.2"/>
    <circle class="st1" cx="237.1" cy="419.9" r="1.2"/>
    <circle class="st1" cx="223.9" cy="420.9" r=".9"/>
    <circle class="st1" cx="210.7" cy="421" r="1.1"/>
    <circle class="st1" cx="197.3" cy="420.1" r=".7"/>
    <circle class="st1" cx="184" cy="418.3" r=".4"/>
    <circle class="st1" cx="170.8" cy="415.6" r=".3"/>
    <circle class="st1" cx="157.6" cy="411.8" r=".9"/>
    <circle class="st1" cx="144.7" cy="407.2" r=".9"/>
    <circle class="st1" cx="132.1" cy="401.5" r=".6"/>
  </g>
</svg>