<?xml version="1.0" encoding="UTF-8"?>
<svg id="Layer_1" xmlns="http://www.w3.org/2000/svg" xmlns:xlink="http://www.w3.org/1999/xlink" version="1.1" viewBox="0 0 469 469">
  <!-- Generator: Adobe Illustrator 29.2.1, SVG Export Plug-In . SVG Version: 2.1.0 Build 116)  -->
  <defs>
    <style>
      .st0 {
        opacity: 1;
      }

      .st0, .st1, .st2, .st3, .st4, .st5, .st6, .st7, .st8, .st9, .st10, .st11, .st12, .st13, .st14, .st15, .st16, .st17, .st18, .st19 {
        isolation: isolate;
      }

      .st0, .st1, .st2, .st3, .st4, .st5, .st6, .st7, .st8, .st9, .st10, .st11, .st12, .st13, .st14, .st15, .st16, .st17, .st18, .st19, .st20 {
        fill: #ffa6a6;
      }

      .st1 {
        opacity: 1;
      }

      .st2 {
        opacity: 1;
      }

      .st3 {
        opacity: .9;
      }

      .st4 {
        opacity: .9;
      }

      .st5 {
        opacity: .9;
      }

      .st6 {
        opacity: .9;
      }

      .st7 {
        opacity: .9;
      }

      .st8 {
        opacity: .9;
      }

      .st9 {
        opacity: .9;
      }

      .st10 {
        opacity: .9;
      }

      .st11 {
        opacity: .9;
      }

      .st12 {
        opacity: .9;
      }

      .st13 {
        opacity: .8;
      }

      .st14 {
        opacity: .8;
      }

      .st15 {
        opacity: .9;
      }

      .st16 {
        opacity: .8;
      }

      .st17 {
        opacity: .8;
      }

      .st18 {
        opacity: .8;
      }

      .st19 {
        opacity: 1;
      }

      .st21 {
        fill: red;
      }

      .st22 {
        filter: url(#nebulaBlur);
        opacity: .4;
      }
    </style>
    <filter id="nebulaBlur">
      <feGaussianBlur in="SourceGraphic" stdDeviation="20"/>
    </filter>
  </defs>
  <rect width="469" height="469"/>
  <g class="st22">
    <ellipse class="st21" cx="394.1" cy="390.7" rx="56.2" ry="43.7"/>
    <ellipse class="st21" cx="100.5" cy="64.5" rx="86.4" ry="46.5"/>
  </g>
  <g>
    <circle class="st7" cx="436.3" cy="460.9" r=".6"/>
    <circle class="st9" cx="462.2" cy="196.1" r=".8"/>
    <circle class="st15" cx="398.1" cy="191.5" r=".6"/>
    <circle class="st9" cx="54.3" cy="291.7" r=".7"/>
    <circle class="st17" cx="294" cy="195.9" r=".7"/>
    <circle class="st3" cx="319.1" cy="419.2" r=".8"/>
    <circle class="st7" cx="159.1" cy="327" r=".6"/>
    <circle class="st3" cx="8.2" cy="130.7" r="1"/>
    <circle class="st14" cx="381.8" cy="408.2" r=".9"/>
    <circle class="st7" cx="148.4" cy="450.4" r=".8"/>
    <circle class="st17" cx="153" cy="386.7" r=".4"/>
    <circle class="st9" cx="252.4" cy="75.4" r=".6"/>
    <circle class="st3" cx="249.5" cy="375.4" r=".9"/>
    <circle class="st0" cx="409.4" cy="206.8" r=".4"/>
    <circle class="st18" cx="198.5" cy="449.1" r="1.2"/>
    <circle class="st18" cx="181.5" cy="128.3" r=".7"/>
    <circle class="st7" cx="1.4" cy="254.6" r=".6"/>
    <circle class="st6" cx="55" cy="310" r=".6"/>
    <circle class="st20" cx="100.1" cy="168" r=".5"/>
    <circle class="st8" cx="466.7" cy="11.2" r="1"/>
    <circle class="st4" cx="416.7" cy="245" r=".9"/>
    <circle class="st17" cx="339.6" cy="349.5" r="1"/>
    <circle class="st13" cx="196.9" cy="63.7" r=".7"/>
    <circle class="st14" cx="201.5" cy="381.3" r="1"/>
    <circle class="st4" cx="35.3" cy="73.9" r=".6"/>
    <circle class="st6" cx="42.2" cy="102.9" r=".5"/>
    <circle class="st19" cx="82.8" cy="331" r=".3"/>
    <circle class="st4" cx="242" cy="420.7" r="1"/>
    <circle class="st9" cx="88.4" cy="274.4" r=".7"/>
    <circle class="st5" cx="205.6" cy="244.7" r="1.2"/>
    <circle class="st4" cx="321" cy="193.6" r=".5"/>
    <circle class="st1" cx="400.2" cy="185" r=".6"/>
    <circle class="st17" cx="55.7" cy="241.9" r=".6"/>
    <circle class="st2" cx="439" cy="199.5" r="1"/>
    <circle class="st12" cx="393.9" cy="316.7" r=".7"/>
    <circle class="st4" cx="467.8" cy="458.9" r=".7"/>
    <circle class="st18" cx="289.5" cy="422.2" r=".5"/>
    <circle class="st10" cx="10.5" cy="426.1" r=".6"/>
    <circle class="st1" cx="396.7" cy="166.1" r="1.2"/>
    <circle class="st0" cx="424.5" cy="261.2" r=".6"/>
    <circle class="st4" cx="333" cy="316.5" r=".7"/>
    <circle class="st10" cx="383.3" cy="311.3" r=".8"/>
    <circle class="st15" cx="281.7" cy="467.9" r=".6"/>
    <circle class="st5" cx="65" cy="138.1" r=".7"/>
    <circle class="st18" cx="53.2" cy="403.8" r="1.2"/>
    <circle class="st15" cx="155.6" cy="153.8" r=".5"/>
    <circle class="st15" cx="370.2" cy="242.6" r=".8"/>
    <circle class="st8" cx="438.8" cy="165.3" r="1.1"/>
    <circle class="st10" cx="3.8" cy="261.2" r=".8"/>
    <circle class="st8" cx="217.9" cy="339.7" r=".6"/>
    <circle class="st17" cx="281.4" cy="94.1" r=".7"/>
    <circle class="st1" cx="129.3" cy="50.5" r=".9"/>
    <circle class="st12" cx="251" cy="34" r="1.1"/>
    <circle class="st1" cx="4.7" cy="272.7" r=".6"/>
    <circle class="st11" cx="5.3" cy="94.2" r=".9"/>
    <circle class="st9" cx="11.4" cy="378.5" r=".6"/>
    <circle class="st1" cx="171.3" cy="372" r=".4"/>
    <circle class="st14" cx="464.1" cy="314.2" r=".9"/>
    <circle class="st4" cx="375.2" cy="188.5" r="1"/>
    <circle class="st15" cx="400.1" cy="338.9" r=".9"/>
    <circle class="st11" cx="223.9" cy="419.1" r=".7"/>
    <circle class="st14" cx="37" cy="457.8" r=".8"/>
    <circle class="st3" cx="137" cy="3.9" r="1.1"/>
    <circle class="st17" cx="292.6" cy="191.9" r="1"/>
    <circle class="st18" cx="104.1" cy="467.9" r=".7"/>
    <circle class="st18" cx="358.6" cy="223.5" r=".8"/>
    <circle class="st9" cx="266.2" cy="88.6" r=".6"/>
    <circle class="st13" cx="118.1" cy="350.4" r=".6"/>
    <circle class="st8" cx="299.7" cy="247.5" r="1.2"/>
    <circle class="st4" cx="319.3" cy="157" r=".8"/>
    <circle class="st2" cx="242.5" cy="419" r=".7"/>
    <circle class="st17" cx="268.6" cy="135" r="1.1"/>
    <circle class="st13" cx="44.7" cy="329.2" r=".7"/>
    <circle class="st13" cx="331" cy="202.4" r=".3"/>
    <circle class="st16" cx="421" cy="414" r=".9"/>
    <circle class="st9" cx="450.5" cy="278.1" r="1.1"/>
    <circle class="st6" cx="243.5" cy="82.4" r=".8"/>
    <circle class="st20" cx="186.2" cy="348.2" r=".9"/>
    <circle class="st7" cx="86.8" cy="236.9" r=".9"/>
    <circle class="st1" cx="44.3" cy="68.1" r=".9"/>
    <circle class="st15" cx="425.1" cy="150.7" r=".4"/>
    <circle class="st19" cx="355.5" cy="128.5" r=".8"/>
    <circle class="st12" cx="308.8" cy="453.4" r=".5"/>
    <circle class="st17" cx="253.4" cy="70.5" r="1.2"/>
    <circle class="st3" cx="256.5" cy="91.2" r=".5"/>
    <circle class="st0" cx="373" cy="260.7" r=".4"/>
    <circle class="st0" cx="194.7" cy="74.1" r=".6"/>
    <circle class="st6" cx="272.1" cy="413.3" r=".7"/>
    <circle class="st18" cx="154.4" cy="64.6" r=".6"/>
    <circle class="st4" cx="259.4" cy="118" r=".7"/>
    <circle class="st13" cx="41.1" cy="446.4" r=".9"/>
    <circle class="st3" cx="99.9" cy="105.1" r=".9"/>
    <circle class="st3" cx="298.9" cy="315.3" r=".7"/>
    <circle class="st3" cx="349.7" cy="181.7" r=".8"/>
    <path class="st13" d="M255.6,138.7c.4,0,.8.3.8.8s-.3.8-.8.8-.8-.3-.8-.8.3-.8.8-.8Z"/>
    <circle class="st13" cx="39.9" cy="462.3" r=".6"/>
    <circle class="st10" cx="115.7" cy="148.9" r=".9"/>
    <circle class="st14" cx="386.9" cy="59" r=".6"/>
    <circle class="st19" cx="49.7" cy="349.9" r=".8"/>
    <circle class="st17" cx="81.1" cy="334.7" r="1.2"/>
    <circle class="st5" cx="134.7" cy="206.6" r="1.1"/>
    <circle class="st8" cx="363.7" cy="139.2" r="1"/>
    <circle class="st4" cx="364.7" cy="281.7" r=".5"/>
    <circle class="st10" cx="83.5" cy="184.5" r="1.1"/>
    <circle class="st9" cx="313.1" cy="1.3" r=".8"/>
    <circle class="st1" cx="242" cy="382.7" r=".7"/>
    <circle class="st10" cx="454" cy="271.5" r=".6"/>
    <circle class="st6" cx="164" cy="175.2" r=".5"/>
    <circle class="st13" cx="52.2" cy="197.3" r=".7"/>
    <path class="st13" d="M372.3,255.3c.3,0,.6.2.6.6s-.2.6-.6.6-.6-.2-.6-.6.2-.6.6-.6Z"/>
    <circle class="st12" cx="71.2" cy="463" r="1"/>
    <circle class="st16" cx="314.9" cy="166" r="1"/>
    <circle class="st15" cx="365.9" cy="148.3" r=".6"/>
    <circle class="st16" cx="246.2" cy="259" r="1.2"/>
    <circle class="st20" cx="80.2" cy="359.5" r=".9"/>
    <circle class="st1" cx="46.9" cy="18.4" r="1"/>
    <circle class="st18" cx="374.7" cy="65.7" r=".4"/>
    <circle class="st8" cx="39.8" cy="39.7" r=".7"/>
    <circle class="st5" cx="409.6" cy="364.2" r=".9"/>
    <circle class="st12" cx="342.8" cy="300.6" r=".8"/>
    <circle class="st19" cx="443.1" cy="175" r="1.1"/>
    <circle class="st20" cx="410.9" cy="296.3" r=".8"/>
    <circle class="st0" cx="351.8" cy="227" r=".8"/>
    <circle class="st11" cx="47" cy="302.5" r=".7"/>
    <circle class="st11" cx="354.8" cy="125.7" r=".7"/>
    <circle class="st10" cx="157.1" cy="413" r=".5"/>
    <circle class="st4" cx="400.9" cy="303.5" r=".8"/>
    <circle class="st13" cx="439.8" cy="143.9" r=".5"/>
    <circle class="st19" cx="253.3" cy="26.1" r=".7"/>
    <circle class="st2" cx="304.5" cy="106.1" r=".6"/>
    <circle class="st0" cx="375.8" cy="294.9" r=".9"/>
    <circle class="st10" cx="66.6" cy="7.3" r="1.1"/>
    <circle class="st9" cx="138.2" cy="68.3" r="1.1"/>
    <circle class="st6" cx="147.6" cy="214.3" r="1.1"/>
    <circle class="st2" cx="456.4" cy="424.9" r="1.1"/>
    <circle class="st14" cx="113.5" cy="32.3" r="1"/>
    <circle class="st16" cx="79.5" cy="100.2" r="1"/>
    <circle class="st3" cx="196" cy="323.2" r="1"/>
    <circle class="st5" cx="177.9" cy="36" r="1.1"/>
    <circle class="st2" cx="237.2" cy="234.4" r=".7"/>
    <circle class="st6" cx="161.5" cy="232.4" r="1"/>
    <circle class="st10" cx="160.2" cy="112.7" r=".4"/>
    <circle class="st17" cx="38.6" cy="183.7" r=".7"/>
    <circle class="st13" cx="159.2" cy="117.6" r=".4"/>
    <circle class="st13" cx="325.2" cy="461.2" r=".7"/>
    <circle class="st4" cx="391.8" cy="220.1" r=".4"/>
    <circle class="st13" cx="268.4" cy="12.6" r=".6"/>
    <circle class="st15" cx="292.3" cy="88.8" r=".3"/>
    <circle class="st5" cx="259.4" cy="56.4" r=".3"/>
    <circle class="st17" cx="10.2" cy="159.9" r=".5"/>
    <circle class="st3" cx="2.5" cy="32" r=".6"/>
    <circle class="st13" cx="429.8" cy="282.3" r=".4"/>
    <circle class="st11" cx="222.5" cy="409.8" r="1.2"/>
    <circle class="st6" cx="49.7" cy="436.4" r=".4"/>
    <circle class="st15" cx="120" cy="193.5" r=".6"/>
    <circle class="st0" cx="2.1" cy="204.5" r="1.2"/>
    <circle class="st15" cx="59.1" cy="239.8" r="1.1"/>
    <circle class="st7" cx="447.3" cy="30.7" r="1"/>
    <circle class="st9" cx="384" cy="214.2" r="1.1"/>
    <circle class="st16" cx="66.9" cy="87.6" r="1.1"/>
    <circle class="st9" cx="75.2" cy="69.1" r=".8"/>
    <circle class="st8" cx="37.8" cy="77.7" r=".7"/>
    <circle class="st3" cx="71.7" cy="319.9" r=".7"/>
    <circle class="st8" cx="49.6" cy="267.7" r=".5"/>
    <circle class="st19" cx="197.2" cy="387.3" r=".4"/>
    <circle class="st9" cx="53.1" cy="108.3" r=".5"/>
    <circle class="st11" cx="328.8" cy="175.9" r=".4"/>
    <circle class="st15" cx="281.3" cy="419.4" r=".5"/>
    <circle class="st11" cx="313.1" cy="406.3" r=".9"/>
    <circle class="st3" cx="349.8" cy="235.2" r=".7"/>
    <circle class="st6" cx="384.9" cy="7" r="1"/>
    <circle class="st15" cx="146" cy="282.7" r=".5"/>
    <circle class="st3" cx="425.1" cy="192.2" r=".7"/>
    <circle class="st17" cx="331" cy="126.2" r=".8"/>
    <circle class="st2" cx="103" cy="264.1" r="1"/>
    <circle class="st20" cx="47.4" cy="40.4" r=".7"/>
    <circle class="st14" cx="79.8" cy="282.4" r=".4"/>
    <circle class="st3" cx="431.5" cy="52.5" r=".8"/>
    <circle class="st3" cx="168.3" cy="403.3" r=".5"/>
    <circle class="st0" cx="193.8" cy="125.5" r=".4"/>
    <circle class="st1" cx="191" cy="253.9" r=".9"/>
    <circle class="st12" cx="126.8" cy="104.8" r=".5"/>
    <circle class="st17" cx="276.4" cy="34.6" r="1.1"/>
    <circle class="st17" cx="88.3" cy="173.6" r=".9"/>
    <circle class="st8" cx="158.5" cy="281.7" r="1"/>
    <circle class="st2" cx="14" cy="52" r=".5"/>
    <circle class="st9" cx="408.4" cy="402.8" r=".7"/>
    <circle class="st11" cx="397.9" cy="385.7" r=".9"/>
    <circle class="st4" cx="295" cy="461.6" r=".9"/>
    <circle class="st12" cx="386.7" cy="415" r="1"/>
    <circle class="st15" cx="115.1" cy="164" r="1.1"/>
    <circle class="st4" cx="122.3" cy="206.5" r=".8"/>
    <circle class="st4" cx="448.5" cy="10.3" r=".7"/>
    <circle class="st6" cx="171.9" cy="417.4" r=".7"/>
    <circle class="st7" cx="399.9" cy="403.6" r="1"/>
    <circle class="st3" cx="409.7" cy="69.5" r=".7"/>
    <circle class="st9" cx="277.8" cy="387.7" r=".6"/>
    <circle class="st13" cx="346.6" cy="297" r=".7"/>
    <circle class="st17" cx="385.3" cy="74" r=".4"/>
    <circle class="st12" cx="10.3" cy="123.5" r=".4"/>
    <circle class="st11" cx="395.6" cy="148.9" r=".8"/>
    <circle class="st18" cx="249.7" cy="190.5" r=".8"/>
    <circle class="st4" cx="57.4" cy="118.1" r=".8"/>
    <circle class="st11" cx="215.5" cy="147.2" r="1.1"/>
    <circle class="st12" cx="327.2" cy="429.7" r="1.2"/>
    <circle class="st8" cx="440.3" cy="25.6" r=".7"/>
    <circle class="st18" cx="182.8" cy="300" r=".8"/>
    <circle class="st5" cx="374.1" cy="340" r=".4"/>
    <circle class="st2" cx="171.9" cy="364.6" r=".8"/>
    <circle class="st16" cx="211.5" cy="248.2" r="1.2"/>
    <circle class="st9" cx="296.3" cy="147.4" r=".7"/>
    <circle class="st12" cx="351.4" cy="158.9" r="1"/>
    <circle class="st3" cx="38.8" cy="63.6" r=".6"/>
    <circle class="st4" cx="377.5" cy="421.1" r=".8"/>
    <circle class="st9" cx="243" cy="428.8" r=".4"/>
    <circle class="st17" cx="361.6" cy="115.6" r=".6"/>
    <circle class="st13" cx="372.8" cy="323.1" r=".4"/>
    <circle class="st10" cx="231.1" cy="1.5" r="1.1"/>
    <circle class="st15" cx="242.4" cy="134.6" r=".8"/>
    <circle class="st4" cx="214.5" cy="98.1" r=".6"/>
    <circle class="st10" cx="286" cy="422.7" r="1"/>
    <circle class="st10" cx="185.9" cy="292.5" r=".4"/>
    <circle class="st7" cx="321.4" cy="82.9" r=".4"/>
    <circle class="st4" cx="113.3" cy="193.2" r=".4"/>
    <circle class="st5" cx="125.5" cy="38.1" r=".8"/>
    <circle class="st11" cx="63.7" cy="29.9" r=".6"/>
    <circle class="st11" cx="43.8" cy="279.6" r=".8"/>
    <circle class="st8" cx="25.2" cy="116.4" r=".9"/>
    <circle class="st10" cx="211.8" cy="120" r=".6"/>
    <circle class="st14" cx="190.6" cy="380.2" r=".4"/>
    <circle class="st12" cx="292.5" cy="215.1" r=".5"/>
    <circle class="st17" cx="63.7" cy="302.2" r=".5" transform="translate(-11.5 2.7) rotate(-2.2)"/>
    <circle class="st15" cx="468.7" cy="266.2" r="1"/>
    <circle class="st7" cx="139.5" cy="449.4" r=".5"/>
    <circle class="st9" cx="412.1" cy="286.6" r=".5"/>
    <circle class="st7" cx="266.5" cy="43" r=".8"/>
    <circle class="st16" cx="144.5" cy="462.8" r=".8"/>
    <circle class="st3" cx="109.6" cy="187.1" r=".4"/>
    <circle class="st8" cx="272.1" cy="354.9" r=".7"/>
    <circle class="st0" cx="418" cy="190.3" r="1.2"/>
    <circle class="st17" cx="286.8" cy="283.5" r=".7"/>
    <circle class="st5" cx="330" cy="137.2" r="1"/>
    <circle class="st12" cx="431.8" cy="305.9" r=".4"/>
    <circle class="st13" cx="180.2" cy="447.9" r="1"/>
    <circle class="st9" cx="359.2" cy="105.4" r=".7"/>
    <circle class="st15" cx="401.6" cy="410.2" r=".6"/>
    <circle class="st13" cx="393.4" cy="43" r=".5"/>
    <circle class="st11" cx="124.1" cy="154.2" r=".8"/>
    <circle class="st6" cx="91.5" cy="309.6" r="1"/>
    <circle class="st2" cx="240" cy="99.2" r="1"/>
  </g>
</svg>