<?xml version="1.0" encoding="UTF-8"?>
<svg id="Layer_1" xmlns="http://www.w3.org/2000/svg" xmlns:xlink="http://www.w3.org/1999/xlink" version="1.1" viewBox="0 0 469 469">
  <!-- Generator: Adobe Illustrator 29.2.1, SVG Export Plug-In . SVG Version: 2.1.0 Build 116)  -->
  <defs>
    <style>
      .st0 {
        filter: url(#nebulaBlur);
      }

      .st1 {
        opacity: .7;
      }

      .st1, .st2 {
        fill: #fff;
      }

      .st3 {
        fill: #ec00ff;
        opacity: .7;
      }

      .st4 {
        opacity: .9;
      }

      .st4, .st5, .st6, .st7, .st8, .st9, .st10, .st11, .st12, .st13, .st14, .st15, .st16, .st17, .st18, .st19, .st20, .st21, .st22, .st23 {
        isolation: isolate;
      }

      .st4, .st5, .st6, .st7, .st8, .st9, .st10, .st11, .st12, .st13, .st14, .st15, .st16, .st17, .st18, .st19, .st20, .st21, .st22, .st23, .st24 {
        fill: #ff80ff;
      }

      .st5 {
        opacity: 1;
      }

      .st6 {
        opacity: 1;
      }

      .st7 {
        opacity: 1;
      }

      .st8 {
        opacity: 1;
      }

      .st9 {
        opacity: .9;
      }

      .st10 {
        opacity: .9;
      }

      .st11 {
        opacity: .8;
      }

      .st12 {
        opacity: .8;
      }

      .st13 {
        opacity: .9;
      }

      .st14 {
        opacity: .8;
      }

      .st15 {
        opacity: .9;
      }

      .st16 {
        opacity: .8;
      }

      .st17 {
        opacity: .9;
      }

      .st18 {
        opacity: .9;
      }

      .st19 {
        opacity: .9;
      }

      .st20 {
        opacity: .9;
      }

      .st21 {
        opacity: .9;
      }

      .st22 {
        opacity: .9;
      }

      .st23 {
        opacity: .8;
      }
    </style>
    <filter id="nebulaBlur">
      <feGaussianBlur in="SourceGraphic" stdDeviation="20"/>
    </filter>
  </defs>
  <rect width="469" height="469"/>
  <g class="st0">
    <ellipse class="st2" cx="388.2" cy="79.4" rx="36.9" ry="32.3"/>
    <circle class="st1" cx="108.8" cy="142" r="51.3"/>
    <ellipse class="st3" cx="360.8" cy="302.5" rx="83.3" ry="76.6"/>
  </g>
  <g>
    <circle class="st8" cx="47.2" cy="41" r="1.1"/>
    <circle class="st14" cx="189.9" cy="247.4" r=".7"/>
    <circle class="st20" cx="33.7" cy="63.7" r="1.2"/>
    <circle class="st19" cx="138.7" cy="214.1" r="1"/>
    <circle class="st12" cx="136.1" cy="84.2" r=".6"/>
    <circle class="st11" cx="14.1" cy="235.6" r=".9"/>
    <circle class="st7" cx="26.7" cy="317.1" r=".3"/>
    <circle class="st7" cx="159.2" cy="210.4" r="1"/>
    <circle class="st23" cx="163.5" cy="320.6" r=".4"/>
    <circle class="st17" cx="133.1" cy="158.4" r="1"/>
    <circle class="st10" cx="158.8" cy="67.5" r=".6"/>
    <circle class="st8" cx="396.5" cy="222.3" r="1.1"/>
    <circle class="st16" cx="184.7" cy="420.8" r="1.1"/>
    <circle class="st18" cx="271.5" cy="38.1" r=".9"/>
    <circle class="st17" cx="321.2" cy="122.5" r="1.2"/>
    <circle class="st11" cx="218.3" cy="292.6" r=".9"/>
    <circle class="st14" cx="214.5" cy="45.9" r=".7"/>
    <circle class="st17" cx="294.1" cy="270.7" r=".6"/>
    <circle class="st14" cx="76.2" cy="25.2" r="1.2"/>
    <circle class="st4" cx="20" cy="246.9" r=".4"/>
    <circle class="st10" cx="215.2" cy="182.2" r=".5"/>
    <circle class="st17" cx="260.3" cy="110.4" r=".9"/>
    <circle class="st15" cx="383.3" cy="369.3" r=".6"/>
    <circle class="st9" cx="234" cy="53.7" r=".6"/>
    <circle class="st9" cx="285.5" cy="177.6" r="1"/>
    <circle class="st16" cx="182.6" cy="108.7" r="1"/>
    <circle class="st5" cx="454.3" cy="438.6" r=".6"/>
    <circle class="st8" cx="371" cy="164.7" r=".9"/>
    <circle class="st11" cx="197.6" cy="330.1" r=".7"/>
    <circle class="st18" cx="142" cy="223.6" r="1"/>
    <circle class="st20" cx="326.2" cy="208.6" r=".5"/>
    <circle class="st4" cx="443.3" cy="259.9" r=".8"/>
    <circle class="st18" cx="231.9" cy="369.6" r="1.1"/>
    <circle class="st8" cx="395.8" cy="56" r=".9"/>
    <circle class="st10" cx="65.3" cy="140.7" r=".6"/>
    <circle class="st16" cx="431.9" cy="302.4" r=".8"/>
    <circle class="st10" cx="230.8" cy="253.9" r="1"/>
    <circle class="st9" cx="43.4" cy="383.4" r="1.1"/>
    <circle class="st24" cx="359.6" cy="202.1" r=".8"/>
    <circle class="st8" cx="179.6" cy="225.7" r=".4"/>
    <circle class="st19" cx="36.9" cy="360.3" r=".4"/>
    <circle class="st16" cx="422" cy="238.7" r="1"/>
    <circle class="st8" cx="120.1" cy="438.5" r=".6"/>
    <circle class="st15" cx="113.2" cy="198" r=".7"/>
    <circle class="st5" cx="456.6" cy="62.8" r=".6"/>
    <circle class="st7" cx="43.5" cy="436.8" r=".6"/>
    <circle class="st4" cx="303.4" cy="360.6" r=".6"/>
    <circle class="st21" cx="27.6" cy="58.9" r="1.1"/>
    <circle class="st20" cx="220.6" cy="229.5" r=".5"/>
    <circle class="st20" cx="84.2" cy="390.9" r=".5"/>
    <circle class="st20" cx="322.5" cy="366.8" r="1.2"/>
    <circle class="st23" cx="374.4" cy="191.9" r=".8"/>
    <circle class="st20" cx="396.6" cy="24.3" r=".7"/>
    <circle class="st20" cx="128.4" cy="418.1" r="1"/>
    <circle class="st23" cx="436.2" cy="139.5" r=".8"/>
    <circle class="st7" cx="267.2" cy="319.5" r=".6"/>
    <circle class="st22" cx="347.3" cy="421.2" r=".8"/>
    <circle class="st7" cx="304.2" cy="468.8" r=".6"/>
    <circle class="st24" cx="234.9" cy="214" r=".7"/>
    <circle class="st12" cx="125.6" cy="354.2" r=".4"/>
    <circle class="st18" cx="271.7" cy="25.3" r="1"/>
    <circle class="st23" cx="294.9" cy="406.4" r=".9"/>
    <circle class="st9" cx="271.6" cy="307.4" r=".5"/>
    <circle class="st24" cx="324.7" cy="39.6" r=".4"/>
    <circle class="st9" cx="263.4" cy="164.5" r=".6"/>
    <circle class="st21" cx="95.6" cy="247.9" r=".4"/>
    <circle class="st11" cx="8.4" cy="444.2" r=".4"/>
    <circle class="st18" cx="165.5" cy="260.3" r=".8"/>
    <circle class="st16" cx="363.3" cy="176.3" r=".7"/>
    <circle class="st13" cx="11.6" cy="210.9" r=".7"/>
    <circle class="st23" cx="312.9" cy="390.2" r=".9"/>
    <circle class="st17" cx="203" cy="268.6" r=".4"/>
    <circle class="st19" cx="271.9" cy="310.7" r=".9"/>
    <circle class="st4" cx="317.6" cy="300.1" r=".5"/>
    <circle class="st7" cx="313.6" cy="222.7" r=".4"/>
    <circle class="st12" cx="156" cy="383.1" r="1"/>
    <circle class="st4" cx="117.9" cy="238.9" r=".9"/>
    <circle class="st4" cx="227.6" cy="275.3" r=".9"/>
    <circle class="st15" cx="178.5" cy="94.3" r=".4"/>
    <circle class="st4" cx="176.3" cy="381.2" r=".9"/>
    <circle class="st9" cx="80.6" cy="185.8" r="1.1"/>
    <circle class="st18" cx="400.6" cy="13.6" r=".4"/>
    <circle class="st17" cx="324.2" cy="1" r=".3"/>
    <circle class="st10" cx="164.9" cy="351" r=".6"/>
    <circle class="st20" cx="104.6" cy="379.9" r=".8"/>
    <circle class="st18" cx="202.1" cy="259.5" r=".5"/>
    <circle class="st23" cx="257.6" cy="356.8" r=".3"/>
    <circle class="st7" cx="61.5" cy="411.4" r=".4"/>
    <circle class="st6" cx="392.8" cy="103.9" r="1"/>
    <path class="st6" d="M256.1,365.5c.3,0,.5.2.5.5s-.2.5-.5.5-.5-.2-.5-.5.2-.5.5-.5Z"/>
    <circle class="st4" cx="92.7" cy="51.8" r=".4"/>
    <circle class="st15" cx="448.3" cy="114.3" r=".8"/>
    <circle class="st16" cx="79.7" cy="373" r=".8"/>
    <circle class="st5" cx="141.8" cy="119.7" r=".6"/>
    <circle class="st22" cx="453.4" cy="438.3" r=".3"/>
    <circle class="st12" cx="142.4" cy="105.1" r=".4"/>
    <circle class="st21" cx="420.7" cy="314.5" r=".7"/>
    <circle class="st12" cx="261.2" cy="390.9" r=".4"/>
    <circle class="st17" cx="372.6" cy="460.7" r="1.1"/>
    <circle class="st15" cx="419.4" cy="131" r=".9"/>
    <circle class="st9" cx="359.7" cy="324" r="1"/>
    <circle class="st12" cx="454.3" cy="311.6" r=".8"/>
    <circle class="st12" cx="269.5" cy="414.6" r=".6"/>
    <circle class="st6" cx="103.1" cy="56.8" r=".8"/>
    <circle class="st19" cx="5.1" cy="79.9" r=".5"/>
    <circle class="st10" cx="298" cy="466.3" r=".8"/>
    <circle class="st18" cx="54.7" cy="229.5" r=".5"/>
    <circle class="st17" cx="175.5" cy="93.7" r=".6"/>
    <circle class="st22" cx="289.5" cy="35.4" r="1.2"/>
    <circle class="st20" cx="28" cy="296.2" r=".7"/>
    <circle class="st7" cx="353.7" cy="9.7" r="1"/>
    <circle class="st24" cx="165.8" cy="166.1" r=".4"/>
    <circle class="st15" cx="44.8" cy="458.5" r="1.1"/>
    <circle class="st14" cx="285.4" cy="35.9" r="1.1"/>
    <circle class="st21" cx="360.6" cy="89.9" r=".8"/>
    <circle class="st9" cx="173.9" cy="259.8" r=".8"/>
    <circle class="st13" cx="224.9" cy="138.5" r="1"/>
    <circle class="st22" cx="37.5" cy="70.4" r=".6"/>
    <circle class="st18" cx="284.7" cy="99.8" r=".9"/>
    <circle class="st18" cx="383.6" cy="161.3" r="1.2"/>
    <circle class="st9" cx="154.7" cy="29.6" r=".9"/>
    <circle class="st15" cx="176.9" cy="22.9" r=".3"/>
    <circle class="st11" cx="307.4" cy="17.1" r=".8"/>
    <circle class="st12" cx="153.4" cy="461.7" r="1.1"/>
    <circle class="st21" cx="53.8" cy="309.2" r=".6"/>
    <circle class="st21" cx="269.9" cy="24.9" r=".5"/>
    <circle class="st4" cx="404.9" cy="449.3" r="1.2"/>
    <circle class="st6" cx="413.3" cy="135.8" r=".5"/>
    <circle class="st14" cx="263" cy="62.9" r="1"/>
    <circle class="st10" cx="355.1" cy="74.8" r=".4"/>
    <circle class="st6" cx="124.5" cy="385.5" r=".4"/>
    <circle class="st13" cx="274.4" cy="83.1" r="1.1"/>
    <circle class="st19" cx="151.8" cy="82.5" r=".3"/>
    <circle class="st10" cx="151.4" cy="240.6" r=".3"/>
    <circle class="st21" cx="228" cy="304.5" r="1"/>
    <circle class="st10" cx="283.6" cy="255" r=".4"/>
    <circle class="st6" cx="47.6" cy="104.5" r="1"/>
    <circle class="st22" cx="339.8" cy="453.9" r=".7"/>
    <circle class="st21" cx="15.3" cy="344.6" r=".4"/>
    <circle class="st19" cx="72" cy="161.8" r="1"/>
    <circle class="st16" cx="119.6" cy="223" r=".4"/>
    <circle class="st17" cx="325.4" cy="157.9" r=".9"/>
    <circle class="st15" cx="115.8" cy="416.3" r="1"/>
    <circle class="st12" cx="208.3" cy="229.3" r=".6"/>
    <circle class="st4" cx="383.3" cy="441.8" r="1.2"/>
    <circle class="st21" cx="168" cy="445" r="1"/>
    <circle class="st23" cx="209" cy="314" r=".7"/>
    <circle class="st14" cx="282.4" cy="431.1" r="1"/>
    <circle class="st7" cx="387.5" cy="123.8" r=".7"/>
    <circle class="st4" cx="102.2" cy="161.9" r=".5"/>
    <circle class="st15" cx="427" cy="351.3" r=".9"/>
    <circle class="st11" cx="185.8" cy="443.1" r=".7"/>
    <circle class="st19" cx="87.6" cy="444" r=".7"/>
    <circle class="st12" cx="56.4" cy="302.9" r=".6"/>
    <circle class="st11" cx="277.1" cy="1.6" r=".5"/>
    <circle class="st4" cx="113.1" cy="434.1" r=".5"/>
    <circle class="st18" cx="71.5" cy="170.8" r=".8"/>
    <circle class="st23" cx="234.3" cy="29.2" r="1"/>
    <circle class="st16" cx="441.3" cy="405.5" r=".5"/>
    <circle class="st10" cx="271.1" cy="29.6" r=".3"/>
    <circle class="st16" cx="167" cy="308.7" r=".4"/>
    <circle class="st21" cx="105.7" cy="18" r="1"/>
    <circle class="st10" cx="278" cy="400.5" r=".3"/>
    <circle class="st10" cx="158.6" cy="423.8" r=".4"/>
    <circle class="st19" cx="214.4" cy="264.7" r=".8"/>
    <circle class="st14" cx="203.2" cy="35.7" r=".4"/>
    <circle class="st5" cx="33.3" cy="77" r=".9"/>
    <circle class="st17" cx="310.9" cy="99.3" r=".7"/>
    <circle class="st22" cx="98.3" cy="464.9" r="1.1"/>
    <circle class="st12" cx="381.5" cy="354.2" r=".9"/>
    <circle class="st13" cx="20.7" cy="456.3" r=".9"/>
    <circle class="st12" cx="429.8" cy="167.7" r="1"/>
    <circle class="st4" cx="139.6" cy="155.5" r=".8"/>
    <circle class="st13" cx="213.9" cy="330.1" r=".4"/>
    <circle class="st15" cx="60" cy="232.8" r=".8"/>
    <circle class="st19" cx="22.4" cy="460.6" r="1.2"/>
    <circle class="st5" cx="30.9" cy="33.2" r=".9"/>
    <circle class="st21" cx="100.9" cy="339.8" r=".3"/>
    <circle class="st16" cx="218.5" cy="356.1" r="1"/>
    <circle class="st5" cx="447.8" cy="343.2" r=".5"/>
    <circle class="st9" cx="272" cy="368.3" r=".9"/>
    <circle class="st9" cx="402.9" cy="420.6" r=".8"/>
    <circle class="st23" cx="397.5" cy="186.8" r="1.2"/>
    <circle class="st19" cx="214.4" cy="21.5" r=".6"/>
    <circle class="st20" cx="154.2" cy="254.5" r=".6"/>
    <circle class="st15" cx="417.8" cy="386.8" r=".4"/>
    <circle class="st14" cx="329.4" cy="285.3" r="1.1"/>
    <circle class="st18" cx="251.6" cy="329.3" r=".9"/>
    <circle class="st14" cx="127.2" cy="111" r=".6"/>
    <circle class="st17" cx="356.2" cy="306.4" r="1.1"/>
    <circle class="st20" cx="123.2" cy="51.1" r=".4"/>
    <circle class="st13" cx="103.5" cy="324.3" r="1.1"/>
    <circle class="st8" cx="27.9" cy="405.2" r=".6"/>
    <circle class="st21" cx="174.1" cy="195.5" r=".4"/>
    <circle class="st24" cx="372" cy="326" r=".7"/>
    <circle class="st24" cx="237.8" cy="44.7" r="1.1"/>
    <circle class="st5" cx="185.5" cy="351.7" r=".7"/>
    <circle class="st13" cx="344.6" cy="361.4" r=".5"/>
    <circle class="st18" cx="176" cy="133" r=".8"/>
    <circle class="st17" cx="93.6" cy="34" r="1"/>
    <circle class="st9" cx="120.3" cy="371.1" r=".9"/>
    <circle class="st8" cx="64.9" cy="241" r=".7"/>
    <circle class="st14" cx="243" cy="82.3" r="1"/>
    <circle class="st19" cx="122.4" cy="183.6" r=".5"/>
    <circle class="st20" cx="192.7" cy="225.5" r="1.1"/>
    <circle class="st4" cx="99" cy="450.9" r="1.2"/>
    <circle class="st5" cx="61.7" cy="407.5" r=".9"/>
    <circle class="st5" cx="15.5" cy="151.7" r=".9"/>
    <circle class="st8" cx="97.7" cy="465.2" r=".6"/>
    <circle class="st18" cx="238.9" cy="23.4" r=".5"/>
    <circle class="st10" cx="229.5" cy="207.2" r=".7"/>
    <circle class="st23" cx="148.3" cy="318.9" r="1.1"/>
    <circle class="st20" cx="43.7" cy="185.6" r=".9"/>
    <circle class="st23" cx="357.9" cy="459.2" r=".7"/>
    <circle class="st12" cx="341.3" cy="444.4" r=".6"/>
    <circle class="st8" cx="279.4" cy="221.9" r=".3"/>
    <circle class="st23" cx="271.4" cy="308.1" r=".4"/>
    <circle class="st14" cx="208.1" cy="277.9" r=".9"/>
    <circle class="st23" cx="441.1" cy="31.2" r=".3"/>
    <circle class="st21" cx="289.9" cy="86.1" r="1"/>
    <circle class="st16" cx="416.1" cy="50.7" r=".8"/>
    <circle class="st11" cx="376.3" cy="156.5" r="1.2"/>
    <circle class="st7" cx="340.3" cy="306.2" r=".7"/>
    <circle class="st14" cx="187.3" cy="244.6" r=".4"/>
    <circle class="st4" cx="262.4" cy="51.6" r=".4"/>
    <circle class="st22" cx="100.9" cy="399.1" r="1.1"/>
    <circle class="st15" cx="155.5" cy="9.8" r="1.1"/>
    <circle class="st17" cx="129.7" cy="173.4" r="1"/>
    <circle class="st15" cx="296" cy="196.1" r="1"/>
    <circle class="st5" cx="224.4" cy="382.3" r="1"/>
    <circle class="st19" cx="182.9" cy="276.8" r=".7"/>
    <circle class="st24" cx="326.8" cy="331.7" r=".4"/>
    <circle class="st15" cx="408.9" cy="137.8" r=".6"/>
    <circle class="st10" cx="445.2" cy="371.6" r=".8"/>
    <circle class="st13" cx="397.2" cy="291.9" r=".6"/>
    <circle class="st21" cx="147.8" cy="90.1" r=".6"/>
    <circle class="st21" cx="144.5" cy="165.7" r=".9"/>
    <circle class="st16" cx="376" cy="51.3" r=".6"/>
    <circle class="st8" cx="240" cy="41.1" r="1"/>
    <circle class="st22" cx="317" cy="171.7" r=".6"/>
    <circle class="st11" cx="116.1" cy="347.6" r=".5"/>
    <circle class="st8" cx="104.5" cy="128.4" r="1.1"/>
    <circle class="st8" cx="322.3" cy="466.6" r=".7"/>
    <circle class="st18" cx="341.9" cy="232.8" r=".9"/>
    <circle class="st12" cx="331" cy="403.7" r=".5"/>
    <circle class="st23" cx="113.3" cy="278.9" r=".8"/>
    <circle class="st16" cx="281.9" cy="6" r="1.1"/>
    <circle class="st13" cx="36.1" cy="318.5" r="1.2"/>
    <circle class="st5" cx="405.1" cy="425.7" r=".8"/>
    <circle class="st19" cx="62.5" cy="303" r=".5"/>
  </g>
</svg>