<?xml version="1.0" encoding="UTF-8"?>
<svg id="Layer_1" xmlns="http://www.w3.org/2000/svg" xmlns:xlink="http://www.w3.org/1999/xlink" version="1.1" viewBox="0 0 469 469">
  <!-- Generator: Adobe Illustrator 29.2.1, SVG Export Plug-In . SVG Version: 2.1.0 Build 116)  -->
  <defs>
    <style>
      .st0 {
        fill: #8b1a1a;
        opacity: .6;
      }

      .st0, .st1, .st2, .st3, .st4, .st5, .st6, .st7, .st8, .st9, .st10, .st11, .st12, .st13, .st14, .st15, .st16, .st17, .st18, .st19 {
        isolation: isolate;
      }

      .st20 {
        filter: url(#planetTexture);
      }

      .st21 {
        fill: url(#radial-gradient);
      }

      .st1 {
        opacity: .8;
      }

      .st1, .st2, .st3, .st4, .st5, .st6, .st7, .st8, .st9, .st10, .st11, .st12, .st13, .st14, .st15, .st16, .st17, .st18, .st19, .st22 {
        fill: red;
      }

      .st2 {
        opacity: .9;
      }

      .st3 {
        opacity: .8;
      }

      .st4 {
        opacity: .9;
      }

      .st5 {
        opacity: .9;
      }

      .st6 {
        opacity: .9;
      }

      .st7 {
        opacity: .9;
      }

      .st8 {
        opacity: .9;
      }

      .st9 {
        opacity: .8;
      }

      .st10 {
        opacity: .8;
      }

      .st11 {
        opacity: .9;
      }

      .st12 {
        opacity: .9;
      }

      .st13 {
        opacity: 1;
      }

      .st14 {
        opacity: 1;
      }

      .st15 {
        opacity: 1;
      }

      .st16 {
        opacity: 1;
      }

      .st17 {
        opacity: .9;
      }

      .st18 {
        opacity: .9;
      }

      .st19 {
        opacity: .9;
      }

      .st23 {
        filter: url(#nebulaBlur);
        opacity: .7;
      }

      .st24 {
        fill: #333;
      }
    </style>
    <filter id="nebulaBlur">
      <feGaussianBlur in="SourceGraphic" stdDeviation="20"/>
    </filter>
    <filter id="planetTexture" x="-20%" y="-20%" width="140%" height="140%">
      <feTurbulence baseFrequency="0.8" numOctaves="3" result="noise" type="fractalNoise"/>
      <feDisplacementMap in="SourceGraphic" in2="noise" scale="10" xChannelSelector="R" yChannelSelector="G"/>
    </filter>
    <radialGradient id="radial-gradient" cx="44.7" cy="425.7" fx="44.7" fy="425.7" r=".5" gradientTransform="translate(-6127.4 64342.8) scale(144.6 -150.6)" gradientUnits="userSpaceOnUse">
      <stop offset="0" stop-color="#ffb3a7"/>
      <stop offset=".5" stop-color="#ff8c66"/>
      <stop offset=".8" stop-color="#e05a3b"/>
      <stop offset="1" stop-color="#a12d2d"/>
    </radialGradient>
  </defs>
  <rect class="st24" width="469" height="469"/>
  <g class="st23">
    <ellipse class="st22" cx="349.4" cy="306.6" rx="57.4" ry="66.6"/>
    <ellipse class="st22" cx="393.3" cy="140" rx="40.9" ry="38.2"/>
    <ellipse class="st22" cx="250.2" cy="136" rx="46.4" ry="100"/>
  </g>
  <g>
    <circle class="st12" cx="261.9" cy="384.4" r=".5"/>
    <circle class="st1" cx="239.1" cy="295.3" r=".9"/>
    <circle class="st2" cx="247.1" cy="3.5" r=".9"/>
    <circle class="st19" cx="19.7" cy="68.4" r=".8"/>
    <circle class="st19" cx="361.2" cy="417" r=".9"/>
    <circle class="st16" cx="195.4" cy="422.1" r="1"/>
    <circle class="st5" cx="311.3" cy="93.4" r="1"/>
    <circle class="st2" cx="6.4" cy="100.7" r=".7"/>
    <circle class="st17" cx="243.6" cy="417.3" r=".6"/>
    <circle class="st14" cx="216.9" cy="434" r="1"/>
    <circle class="st1" cx="295.6" cy="111.2" r=".7"/>
    <circle class="st11" cx="218.2" cy="435.1" r=".9"/>
    <circle class="st5" cx="398.9" cy="183.3" r=".9"/>
    <circle class="st8" cx="237.3" cy="249.7" r="1"/>
    <circle class="st3" cx="287.9" cy="132.5" r=".9"/>
    <circle class="st11" cx="43.9" cy="12.4" r=".6"/>
    <circle class="st8" cx="174.5" cy="444.8" r=".7"/>
    <circle class="st19" cx="148" cy="130" r=".6"/>
    <circle class="st18" cx="210" cy="121.4" r=".9"/>
    <circle class="st14" cx="44.4" cy="467.2" r="1"/>
    <circle class="st10" cx="310.8" cy="369.9" r=".7"/>
    <circle class="st4" cx="132.5" cy="291.4" r=".9"/>
    <circle class="st13" cx="369.8" cy="31.6" r=".6"/>
    <circle class="st6" cx="232.5" cy="312.1" r=".8"/>
    <circle class="st19" cx="44.7" cy="229" r=".8"/>
    <circle class="st13" cx="116.6" cy="313.3" r=".9"/>
    <circle class="st9" cx="319.9" cy="393.2" r=".9"/>
    <circle class="st15" cx="363.4" cy="185.3" r=".7"/>
    <circle class="st7" cx="148.5" cy="418.5" r=".6"/>
    <circle class="st9" cx="233.8" cy="457.7" r=".7"/>
  </g>
  <g>
    <circle class="st22" cx="372.7" cy="17.6" r="5.7"/>
    <circle class="st22" cx="11.2" cy="117.9" r="4.4"/>
    <circle class="st22" cx="462.5" cy="422.2" r="3.4"/>
    <circle class="st22" cx="239.7" cy="381.9" r="3.8"/>
    <circle class="st22" cx="91.4" cy="2" r="3.9"/>
    <circle class="st22" cx="196" cy="193.8" r="5.7"/>
    <circle class="st22" cx="72.7" cy="13.8" r="3.7"/>
    <circle class="st22" cx="198.2" cy="239.2" r="6"/>
    <circle class="st22" cx="343.4" cy="253.8" r="3.2"/>
    <circle class="st22" cx="141.6" cy="410.3" r="5.7"/>
    <circle class="st22" cx="342.6" cy="135.3" r="3.8"/>
    <circle class="st22" cx="143.5" cy="97.6" r="5.1"/>
    <circle class="st22" cx="115.8" cy="232.8" r="3.6"/>
    <circle class="st22" cx="228.5" cy="366.2" r="5.8"/>
    <circle class="st22" cx="109.2" cy="34.6" r="3.6"/>
  </g>
  <g>
    <g class="st20">
      <ellipse class="st21" cx="333.4" cy="214.4" rx="72.3" ry="75.3"/>
    </g>
    <ellipse class="st0" cx="309.2" cy="221" rx="5.3" ry="5.6"/>
    <ellipse class="st0" cx="349.9" cy="191.3" rx="4.1" ry="4.3"/>
    <ellipse class="st0" cx="314.4" cy="221.6" rx="6.3" ry="6.5"/>
    <ellipse class="st0" cx="366.6" cy="217.1" rx="4.9" ry="5.1"/>
    <ellipse class="st0" cx="339.8" cy="251" rx="6.7" ry="7"/>
  </g>
</svg>