<svg xmlns="http://www.w3.org/2000/svg" width="469" height="469" viewBox="0 0 469 469" preserveAspectRatio="xMidYMid meet">
      <rect x="0" y="0" width="469" height="469" fill="black"></rect>
  <g></g>
    <defs>
      <radialGradient id="nebulaGlow" cx="50%" cy="50%" r="50%">
        <stop offset="0%" stop-color="#ff99cc" stop-opacity="0.8"></stop>
        <stop offset="100%" stop-color="black" stop-opacity="0"></stop>
      </radialGradient>
    </defs>
    <circle cx="234.5" cy="234.5" r="156.33333333333334" fill="url(#nebulaGlow)"></circle>
  <g>
        <circle cx="234.5" cy="234.5" r="1.253227860154584" fill="#d268d0" opacity="0.8"></circle>
      
        <circle cx="236.288725509624" cy="234.67278925489848" r="0.4445846785791218" fill="#638cea" opacity="0.8"></circle>
      
        <circle cx="238.02764775008347" cy="235.1879546881029" r="0.7090178289916367" fill="#87dabb" opacity="0.8"></circle>
      
        <circle cx="239.66773286730827" cy="236.03593381713958" r="0.8696462255436928" fill="#239b40" opacity="0.8"></circle>
      
        <circle cx="241.16147585430483" cy="237.20093699458553" r="0.9873282017186285" fill="#fa02f8" opacity="0.8"></circle>
      
        <circle cx="242.46364013586359" cy="238.66116722460907" r="0.41956801870837807" fill="#e25f98" opacity="0.8"></circle>
      
        <circle cx="243.5319676783807" cy="240.38912409197252" r="0.5635403007734567" fill="#73639f" opacity="0.8"></circle>
      
        <circle cx="244.327850348656" cy="242.35198804242788" r="0.3619642208330333" fill="#ce04d8" opacity="0.8"></circle>
      
        <circle cx="244.81695370794247" cy="244.51208025402312" r="0.7934755603317172" fill="#ff3d50" opacity="0.8"></circle>
      
        <circle cx="244.96978499563352" cy="246.82739239464814" r="1.1442426740657539" fill="#8fd82a" opacity="0.8"></circle>
      
        <circle cx="244.76219772433515" cy="249.2521796832008" r="0.5668899933341891" fill="#917309" opacity="0.8"></circle>
      
        <circle cx="244.17582606710988" cy="251.73760987030906" r="1.0333028418943286" fill="#a7a374" opacity="0.8"></circle>
      
        <circle cx="243.19844305977085" cy="254.2324600390267" r="0.43378013647161423" fill="#35fb67" opacity="0.8"></circle>
      
        <circle cx="241.8242375566689" cy="256.6838525047847" r="0.5665563540067524" fill="#bb7021" opacity="0.8"></circle>
      
        <circle cx="240.05400585702975" cy="259.0380205745311" r="1.1202497560996563" fill="#2b091a" opacity="0.8"></circle>
      
        <circle cx="237.89525494939974" cy="261.2410945137042" r="0.6393101016990841" fill="#37c811" opacity="0.8"></circle>
      
        <circle cx="235.36221539237545" cy="263.2398977715033" r="1.0911355758551509" fill="#4d06f4" opacity="0.8"></circle>
      
        <circle cx="232.4757629482756" cy="264.9827433336558" r="1.2108724896796048" fill="#02b5b1" opacity="0.8"></circle>
      
        <circle cx="229.26324920015912" cy="266.4202200099882" r="1.1179585258476437" fill="#479453" opacity="0.8"></circle>
      
        <circle cx="225.75824249880066" cy="267.50595852274654" r="0.8315265413373709" fill="#aa3ba7" opacity="0.8"></circle>
      
        <circle cx="222.0001816920265" cy="268.1973674405408" r="0.8785393957048655" fill="#ed874a" opacity="0.8"></circle>
      
        <circle cx="218.03394617140447" cy="268.4563293004393" r="1.066105709830299" fill="#1264f0" opacity="0.8"></circle>
      
        <circle cx="213.90934681808614" cy="268.2498476741732" r="0.7662732200231404" fill="#9ea626" opacity="0.8"></circle>
      
        <circle cx="209.6805434284129" cy="267.5506364593984" r="1.2414108181372285" fill="#c1fe39" opacity="0.8"></circle>
      
        <circle cx="205.40539513899546" cy="266.3376433079689" r="1.0363135805353523" fill="#1b45c5" opacity="0.8"></circle>
      
        <circle cx="201.14475123926792" cy="264.5964998334879" r="0.7119065229315311" fill="#349781" opacity="0.8"></circle>
      
        <circle cx="196.96169054666584" cy="262.31989206211915" r="1.0874583108350635" fill="#86c8d1" opacity="0.8"></circle>
      
        <circle cx="192.92071821611273" cy="259.5078454948422" r="0.9652254448272288" fill="#16830c" opacity="0.8"></circle>
      
        <circle cx="189.0869294529267" cy="256.1679201260914" r="0.7826820504385978" fill="#58dedb" opacity="0.8"></circle>
      
        <circle cx="185.52515008916495" cy="252.31531180227907" r="0.6765614775475115" fill="#3f25c5" opacity="0.8"></circle>
      
        <circle cx="182.29906436154994" cy="247.9728573925329" r="0.5422580774873496" fill="#7f4d68" opacity="0.8"></circle>
      
        <circle cx="179.470340489448" cy="243.17094237095992" r="0.9629667503293604" fill="#de904c" opacity="0.8"></circle>
      
        <circle cx="177.0977647901693" cy="237.94731056223642" r="0.6078998050186784" fill="#4c1fff" opacity="0.8"></circle>
      
        <circle cx="175.236395083752" cy="232.34677696735451" r="0.5751435795798898" fill="#f701bf" opacity="0.8"></circle>
      
        <circle cx="173.93674402936296" cy="226.42084575072764" r="1.2855981492437423" fill="#7615dd" opacity="0.8"></circle>
      
        <circle cx="173.24400280088614" cy="220.22723662031905" r="0.44598574652336537" fill="#292d0a" opacity="0.8"></circle>
      
        <circle cx="173.19731515194707" cy="213.82932395582932" r="1.233590482454747" fill="#f934b7" opacity="0.8"></circle>
      
        <circle cx="173.82911144369962" cy="207.29549412330655" r="0.7095708495005966" fill="#1ba659" opacity="0.8"></circle>
      
        <circle cx="175.16451161669107" cy="200.69842744524487" r="0.5376029381994158" fill="#c60fc2" opacity="0.8"></circle>
      
        <circle cx="177.22080538684537" cy="194.1143122612306" r="0.5789104755502195" fill="#8b560b" opacity="0.8"></circle>
      
        <circle cx="180.00701714213963" cy="187.62199940405293" r="0.8616463911719621" fill="#82dcb2" opacity="0.8"></circle>
      
        <circle cx="183.52356211915506" cy="181.3021062192547" r="0.35519300745800136" fill="#02c027" opacity="0.8"></circle>
      
        <circle cx="187.76199945671834" cy="175.2360799625902" r="1.1860652977600694" fill="#718e7d" opacity="0.8"></circle>
      
        <circle cx="192.70488666767457" cy="169.50523101102408" r="0.8355780983809382" fill="#ac1ff4" opacity="0.8"></circle>
      
        <circle cx="198.32573895070303" cy="164.1897468110921" r="1.1561177162919194" fill="#e93351" opacity="0.8"></circle>
      
        <circle cx="204.589095594035" cy="159.3676978571948" r="0.7255475455429405" fill="#f72677" opacity="0.8"></circle>
      
        <circle cx="211.4506945146395" cy="155.11404723653322" r="0.598730536364019" fill="#c81990" opacity="0.8"></circle>
      
        <circle cx="218.85775474311" cy="151.49967539307312" r="0.985071797342971" fill="#d42462" opacity="0.8"></circle>
      
        <circle cx="226.74936541967625" cy="148.59043174770306" r="0.35407248926348983" fill="#cce704" opacity="0.8"></circle>
      
        <circle cx="235.05697862429375" cy="146.44622466459214" r="0.6288111875299365" fill="#aef0a3" opacity="0.8"></circle>
      
        <circle cx="243.7050021374969" cy="145.1201609750919" r="0.6476336074527353" fill="#310807" opacity="0.8"></circle>
      
        <circle cx="252.61148703245902" cy="144.65774586222216" r="0.3814804225228727" fill="#48fcd9" opacity="0.8"></circle>
      
        <circle cx="261.6889038460737" cy="145.09615337415335" r="1.1365018209442497" fill="#da2e38" opacity="0.8"></circle>
      
        <circle cx="270.84499998106867" cy="146.46357717886988" r="0.4473586559295654" fill="#78c9c6" opacity="0.8"></circle>
      
        <circle cx="279.9837299648906" cy="148.7786704004651" r="1.181785825593397" fill="#f512a6" opacity="0.8"></circle>
      
        <circle cx="289.00624924641147" cy="152.0500824976972" r="0.9281153650488705" fill="#5fae41" opacity="0.8"></circle>
      
        <circle cx="297.8119613596389" cy="156.27610016617604" r="0.3979327126406133" fill="#161c9a" opacity="0.8"></circle>
      
        <circle cx="306.2996075349084" cy="161.44439817667308" r="0.7410371889825911" fill="#4bf688" opacity="0.8"></circle>
      
        <circle cx="314.3683872017914" cy="167.53190491443183" r="1.2826022014021874" fill="#3defc2" opacity="0.8"></circle>
      
        <circle cx="321.9190973122943" cy="174.50478616982036" r="0.3799101828597486" fill="#939f93" opacity="0.8"></circle>
      
        <circle cx="328.8552780247869" cy="182.31854946188554" r="0.6309141593053937" fill="#bbbcfe" opacity="0.8"></circle>
      
        <circle cx="335.0843520340318" cy="190.91826986669258" r="0.4883259571623057" fill="#bfc22b" opacity="0.8"></circle>
      
        <circle cx="340.5187447148864" cy="200.23893698568406" r="0.7800575245171786" fill="#f212de" opacity="0.8"></circle>
      
        <circle cx="345.07697226944276" cy="210.2059213400147" r="1.0965252827852965" fill="#111971" opacity="0.8"></circle>
      
        <circle cx="348.68468523078764" cy="220.73555712951372" r="1.2688191753812135" fill="#5e328c" opacity="0.8"></circle>
      
        <circle cx="351.2756549809337" cy="231.7358369643037" r="1.2397490315604955" fill="#03bce4" opacity="0.8"></circle>
      
        <circle cx="352.7926913839786" cy="243.10721287784847" r="0.957410342944786" fill="#853d0f" opacity="0.8"></circle>
      
        <circle cx="353.1884802148661" cy="254.74349667675324" r="0.9307668981608004" fill="#da663d" opacity="0.8"></circle>
      
        <circle cx="352.42632977443753" cy="266.53285148912545" r="1.1881491341162473" fill="#0e94f4" opacity="0.8"></circle>
      
        <circle cx="350.4808169164827" cy="278.35886525330113" r="0.38289111754857" fill="#c0e1d9" opacity="0.8"></circle>
      
        <circle cx="347.3383236645677" cy="290.10169585517235" r="0.5824649647809566" fill="#0d1739" opacity="0.8"></circle>
      
        <circle cx="342.9974566565036" cy="301.63927668735084" r="1.0577444177586586" fill="#e4515d" opacity="0.8"></circle>
      
        <circle cx="337.4693428121935" cy="312.8485705781285" r="1.2745710967108608" fill="#566a0b" opacity="0.8"></circle>
      
        <circle cx="330.77779586484485" cy="323.60685933276693" r="0.5970516299828887" fill="#769d1d" opacity="0.8"></circle>
      
        <circle cx="322.9593497137335" cy="333.79305555298254" r="0.9890795077197254" fill="#518c58" opacity="0.8"></circle>
      
        <circle cx="314.06315593551165" cy="343.2890229602166" r="1.0871567462570966" fill="#855f76" opacity="0.8"></circle>
      
        <circle cx="304.15074421635296" cy="351.9808911506413" r="0.8826338473707438" fill="#bf2dc2" opacity="0.8"></circle>
      
        <circle cx="293.29564592425965" cy="359.76035055964076" r="1.0711133600678295" fill="#6aecd7" opacity="0.8"></circle>
      
        <circle cx="281.582882514402" cy="366.5259134139777" r="0.8316266412846745" fill="#b2bbc7" opacity="0.8"></circle>
      
        <circle cx="269.10832193485663" cy="372.1841266027037" r="0.8709601605776698" fill="#88eed7" opacity="0.8"></circle>
      
        <circle cx="255.97790765982165" cy="376.6507227031889" r="0.3546878173481673" fill="#27fc63" opacity="0.8"></circle>
      
        <circle cx="242.306766406633" cy="379.85169585488995" r="0.7753500246442855" fill="#731abf" opacity="0.8"></circle>
      
        <circle cx="228.21820197608685" cy="381.72428977751997" r="0.9662256396375597" fill="#6597f9" opacity="0.8"></circle>
      
        <circle cx="213.84258397751202" cy="382.21788597736315" r="1.260743053117767" fill="#1d442c" opacity="0.8"></circle>
      
        <circle cx="199.31614144599519" cy="381.29478106931793" r="0.813413567095995" fill="#a767cf" opacity="0.8"></circle>
      
        <circle cx="184.77967251506658" cy="378.9308431550156" r="0.656920856051147" fill="#3a56d7" opacity="0.8"></circle>
      
        <circle cx="170.37718236077" cy="375.1160383298262" r="0.3093339253216982" fill="#6f9bff" opacity="0.8"></circle>
      
        <circle cx="156.25446257005473" cy="369.8548196331044" r="1.1318714080378414" fill="#5cb037" opacity="0.8"></circle>
      
        <circle cx="142.5576258966231" cy="363.16637209480484" r="1.0584169916808606" fill="#18ab84" opacity="0.8"></circle>
      
        <circle cx="129.43161104079388" cy="355.0847089545964" r="0.81233334466815" fill="#5585e9" opacity="0.8"></circle>
      
        <circle cx="117.01867261790255" cy="345.6586156228235" r="0.9925849912222475" fill="#03bdf3" opacity="0.8"></circle>
      
        <circle cx="105.45687185508032" cy="334.95143950119007" r="0.32248232159763573" fill="#0b1b16" opacity="0.8"></circle>
      
        <circle cx="94.87858377324204" cy="323.04072536927737" r="0.3206091892905533" fill="#85652e" opacity="0.8"></circle>
      
        <circle cx="85.40903666566476" cy="310.0176976547223" r="0.4361138615757227" fill="#06bc6c" opacity="0.8"></circle>
      
        <circle cx="77.16489957426089" cy="295.98659252349483" r="1.1060375477652997" fill="#99a3f2" opacity="0.8"></circle>
      
        <circle cx="70.25293318878118" cy="281.06384433535345" r="0.8238162770401687" fill="#99eef6" opacity="0.8"></circle>
      
        <circle cx="64.76871915373695" cy="265.37713259132227" r="0.6749176098499448" fill="#489f0b" opacity="0.8"></circle>
      
        <circle cx="60.79548216551538" cy="249.0642970381062" r="1.1795969688799233" fill="#081fac" opacity="0.8"></circle>
      
        <circle cx="58.40301848239861" cy="232.2721300722043" r="1.094319924665615" fill="#849e93" opacity="0.8"></circle>
      
        <circle cx="57.646743559124246" cy="215.1550569880682" r="0.3573336004745215" fill="#aa8551" opacity="0.8"></circle>
      
        <circle cx="58.566870462955194" cy="197.8737159244805" r="0.31966361817903816" fill="#4593a4" opacity="0.8"></circle>
      
        <circle cx="61.187729539311476" cy="180.59345056680618" r="1.0666005759965629" fill="#f74b6c" opacity="0.8"></circle>
      
        <circle cx="65.51723848263268" cy="163.48272974620522" r="0.5786842889618129" fill="#5b1613" opacity="0.8"></circle>
      
        <circle cx="71.5465305445" cy="146.71150902762986" r="1.0569369005504996" fill="#3ac50a" opacity="0.8"></circle>
      
        <circle cx="79.24974708960875" cy="130.44955018523302" r="0.6806278165429831" fill="#bc5ddf" opacity="0.8"></circle>
      
        <circle cx="88.58399910556815" cy="114.8647151166178" r="0.41839063884690403" fill="#98cacc" opacity="0.8"></circle>
      
        <circle cx="99.48950060034221" cy="100.12125123772836" r="1.1583370994310827" fill="#b9543c" opacity="0.8"></circle>
      
        <circle cx="111.88987509791826" cy="86.37808572121324" r="1.0231611320748926" fill="#5564ec" opacity="0.8"></circle>
      
        <circle cx="125.69263468565754" cy="73.78714608757653" r="0.9844155113212765" fill="#b87e25" opacity="0.8"></circle>
      
        <circle cx="140.78982929348575" cy="62.491724626866045" r="1.0260616428684444" fill="#6ff8c5" opacity="0.8"></circle>
      
        <circle cx="157.05886211361337" cy="52.624903917398484" r="0.6605406684800983" fill="#8dec95" opacity="0.8"></circle>
      
        <circle cx="174.36346531810563" cy="44.3080603171945" r="0.31337585365399717" fill="#1e160f" opacity="0.8"></circle>
      
        <circle cx="192.5548285184971" cy="37.64946173542367" r="0.783525657793507" fill="#770f35" opacity="0.8"></circle>
      
        <circle cx="211.4728707547826" cy="32.74297524905742" r="0.3045853555202484" fill="#c5ed13" opacity="0.8"></circle>
      
        <circle cx="230.94764521808426" cy="29.666899219767572" r="0.30003231200389563" fill="#228129" opacity="0.8"></circle>
      
        <circle cx="250.8008644191091" cy="28.482933495316672" r="0.36467191595584153" fill="#00e04b" opacity="0.8"></circle>
      
        <circle cx="270.8475321294678" cy="29.23530005742046" r="0.7147185415495187" fill="#0a66e2" opacity="0.8"></circle>
      
        <circle cx="290.897667160277" cy="31.950025115123992" r="0.8660450737923384" fill="#d2476a" opacity="0.8"></circle>
      
        <circle cx="310.7581029165086" cy="36.63439215144882" r="0.682222784915939" fill="#47e524" opacity="0.8"></circle>
      
        <circle cx="330.23434568926245" cy="43.276573825231395" r="1.12663636142388" fill="#b49fda" opacity="0.8"></circle>
      
        <circle cx="349.13247383303997" cy="51.84544892474338" r="1.1473709609825165" fill="#93fbbe" opacity="0.8"></circle>
      
        <circle cx="367.2610593313508" cy="62.290608781134836" r="1.0304343858268112" fill="#b602a7" opacity="0.8"></circle>
      
        <circle cx="384.4330927899168" cy="74.54255569519731" r="1.0020473836455495" fill="#d2245a" opacity="0.8"></circle>
      
        <circle cx="400.4678926191028" cy="88.51309402854702" r="0.4494452499318868" fill="#7d178d" opacity="0.8"></circle>
      
        <circle cx="415.1929790807869" cy="104.09591267880052" r="1.227800209261477" fill="#7013ce" opacity="0.8"></circle>
      
        <circle cx="428.4458939827018" cy="121.16735571695627" r="1.173045586515218" fill="#0b17d9" opacity="0.8"></circle>
      
        <circle cx="440.0759471063094" cy="139.5873760335194" r="1.1985801294911653" fill="#4febd5" opacity="0.8"></circle>
      
        <circle cx="449.94587095158636" cy="159.2006649375693" r="1.063003682717681" fill="#411ce8" opacity="0.8"></circle>
      
        <circle cx="457.9333660707579" cy="179.83794879949676" r="0.6530175702180714" fill="#f956a0" opacity="0.8"></circle>
      
        <circle cx="463.9325201381632" cy="201.3174420428178" r="0.38203944587148725" fill="#5a866a" opacity="0.8"></circle>
      
        <circle cx="467.8550849581899" cy="223.44644409197133" r="0.6133697649464012" fill="#bebea7" opacity="0.8"></circle>
      
        <circle cx="469" cy="246.02306628943964" r="1.1236637078225613" fill="#19bb03" opacity="0.8"></circle>
      
        <circle cx="469" cy="268.83807332408844" r="0.6985314257442952" fill="#d0d6a1" opacity="0.8"></circle>
      
        <circle cx="466.5680513796424" cy="291.67682237928796" r="0.5089951995294542" fill="#c0ab78" opacity="0.8"></circle>
      
        <circle cx="461.6906268068184" cy="314.321282029234" r="1.2951995727606118" fill="#538291" opacity="0.8"></circle>
      
        <circle cx="454.59337042733426" cy="336.5521118981922" r="0.4482546059414744" fill="#9a6d74" opacity="0.8"></circle>
      
        <circle cx="445.3112309935167" cy="358.1507832622713" r="0.8763594117015601" fill="#6889ce" opacity="0.8"></circle>
      
        <circle cx="433.90075073666105" cy="378.90172012691505" r="0.6777413140051067" fill="#68d1ae" opacity="0.8"></circle>
      
        <circle cx="420.4398145136302" cy="398.59443986413567" r="0.6257012807298452" fill="#985519" opacity="0.8"></circle>
      
        <circle cx="405.0271861667228" cy="417.025672248125" r="0.8503823070321233" fill="#9d6658" opacity="0.8"></circle>
      
        <circle cx="387.78183400160117" cy="434.0014356908464" r="0.8391777416225523" fill="#a50e45" opacity="0.8"></circle>
      
        <circle cx="368.8420494034908" cy="449.33904965312365" r="0.5231559006031603" fill="#c74722" opacity="0.8"></circle>
      
        <circle cx="348.3643647107381" cy="462.86906259198537" r="1.0138065563049168" fill="#c1ddb5" opacity="0.8"></circle>
      
        <circle cx="326.52227852592705" cy="469" r="1.2030277591664345" fill="#7d277c" opacity="0.8"></circle>
      
        <circle cx="303.5047986472232" cy="469" r="0.8871802847832442" fill="#2447fd" opacity="0.8"></circle>
      
        <circle cx="279.51481472577376" cy="469" r="0.6678095929790289" fill="#38aa33" opacity="0.8"></circle>
      
        <circle cx="254.76731457898182" cy="469" r="0.6706072233617306" fill="#ec3c72" opacity="0.8"></circle>
      
        <circle cx="229.4874597949566" cy="469" r="0.6655427142512054" fill="#53b1e8" opacity="0.8"></circle>
      
        <circle cx="203.90853783236685" cy="469" r="0.6053240422159434" fill="#a95bed" opacity="0.8"></circle>
      
        <circle cx="178.26980923526904" cy="469" r="0.5287085396237672" fill="#28231b" opacity="0.8"></circle>
      
        <circle cx="234.5" cy="234.5" r="1.0450806279666722" fill="#4dcdaf" opacity="0.8"></circle>
      
        <circle cx="234.32721074510152" cy="236.288725509624" r="1.0620093675795943" fill="#ee6a72" opacity="0.8"></circle>
      
        <circle cx="233.8120453118971" cy="238.02764775008347" r="1.1481878261081875" fill="#8c0e5a" opacity="0.8"></circle>
      
        <circle cx="232.96406618286042" cy="239.66773286730827" r="0.35432754568755626" fill="#0b92ac" opacity="0.8"></circle>
      
        <circle cx="231.7990630054145" cy="241.16147585430483" r="0.6622307586483658" fill="#b77f81" opacity="0.8"></circle>
      
        <circle cx="230.33883277539093" cy="242.46364013586359" r="0.47599489958956837" fill="#323a9c" opacity="0.8"></circle>
      
        <circle cx="228.61087590802748" cy="243.5319676783807" r="0.48276438885368406" fill="#bae6aa" opacity="0.8"></circle>
      
        <circle cx="226.64801195757212" cy="244.327850348656" r="0.7963261741213501" fill="#05e96c" opacity="0.8"></circle>
      
        <circle cx="224.48791974597688" cy="244.81695370794247" r="0.9699707014486194" fill="#b4766a" opacity="0.8"></circle>
      
        <circle cx="222.17260760535186" cy="244.96978499563352" r="0.8404772383626551" fill="#8695de" opacity="0.8"></circle>
      
        <circle cx="219.7478203167992" cy="244.76219772433515" r="0.37473533530719577" fill="#9748bc" opacity="0.8"></circle>
      
        <circle cx="217.26239012969097" cy="244.17582606710988" r="1.0562291114591063" fill="#c6750b" opacity="0.8"></circle>
      
        <circle cx="214.7675399609733" cy="243.19844305977085" r="1.0250134616624564" fill="#b1f5e9" opacity="0.8"></circle>
      
        <circle cx="212.31614749521535" cy="241.8242375566689" r="1.2316847419831902" fill="#83f2f1" opacity="0.8"></circle>
      
        <circle cx="209.96197942546888" cy="240.05400585702975" r="1.2827613302040846" fill="#ad376b" opacity="0.8"></circle>
      
        <circle cx="207.75890548629582" cy="237.89525494939977" r="0.3010650500189513" fill="#43b60f" opacity="0.8"></circle>
      
        <circle cx="205.76010222849672" cy="235.36221539237548" r="0.8420875614508987" fill="#563968" opacity="0.8"></circle>
      
        <circle cx="204.01725666634422" cy="232.4757629482756" r="1.0319168113172055" fill="#5b60b6" opacity="0.8"></circle>
      
        <circle cx="202.57977999001176" cy="229.26324920015912" r="0.6508962588384748" fill="#afb69d" opacity="0.8"></circle>
      
        <circle cx="201.49404147725346" cy="225.75824249880066" r="0.9713489899411798" fill="#8ecc61" opacity="0.8"></circle>
      
        <circle cx="200.8026325594592" cy="222.0001816920265" r="0.9279721981845797" fill="#d4b45e" opacity="0.8"></circle>
      
        <circle cx="200.54367069956075" cy="218.03394617140447" r="0.8995524332392961" fill="#e4420d" opacity="0.8"></circle>
      
        <circle cx="200.75015232582678" cy="213.90934681808614" r="0.7879569658078254" fill="#ded313" opacity="0.8"></circle>
      
        <circle cx="201.4493635406016" cy="209.6805434284129" r="0.3026481298264116" fill="#81e74f" opacity="0.8"></circle>
      
        <circle cx="202.66235669203112" cy="205.40539513899546" r="0.4930440957657993" fill="#aa2cc2" opacity="0.8"></circle>
      
        <circle cx="204.40350016651215" cy="201.14475123926795" r="0.49916359335184096" fill="#c2b4cb" opacity="0.8"></circle>
      
        <circle cx="206.68010793788085" cy="196.96169054666584" r="1.1281733964104206" fill="#f6d78f" opacity="0.8"></circle>
      
        <circle cx="209.4921545051578" cy="192.92071821611276" r="0.5087366087362171" fill="#b7ae40" opacity="0.8"></circle>
      
        <circle cx="212.83207987390858" cy="189.0869294529267" r="0.986784869292751" fill="#16bb9f" opacity="0.8"></circle>
      
        <circle cx="216.68468819772096" cy="185.52515008916492" r="0.9702035944908858" fill="#dc128c" opacity="0.8"></circle>
      
        <circle cx="221.02714260746708" cy="182.29906436154997" r="1.0441471591591835" fill="#48f10c" opacity="0.8"></circle>
      
        <circle cx="225.8290576290401" cy="179.470340489448" r="0.917831667419523" fill="#0cd4a2" opacity="0.8"></circle>
      
        <circle cx="231.05268943776355" cy="177.0977647901693" r="0.3786057279910892" fill="#efb718" opacity="0.8"></circle>
      
        <circle cx="236.65322303264546" cy="175.236395083752" r="1.178167802700773" fill="#6396cb" opacity="0.8"></circle>
      
        <circle cx="242.5791542492724" cy="173.93674402936296" r="0.4160855437628925" fill="#dbfc77" opacity="0.8"></circle>
      
        <circle cx="248.77276337968092" cy="173.2440028008861" r="1.0558709995355458" fill="#bad004" opacity="0.8"></circle>
      
        <circle cx="255.17067604417068" cy="173.19731515194707" r="0.8086012135725469" fill="#0b8286" opacity="0.8"></circle>
      
        <circle cx="261.7045058766935" cy="173.82911144369962" r="1.2367832536809147" fill="#85695a" opacity="0.8"></circle>
      
        <circle cx="268.3015725547551" cy="175.16451161669107" r="0.5375333225354553" fill="#f1f731" opacity="0.8"></circle>
      
        <circle cx="274.88568773876943" cy="177.2208053868454" r="1.1536378343123943" fill="#d6cf56" opacity="0.8"></circle>
      
        <circle cx="281.37800059594707" cy="180.00701714213963" r="1.0745055085979403" fill="#d34c5d" opacity="0.8"></circle>
      
        <circle cx="287.6978937807453" cy="183.52356211915506" r="0.4231559249572456" fill="#9dd928" opacity="0.8"></circle>
      
        <circle cx="293.7639200374098" cy="187.7619994567183" r="0.4142917245160788" fill="#ab6093" opacity="0.8"></circle>
      
        <circle cx="299.4947689889759" cy="192.70488666767454" r="1.2704863170627505" fill="#591114" opacity="0.8"></circle>
      
        <circle cx="304.8102531889079" cy="198.32573895070303" r="0.3144350714981556" fill="#2030c5" opacity="0.8"></circle>
      
        <circle cx="309.6323021428052" cy="204.589095594035" r="1.0233786371070892" fill="#84cea8" opacity="0.8"></circle>
      
        <circle cx="313.8859527634668" cy="211.45069451463948" r="0.7353072256781161" fill="#532b7c" opacity="0.8"></circle>
      
        <circle cx="317.5003246069269" cy="218.85775474311" r="0.5446650692727417" fill="#3a85c9" opacity="0.8"></circle>
      
        <circle cx="320.40956825229694" cy="226.74936541967625" r="0.6262700727209449" fill="#35a1d2" opacity="0.8"></circle>
      
        <circle cx="322.55377533540786" cy="235.05697862429372" r="0.720366651378572" fill="#f60030" opacity="0.8"></circle>
      
        <circle cx="323.8798390249081" cy="243.7050021374969" r="1.040311123430729" fill="#865e99" opacity="0.8"></circle>
      
        <circle cx="324.34225413777784" cy="252.61148703245902" r="0.5271852446720005" fill="#83ae99" opacity="0.8"></circle>
      
        <circle cx="323.90384662584665" cy="261.6889038460737" r="1.0225258615799249" fill="#4a4a56" opacity="0.8"></circle>
      
        <circle cx="322.53642282113015" cy="270.84499998106867" r="0.43330626511014997" fill="#cbd987" opacity="0.8"></circle>
      
        <circle cx="320.2213295995349" cy="279.9837299648906" r="0.9381869188044221" fill="#b3a562" opacity="0.8"></circle>
      
        <circle cx="316.9499175023028" cy="289.00624924641147" r="0.47587449052371084" fill="#92a637" opacity="0.8"></circle>
      
        <circle cx="312.72389983382396" cy="297.8119613596389" r="0.7706692437175662" fill="#02f3b9" opacity="0.8"></circle>
      
        <circle cx="307.5556018233269" cy="306.2996075349084" r="0.8882328294683248" fill="#3d5018" opacity="0.8"></circle>
      
        <circle cx="301.46809508556817" cy="314.3683872017914" r="1.0808634382672608" fill="#1f6f32" opacity="0.8"></circle>
      
        <circle cx="294.49521383017964" cy="321.9190973122943" r="1.1687635639216751" fill="#46162c" opacity="0.8"></circle>
      
        <circle cx="286.68145053811446" cy="328.8552780247869" r="0.4736483045388013" fill="#0745be" opacity="0.8"></circle>
      
        <circle cx="278.0817301333074" cy="335.0843520340318" r="0.6316739653237164" fill="#a36c29" opacity="0.8"></circle>
      
        <circle cx="268.76106301431594" cy="340.5187447148864" r="1.1942450548056514" fill="#50d655" opacity="0.8"></circle>
      
        <circle cx="258.7940786599853" cy="345.07697226944276" r="0.5296067213173956" fill="#b49c94" opacity="0.8"></circle>
      
        <circle cx="248.26444287048628" cy="348.68468523078764" r="0.7619608412031085" fill="#d6bb16" opacity="0.8"></circle>
      
        <circle cx="237.2641630356963" cy="351.2756549809337" r="0.6062203314621002" fill="#0535c9" opacity="0.8"></circle>
      
        <circle cx="225.89278712215156" cy="352.7926913839786" r="0.5801794116385282" fill="#048297" opacity="0.8"></circle>
      
        <circle cx="214.25650332324668" cy="353.1884802148661" r="1.2630933860316873" fill="#501361" opacity="0.8"></circle>
      
        <circle cx="202.46714851087467" cy="352.4263297744376" r="0.6846620719414205" fill="#20aa30" opacity="0.8"></circle>
      
        <circle cx="190.64113474669887" cy="350.4808169164827" r="0.5441139838192612" fill="#3e3812" opacity="0.8"></circle>
      
        <circle cx="178.89830414482753" cy="347.33832366456767" r="0.4827301194425672" fill="#586eae" opacity="0.8"></circle>
      
        <circle cx="167.36072331264927" cy="342.9974566565037" r="0.7392628648784012" fill="#635dce" opacity="0.8"></circle>
      
        <circle cx="156.15142942187154" cy="337.4693428121935" r="0.33141277842223643" fill="#d3e0dc" opacity="0.8"></circle>
      
        <circle cx="145.39314066723307" cy="330.77779586484485" r="0.8996666869614274" fill="#f67f73" opacity="0.8"></circle>
      
        <circle cx="135.20694444701752" cy="322.9593497137335" r="0.8004374315030873" fill="#cec9a2" opacity="0.8"></circle>
      
        <circle cx="125.71097703978349" cy="314.06315593551176" r="1.0847149027511478" fill="#cd268a" opacity="0.8"></circle>
      
        <circle cx="117.01910884935869" cy="304.15074421635296" r="0.7626388340257109" fill="#af04f1" opacity="0.8"></circle>
      
        <circle cx="109.2396494403593" cy="293.29564592425976" r="0.801317706424743" fill="#273b55" opacity="0.8"></circle>
      
        <circle cx="102.47408658602231" cy="281.5828825144021" r="0.7062172633130104" fill="#bfa2bb" opacity="0.8"></circle>
      
        <circle cx="96.81587339729623" cy="269.1083219348565" r="0.9706095025874675" fill="#7bed03" opacity="0.8"></circle>
      
        <circle cx="92.34927729681115" cy="255.97790765982165" r="0.3658212578855455" fill="#031684" opacity="0.8"></circle>
      
        <circle cx="89.14830414511002" cy="242.306766406633" r="0.4234118239954114" fill="#ede302" opacity="0.8"></circle>
      
        <circle cx="87.27571022248006" cy="228.21820197608685" r="0.4810292266309261" fill="#b18ed4" opacity="0.8"></circle>
      
        <circle cx="86.78211402263688" cy="213.8425839775119" r="0.977426107460633" fill="#efa3f3" opacity="0.8"></circle>
      
        <circle cx="87.70521893068207" cy="199.31614144599519" r="0.956239703996107" fill="#fe4807" opacity="0.8"></circle>
      
        <circle cx="90.06915684498438" cy="184.77967251506658" r="0.8672377045266331" fill="#6c7fe3" opacity="0.8"></circle>
      
        <circle cx="93.88396167017382" cy="170.37718236077" r="0.5418176615610719" fill="#a8c395" opacity="0.8"></circle>
      
        <circle cx="99.14518036689557" cy="156.25446257005473" r="0.5445910032838583" fill="#76d66b" opacity="0.8"></circle>
      
        <circle cx="105.83362790519519" cy="142.5576258966231" r="0.8914804704952985" fill="#c1a269" opacity="0.8"></circle>
      
        <circle cx="113.91529104540355" cy="129.43161104079388" r="0.9406313534826041" fill="#de164c" opacity="0.8"></circle>
      
        <circle cx="123.34138437717648" cy="117.01867261790255" r="0.743888639099896" fill="#415bb3" opacity="0.8"></circle>
      
        <circle cx="134.04856049880993" cy="105.45687185508032" r="0.3126132408622652" fill="#9473e2" opacity="0.8"></circle>
      
        <circle cx="145.95927463072263" cy="94.87858377324204" r="0.9471045375801623" fill="#8213e4" opacity="0.8"></circle>
      
        <circle cx="158.98230234527767" cy="85.40903666566479" r="0.4978755376767367" fill="#44e299" opacity="0.8"></circle>
      
        <circle cx="173.01340747650514" cy="77.16489957426089" r="0.7974971755873412" fill="#2b700b" opacity="0.8"></circle>
      
        <circle cx="187.93615566464652" cy="70.25293318878118" r="1.0670536085497588" fill="#0d83d1" opacity="0.8"></circle>
      
        <circle cx="203.62286740867773" cy="64.76871915373695" r="1.268524747993797" fill="#a31539" opacity="0.8"></circle>
      
        <circle cx="219.9357029618938" cy="60.79548216551538" r="0.7942858284339309" fill="#bdeb9e" opacity="0.8"></circle>
      
        <circle cx="236.72786992779567" cy="58.40301848239861" r="0.9856517300475389" fill="#c4623b" opacity="0.8"></circle>
      
        <circle cx="253.8449430119318" cy="57.646743559124246" r="0.5453697728924454" fill="#6da554" opacity="0.8"></circle>
      
        <circle cx="271.1262840755195" cy="58.566870462955194" r="0.7897356126457453" fill="#4bb182" opacity="0.8"></circle>
      
        <circle cx="288.4065494331938" cy="61.187729539311476" r="0.8069990218617022" fill="#bca7ee" opacity="0.8"></circle>
      
        <circle cx="305.5172702537948" cy="65.51723848263268" r="0.8441962752956897" fill="#1eb534" opacity="0.8"></circle>
      
        <circle cx="322.28849097237014" cy="71.5465305445" r="1.0494051947724075" fill="#fea0c0" opacity="0.8"></circle>
      
        <circle cx="338.550449814767" cy="79.24974708960872" r="0.6012231616303325" fill="#f5d2ef" opacity="0.8"></circle>
      
        <circle cx="354.13528488338216" cy="88.58399910556813" r="0.4915567524265498" fill="#1b8ca8" opacity="0.8"></circle>
      
        <circle cx="368.87874876227164" cy="99.48950060034221" r="0.8517802790272981" fill="#c92d07" opacity="0.8"></circle>
      
        <circle cx="382.6219142787868" cy="111.88987509791826" r="0.8416657296009362" fill="#85e61b" opacity="0.8"></circle>
      
        <circle cx="395.2128539124235" cy="125.69263468565751" r="1.008996783476323" fill="#72c5bf" opacity="0.8"></circle>
      
        <circle cx="406.5082753731339" cy="140.78982929348575" r="1.0169837867841125" fill="#d9a767" opacity="0.8"></circle>
      
        <circle cx="416.37509608260154" cy="157.05886211361337" r="0.6818622536491603" fill="#10333e" opacity="0.8"></circle>
      
        <circle cx="424.69193968280547" cy="174.3634653181056" r="0.6758090287446976" fill="#3813b4" opacity="0.8"></circle>
      
        <circle cx="431.35053826457636" cy="192.5548285184971" r="0.68385787489824" fill="#a28b12" opacity="0.8"></circle>
      
        <circle cx="436.25702475094255" cy="211.4728707547826" r="0.678411744022742" fill="#cd9a7d" opacity="0.8"></circle>
      
        <circle cx="439.3331007802324" cy="230.94764521808426" r="0.4286047839093953" fill="#2b1d8d" opacity="0.8"></circle>
      
        <circle cx="440.5170665046833" cy="250.8008644191091" r="0.8175093712750823" fill="#fbda0f" opacity="0.8"></circle>
      
        <circle cx="439.76469994257957" cy="270.84753212946777" r="0.5908007970545441" fill="#6d0c5c" opacity="0.8"></circle>
      
        <circle cx="437.049974884876" cy="290.897667160277" r="0.4738967716228217" fill="#b29c25" opacity="0.8"></circle>
      
        <circle cx="432.3656078485512" cy="310.75810291650856" r="0.527499440079555" fill="#d92cb1" opacity="0.8"></circle>
      
        <circle cx="425.72342617476863" cy="330.23434568926245" r="0.488965494511649" fill="#e0c561" opacity="0.8"></circle>
      
        <circle cx="417.1545510752566" cy="349.13247383303997" r="0.6081734613515437" fill="#c1872c" opacity="0.8"></circle>
      
        <circle cx="406.70939121886516" cy="367.2610593313508" r="0.7130875151604414" fill="#fb45da" opacity="0.8"></circle>
      
        <circle cx="394.4574443048027" cy="384.4330927899168" r="0.9933796156663448" fill="#701e57" opacity="0.8"></circle>
      
        <circle cx="380.486905971453" cy="400.4678926191028" r="0.9167537153232843" fill="#85c05b" opacity="0.8"></circle>
      
        <circle cx="364.9040873211995" cy="415.1929790807869" r="0.38274146332405506" fill="#b06915" opacity="0.8"></circle>
      
        <circle cx="347.83264428304375" cy="428.44589398270176" r="0.5682681002188474" fill="#aa4b43" opacity="0.8"></circle>
      
        <circle cx="329.4126239664806" cy="440.0759471063094" r="1.0835517106577754" fill="#72865e" opacity="0.8"></circle>
      
        <circle cx="309.7993350624307" cy="449.94587095158636" r="1.022470490494743" fill="#c5e4bb" opacity="0.8"></circle>
      
        <circle cx="289.16205120050324" cy="457.93336607075787" r="1.0083762830588967" fill="#10ce22" opacity="0.8"></circle>
      
        <circle cx="267.6825579571822" cy="463.9325201381632" r="0.35052417097613214" fill="#f209a6" opacity="0.8"></circle>
      
        <circle cx="245.55355590802867" cy="467.8550849581899" r="1.2152069331612438" fill="#b83266" opacity="0.8"></circle>
      
        <circle cx="222.97693371056036" cy="469" r="1.0216531711164862" fill="#a86db5" opacity="0.8"></circle>
      
        <circle cx="200.16192667591156" cy="469" r="0.3266627934761345" fill="#3ace6d" opacity="0.8"></circle>
      
        <circle cx="177.3231776207121" cy="466.5680513796424" r="0.32014481695368885" fill="#1ad030" opacity="0.8"></circle>
      
        <circle cx="154.678717970766" cy="461.6906268068184" r="1.1434610313270241" fill="#daab68" opacity="0.8"></circle>
      
        <circle cx="132.4478881018078" cy="454.59337042733426" r="1.001531362021342" fill="#27fa14" opacity="0.8"></circle>
      
        <circle cx="110.8492167377287" cy="445.3112309935167" r="0.9936977726873011" fill="#5c6f8c" opacity="0.8"></circle>
      
        <circle cx="90.09827987308495" cy="433.90075073666105" r="1.024853502586484" fill="#90d84f" opacity="0.8"></circle>
      
        <circle cx="70.40556013586439" cy="420.4398145136302" r="0.4361930293496698" fill="#1d2bc4" opacity="0.8"></circle>
      
        <circle cx="51.97432775187505" cy="405.0271861667228" r="0.7244444789364934" fill="#4cf753" opacity="0.8"></circle>
      
        <circle cx="34.998564309153636" cy="387.78183400160117" r="0.4188369863666594" fill="#d66e0e" opacity="0.8"></circle>
      
        <circle cx="19.660950346876348" cy="368.8420494034908" r="0.4025623842142522" fill="#0c5aca" opacity="0.8"></circle>
      
        <circle cx="6.130937408014631" cy="348.3643647107381" r="1.2691583951935173" fill="#8f241b" opacity="0.8"></circle>
      
        <circle cx="0" cy="326.52227852592705" r="0.32081412193365394" fill="#1ca646" opacity="0.8"></circle>
      
        <circle cx="0" cy="303.5047986472232" r="0.6756708188448102" fill="#031987" opacity="0.8"></circle>
      
        <circle cx="0" cy="279.51481472577376" r="1.0664246142376215" fill="#1ed5a9" opacity="0.8"></circle>
      
        <circle cx="0" cy="254.76731457898182" r="0.5271000703331084" fill="#0bbe1b" opacity="0.8"></circle>
      
        <circle cx="0" cy="229.48745979495664" r="0.8423800060525537" fill="#9bac79" opacity="0.8"></circle>
      
        <circle cx="0" cy="203.90853783236687" r="0.3925902968738228" fill="#d6c72e" opacity="0.8"></circle>
      
        <circle cx="0" cy="178.26980923526907" r="1.274040930857882" fill="#c44e88" opacity="0.8"></circle>
      
        <circle cx="234.5" cy="234.5" r="0.9788654380943627" fill="#d6a4fd" opacity="0.8"></circle>
      
        <circle cx="232.711274490376" cy="234.32721074510152" r="0.8189178686123342" fill="#470f9a" opacity="0.8"></circle>
      
        <circle cx="230.97235224991653" cy="233.8120453118971" r="0.47684983275830745" fill="#919216" opacity="0.8"></circle>
      
        <circle cx="229.33226713269173" cy="232.96406618286042" r="0.5542440241668374" fill="#a258c7" opacity="0.8"></circle>
      
        <circle cx="227.83852414569517" cy="231.7990630054145" r="0.9765825508628041" fill="#3d7393" opacity="0.8"></circle>
      
        <circle cx="226.53635986413641" cy="230.33883277539093" r="1.2193865600973368" fill="#b2034a" opacity="0.8"></circle>
      
        <circle cx="225.4680323216193" cy="228.61087590802748" r="1.2915211924817414" fill="#175e37" opacity="0.8"></circle>
      
        <circle cx="224.672149651344" cy="226.64801195757212" r="0.6246588420588524" fill="#3e85f3" opacity="0.8"></circle>
      
        <circle cx="224.18304629205753" cy="224.48791974597688" r="0.47965450952760874" fill="#67f3a1" opacity="0.8"></circle>
      
        <circle cx="224.03021500436648" cy="222.17260760535186" r="0.8199900325387717" fill="#e3b9af" opacity="0.8"></circle>
      
        <circle cx="224.23780227566488" cy="219.74782031679916" r="0.33490346833132206" fill="#d498dd" opacity="0.8"></circle>
      
        <circle cx="224.82417393289012" cy="217.26239012969097" r="0.8314856234472245" fill="#832f71" opacity="0.8"></circle>
      
        <circle cx="225.80155694022915" cy="214.7675399609733" r="1.0604943860787899" fill="#fef7aa" opacity="0.8"></circle>
      
        <circle cx="227.1757624433311" cy="212.31614749521535" r="0.48826840561814605" fill="#70b0e3" opacity="0.8"></circle>
      
        <circle cx="228.94599414297025" cy="209.96197942546888" r="0.8424284127075226" fill="#6ea4fa" opacity="0.8"></circle>
      
        <circle cx="231.10474505060023" cy="207.75890548629582" r="1.1756291889585555" fill="#8d8e77" opacity="0.8"></circle>
      
        <circle cx="233.63778460762452" cy="205.76010222849672" r="1.267150271870196" fill="#720aa2" opacity="0.8"></circle>
      
        <circle cx="236.5242370517244" cy="204.01725666634422" r="0.9715619817841799" fill="#3d4f7d" opacity="0.8"></circle>
      
        <circle cx="239.73675079984088" cy="202.57977999001176" r="0.8897557460702956" fill="#5efcd1" opacity="0.8"></circle>
      
        <circle cx="243.24175750119934" cy="201.49404147725343" r="1.2108898320700974" fill="#450616" opacity="0.8"></circle>
      
        <circle cx="246.9998183079735" cy="200.8026325594592" r="0.7208072528708727" fill="#dc8574" opacity="0.8"></circle>
      
        <circle cx="250.96605382859553" cy="200.54367069956075" r="0.5423374967183918" fill="#1f35b5" opacity="0.8"></circle>
      
        <circle cx="255.09065318191384" cy="200.75015232582678" r="0.4265444483142346" fill="#5a950d" opacity="0.8"></circle>
      
        <circle cx="259.3194565715871" cy="201.4493635406016" r="0.4076963413506746" fill="#f4ea4e" opacity="0.8"></circle>
      
        <circle cx="263.59460486100454" cy="202.6623566920311" r="0.3337786779273301" fill="#79cddb" opacity="0.8"></circle>
      
        <circle cx="267.855248760732" cy="204.40350016651212" r="0.5513550673611463" fill="#762b37" opacity="0.8"></circle>
      
        <circle cx="272.03830945333414" cy="206.68010793788085" r="0.40989532573148607" fill="#731c27" opacity="0.8"></circle>
      
        <circle cx="276.07928178388727" cy="209.4921545051578" r="0.9409340684767813" fill="#15933f" opacity="0.8"></circle>
      
        <circle cx="279.9130705470733" cy="212.83207987390858" r="1.1554195654578507" fill="#95999b" opacity="0.8"></circle>
      
        <circle cx="283.4748499108351" cy="216.68468819772096" r="0.47161535355262457" fill="#86c825" opacity="0.8"></circle>
      
        <circle cx="286.70093563845006" cy="221.02714260746708" r="0.6268977263942361" fill="#df65a2" opacity="0.8"></circle>
      
        <circle cx="289.529659510552" cy="225.8290576290401" r="0.9269320447463543" fill="#ab994e" opacity="0.8"></circle>
      
        <circle cx="291.9022352098307" cy="231.05268943776355" r="0.7259138922207058" fill="#229435" opacity="0.8"></circle>
      
        <circle cx="293.763604916248" cy="236.65322303264546" r="0.5117184586822987" fill="#44fb8d" opacity="0.8"></circle>
      
        <circle cx="295.06325597063704" cy="242.5791542492724" r="0.993274797173217" fill="#d4f5ed" opacity="0.8"></circle>
      
        <circle cx="295.7559971991139" cy="248.7727633796809" r="0.42895778589881955" fill="#3b7075" opacity="0.8"></circle>
      
        <circle cx="295.80268484805293" cy="255.17067604417065" r="0.34938239348120986" fill="#958321" opacity="0.8"></circle>
      
        <circle cx="295.1708885563004" cy="261.7045058766934" r="0.8793252401053906" fill="#107c83" opacity="0.8"></circle>
      
        <circle cx="293.8354883833089" cy="268.3015725547551" r="0.932010028930381" fill="#f63f51" opacity="0.8"></circle>
      
        <circle cx="291.77919461315463" cy="274.88568773876943" r="0.5128427575808019" fill="#96baa1" opacity="0.8"></circle>
      
        <circle cx="288.9929828578604" cy="281.37800059594707" r="0.617811437882483" fill="#512a45" opacity="0.8"></circle>
      
        <circle cx="285.4764378808449" cy="287.6978937807453" r="1.1593281633220613" fill="#1d4472" opacity="0.8"></circle>
      
        <circle cx="281.23800054328166" cy="293.7639200374098" r="0.4795675894245505" fill="#97b475" opacity="0.8"></circle>
      
        <circle cx="276.29511333232546" cy="299.4947689889759" r="0.9732575569767505" fill="#cf0eee" opacity="0.8"></circle>
      
        <circle cx="270.674261049297" cy="304.8102531889079" r="0.7310226819943637" fill="#e3f8e9" opacity="0.8"></circle>
      
        <circle cx="264.410904405965" cy="309.6323021428052" r="0.5005700094159693" fill="#839de5" opacity="0.8"></circle>
      
        <circle cx="257.5493054853605" cy="313.8859527634668" r="0.767273504473269" fill="#6866d5" opacity="0.8"></circle>
      
        <circle cx="250.14224525689" cy="317.5003246069269" r="1.248545219609514" fill="#a4cfdb" opacity="0.8"></circle>
      
        <circle cx="242.25063458032375" cy="320.40956825229694" r="0.47759056761860846" fill="#c6764a" opacity="0.8"></circle>
      
        <circle cx="233.94302137570628" cy="322.55377533540786" r="0.8682775359600783" fill="#c2b751" opacity="0.8"></circle>
      
        <circle cx="225.2949978625031" cy="323.8798390249081" r="0.7321802514605225" fill="#0e4d1a" opacity="0.8"></circle>
      
        <circle cx="216.3885129675411" cy="324.34225413777784" r="1.0678223419934512" fill="#f02753" opacity="0.8"></circle>
      
        <circle cx="207.31109615392626" cy="323.9038466258466" r="0.7336142893880606" fill="#939ca2" opacity="0.8"></circle>
      
        <circle cx="198.15500001893136" cy="322.53642282113015" r="0.43475162675604223" fill="#ac91dc" opacity="0.8"></circle>
      
        <circle cx="189.0162700351095" cy="320.22132959953495" r="0.3992884584702551" fill="#963992" opacity="0.8"></circle>
      
        <circle cx="179.99375075358842" cy="316.94991750230275" r="0.3511400138493627" fill="#034ef6" opacity="0.8"></circle>
      
        <circle cx="171.18803864036107" cy="312.7238998338239" r="0.5219361288007349" fill="#4d4dc5" opacity="0.8"></circle>
      
        <circle cx="162.70039246509168" cy="307.55560182332704" r="1.1213298900518567" fill="#7bc8b0" opacity="0.8"></circle>
      
        <circle cx="154.63161279820855" cy="301.4680950855681" r="1.199872033391148" fill="#8e1ef0" opacity="0.8"></circle>
      
        <circle cx="147.08090268770567" cy="294.49521383017964" r="0.8766955628059805" fill="#737e99" opacity="0.8"></circle>
      
        <circle cx="140.14472197521312" cy="286.6814505381146" r="0.8327309796120972" fill="#6ae8ab" opacity="0.8"></circle>
      
        <circle cx="133.91564796596822" cy="278.0817301333074" r="0.9293378977570683" fill="#696a9c" opacity="0.8"></circle>
      
        <circle cx="128.4812552851136" cy="268.7610630143159" r="0.3809135744348168" fill="#3d0f17" opacity="0.8"></circle>
      
        <circle cx="123.92302773055725" cy="258.7940786599854" r="0.49426505267620086" fill="#7b497b" opacity="0.8"></circle>
      
        <circle cx="120.31531476921235" cy="248.2644428704864" r="1.2985067178495229" fill="#678f38" opacity="0.8"></circle>
      
        <circle cx="117.72434501906628" cy="237.2641630356963" r="0.3131249465048313" fill="#2e761b" opacity="0.8"></circle>
      
        <circle cx="116.20730861602142" cy="225.89278712215156" r="0.6034256452228874" fill="#e9426d" opacity="0.8"></circle>
      
        <circle cx="115.81151978513385" cy="214.2565033232469" r="0.6740171403624118" fill="#8eba7e" opacity="0.8"></circle>
      
        <circle cx="116.57367022556248" cy="202.46714851087447" r="0.719410924660042" fill="#920130" opacity="0.8"></circle>
      
        <circle cx="118.51918308351729" cy="190.64113474669887" r="0.34222965566441416" fill="#305164" opacity="0.8"></circle>
      
        <circle cx="121.66167633543225" cy="178.89830414482776" r="0.35631827493198215" fill="#878ea3" opacity="0.8"></circle>
      
        <circle cx="126.00254334349646" cy="167.3607233126491" r="0.43027791096828877" fill="#8380c9" opacity="0.8"></circle>
      
        <circle cx="131.53065718780653" cy="156.15142942187154" r="0.40796018224209546" fill="#52e795" opacity="0.8"></circle>
      
        <circle cx="138.22220413515515" cy="145.39314066723307" r="1.1194855856709183" fill="#19f7ec" opacity="0.8"></circle>
      
        <circle cx="146.0406502862665" cy="135.20694444701752" r="1.2781726100482047" fill="#716221" opacity="0.8"></circle>
      
        <circle cx="154.93684406448844" cy="125.71097703978334" r="0.9533333440311254" fill="#591ce9" opacity="0.8"></circle>
      
        <circle cx="164.84925578364704" cy="117.0191088493587" r="1.2796298849396408" fill="#5e6b6d" opacity="0.8"></circle>
      
        <circle cx="175.70435407574047" cy="109.23964944035922" r="1.0391570652835072" fill="#40efc8" opacity="0.8"></circle>
      
        <circle cx="187.4171174855981" cy="102.47408658602225" r="0.4958308194298297" fill="#de77c6" opacity="0.8"></circle>
      
        <circle cx="199.89167806514322" cy="96.81587339729631" r="0.32387176104821264" fill="#df3253" opacity="0.8"></circle>
      
        <circle cx="213.02209234017832" cy="92.34927729681115" r="0.4404750875663012" fill="#e5b56e" opacity="0.8"></circle>
      
        <circle cx="226.693233593367" cy="89.14830414511002" r="0.44980727108195423" fill="#f357f0" opacity="0.8"></circle>
      
        <circle cx="240.78179802391313" cy="87.27571022248006" r="1.2385262827854604" fill="#b95a61" opacity="0.8"></circle>
      
        <circle cx="255.15741602248784" cy="86.78211402263682" r="0.419106559548527" fill="#2bcbb3" opacity="0.8"></circle>
      
        <circle cx="269.6838585540048" cy="87.70521893068207" r="0.5468369652051479" fill="#e85a1b" opacity="0.8"></circle>
      
        <circle cx="284.2203274849334" cy="90.06915684498438" r="0.9565383283887059" fill="#5d538f" opacity="0.8"></circle>
      
        <circle cx="298.62281763923" cy="93.88396167017382" r="0.9097795485984534" fill="#8bcc17" opacity="0.8"></circle>
      
        <circle cx="312.7455374299453" cy="99.14518036689557" r="0.6989859896246344" fill="#adea97" opacity="0.8"></circle>
      
        <circle cx="326.4423741033769" cy="105.83362790519519" r="1.0234441961627454" fill="#6d1af8" opacity="0.8"></circle>
      
        <circle cx="339.5683889592061" cy="113.91529104540355" r="1.0444106661714614" fill="#900fe7" opacity="0.8"></circle>
      
        <circle cx="351.98132738209745" cy="123.34138437717648" r="1.0667951728217304" fill="#449b12" opacity="0.8"></circle>
      
        <circle cx="363.54312814491965" cy="134.04856049880993" r="0.933757705334574" fill="#79ce84" opacity="0.8"></circle>
      
        <circle cx="374.1214162267579" cy="145.95927463072263" r="0.4832417577970773" fill="#fc3835" opacity="0.8"></circle>
      
        <circle cx="383.59096333433524" cy="158.98230234527767" r="0.3014321345370263" fill="#7c60c3" opacity="0.8"></circle>
      
        <circle cx="391.83510042573914" cy="173.01340747650514" r="0.5647123639471829" fill="#722515" opacity="0.8"></circle>
      
        <circle cx="398.7470668112188" cy="187.9361556646465" r="0.5010759164113552" fill="#3d2b27" opacity="0.8"></circle>
      
        <circle cx="404.2312808462631" cy="203.62286740867773" r="0.7737275948282332" fill="#af596f" opacity="0.8"></circle>
      
        <circle cx="408.2045178344846" cy="219.9357029618938" r="1.1108284620102495" fill="#dc4898" opacity="0.8"></circle>
      
        <circle cx="410.5969815176014" cy="236.72786992779567" r="0.34004667117260395" fill="#299cb4" opacity="0.8"></circle>
      
        <circle cx="411.3532564408757" cy="253.84494301193178" r="1.1331011650152505" fill="#d32fc2" opacity="0.8"></circle>
      
        <circle cx="410.4331295370448" cy="271.12628407551944" r="0.49228875963017343" fill="#ba1bbc" opacity="0.8"></circle>
      
        <circle cx="407.8122704606885" cy="288.4065494331938" r="0.5683957167901099" fill="#684b60" opacity="0.8"></circle>
      
        <circle cx="403.4827615173673" cy="305.5172702537948" r="1.268970173271373" fill="#61ee77" opacity="0.8"></circle>
      
        <circle cx="397.4534694555" cy="322.28849097237014" r="0.7336852068081499" fill="#d2d5f1" opacity="0.8"></circle>
      
        <circle cx="389.7502529103913" cy="338.5504498147669" r="0.7307403303682805" fill="#533fce" opacity="0.8"></circle>
      
        <circle cx="380.4160008944319" cy="354.13528488338216" r="0.3467892992310226" fill="#722d58" opacity="0.8"></circle>
      
        <circle cx="369.51049939965776" cy="368.8787487622716" r="0.6248268207535148" fill="#87630d" opacity="0.8"></circle>
      
        <circle cx="357.1101249020818" cy="382.6219142787868" r="0.316953193815425" fill="#2fe454" opacity="0.8"></circle>
      
        <circle cx="343.3073653143425" cy="395.2128539124235" r="0.94722921513021" fill="#107e03" opacity="0.8"></circle>
      
        <circle cx="328.21017070651425" cy="406.5082753731339" r="1.2973433574195952" fill="#c2eb68" opacity="0.8"></circle>
      
        <circle cx="311.9411378863866" cy="416.37509608260154" r="0.5247383838985116" fill="#3fc0d7" opacity="0.8"></circle>
      
        <circle cx="294.63653468189443" cy="424.69193968280547" r="0.37890685158781706" fill="#2abcff" opacity="0.8"></circle>
      
        <circle cx="276.44517148150294" cy="431.35053826457636" r="0.8072681242600084" fill="#b10ee5" opacity="0.8"></circle>
      
        <circle cx="257.5271292452174" cy="436.25702475094255" r="0.9110704077873379" fill="#e3e0e3" opacity="0.8"></circle>
      
        <circle cx="238.05235478191574" cy="439.3331007802324" r="0.3677625914104283" fill="#8d11ea" opacity="0.8"></circle>
      
        <circle cx="218.19913558089092" cy="440.5170665046833" r="0.35438576405867933" fill="#78cd62" opacity="0.8"></circle>
      
        <circle cx="198.15246787053223" cy="439.76469994257957" r="0.4762387480121106" fill="#10d487" opacity="0.8"></circle>
      
        <circle cx="178.10233283972298" cy="437.049974884876" r="0.6766147973947227" fill="#ca1237" opacity="0.8"></circle>
      
        <circle cx="158.24189708349144" cy="432.3656078485512" r="0.9294134315103293" fill="#180493" opacity="0.8"></circle>
      
        <circle cx="138.76565431073755" cy="425.72342617476863" r="0.7120179226156325" fill="#37eb0a" opacity="0.8"></circle>
      
        <circle cx="119.86752616696006" cy="417.1545510752566" r="0.301576276961714" fill="#ca17af" opacity="0.8"></circle>
      
        <circle cx="101.73894066864926" cy="406.70939121886516" r="0.3677597685717046" fill="#c2a1f0" opacity="0.8"></circle>
      
        <circle cx="84.5669072100832" cy="394.4574443048027" r="1.2241647920571268" fill="#88233b" opacity="0.8"></circle>
      
        <circle cx="68.5321073808972" cy="380.486905971453" r="0.9571748456917704" fill="#6b9e9c" opacity="0.8"></circle>
      
        <circle cx="53.80702091921313" cy="364.90408732119954" r="0.3577824900392443" fill="#ae628e" opacity="0.8"></circle>
      
        <circle cx="40.55410601729824" cy="347.83264428304375" r="1.008679429255426" fill="#1ed68a" opacity="0.8"></circle>
      
        <circle cx="28.9240528936906" cy="329.4126239664806" r="0.32206731494516133" fill="#0a664c" opacity="0.8"></circle>
      
        <circle cx="19.054129048413643" cy="309.7993350624307" r="0.8343602790962905" fill="#73c4bb" opacity="0.8"></circle>
      
        <circle cx="11.066633929242101" cy="289.16205120050324" r="1.0349990610964597" fill="#97ed6d" opacity="0.8"></circle>
      
        <circle cx="5.067479861836773" cy="267.68255795718227" r="1.1187255091033876" fill="#2fb257" opacity="0.8"></circle>
      
        <circle cx="1.1449150418101226" cy="245.5535559080287" r="1.0014265363104642" fill="#3a7ab0" opacity="0.8"></circle>
      
        <circle cx="0" cy="222.9769337105604" r="0.3743158240802586" fill="#240247" opacity="0.8"></circle>
      
        <circle cx="0" cy="200.16192667591156" r="0.3991669655777514" fill="#a9fe5e" opacity="0.8"></circle>
      
        <circle cx="2.4319486203575877" cy="177.3231776207121" r="1.2889084280002863" fill="#c02185" opacity="0.8"></circle>
      
        <circle cx="7.309373193181756" cy="154.6787179707656" r="1.0118218522518874" fill="#a21fd4" opacity="0.8"></circle>
      
        <circle cx="14.406629572665707" cy="132.4478881018078" r="0.7544525572564453" fill="#f36ef4" opacity="0.8"></circle>
      
        <circle cx="23.688769006483113" cy="110.84921673772908" r="0.41747651267796754" fill="#1b3a50" opacity="0.8"></circle>
      
        <circle cx="35.099249263338635" cy="90.09827987308535" r="0.8427275670226664" fill="#b03f74" opacity="0.8"></circle>
      
        <circle cx="48.56018548636979" cy="70.40556013586439" r="0.6939912226051093" fill="#9e6edd" opacity="0.8"></circle>
      
        <circle cx="63.97281383327717" cy="51.97432775187505" r="0.7667230022605509" fill="#37f7a7" opacity="0.8"></circle>
      
        <circle cx="81.2181659983992" cy="34.99856430915338" r="0.7187320990022272" fill="#77302c" opacity="0.8"></circle>
      
        <circle cx="100.15795059650915" cy="19.660950346876348" r="1.2359148447401822" fill="#4d88e1" opacity="0.8"></circle>
      
        <circle cx="120.6356352892615" cy="6.130937408014859" r="1.1043050351552666" fill="#d5743e" opacity="0.8"></circle>
      
        <circle cx="142.47772147407292" cy="0" r="1.1682978895958513" fill="#1b94c6" opacity="0.8"></circle>
      
        <circle cx="165.49520135277677" cy="0" r="1.0453539473935962" fill="#0a48fc" opacity="0.8"></circle>
      
        <circle cx="189.48518527422667" cy="0" r="1.0469427252653987" fill="#91e884" opacity="0.8"></circle>
      
        <circle cx="214.23268542101815" cy="0" r="0.36994313513860105" fill="#b16737" opacity="0.8"></circle>
      
        <circle cx="239.51254020504336" cy="0" r="0.6955580070614815" fill="#8a2da7" opacity="0.8"></circle>
      
        <circle cx="265.0914621676331" cy="0" r="1.1074235990643502" fill="#af109b" opacity="0.8"></circle>
      
        <circle cx="290.7301907647305" cy="0" r="0.4245143141131848" fill="#572aa5" opacity="0.8"></circle>
      
        <circle cx="234.5" cy="234.5" r="0.8426908950321377" fill="#2f41d7" opacity="0.8"></circle>
      
        <circle cx="234.67278925489848" cy="232.711274490376" r="1.2094678389374167" fill="#889694" opacity="0.8"></circle>
      
        <circle cx="235.1879546881029" cy="230.97235224991653" r="0.8860344541724772" fill="#153db3" opacity="0.8"></circle>
      
        <circle cx="236.03593381713958" cy="229.33226713269173" r="0.7600940947420896" fill="#9bd3b9" opacity="0.8"></circle>
      
        <circle cx="237.2009369945855" cy="227.83852414569517" r="1.1789524184539915" fill="#313901" opacity="0.8"></circle>
      
        <circle cx="238.66116722460907" cy="226.53635986413641" r="0.577019277215004" fill="#a54e88" opacity="0.8"></circle>
      
        <circle cx="240.38912409197252" cy="225.4680323216193" r="0.6596524491440505" fill="#66e019" opacity="0.8"></circle>
      
        <circle cx="242.35198804242788" cy="224.672149651344" r="0.4674513481557369" fill="#075c78" opacity="0.8"></circle>
      
        <circle cx="244.51208025402312" cy="224.18304629205753" r="0.7756981232203544" fill="#f42277" opacity="0.8"></circle>
      
        <circle cx="246.82739239464814" cy="224.03021500436648" r="1.0751394456718117" fill="#76e6bc" opacity="0.8"></circle>
      
        <circle cx="249.25217968320084" cy="224.23780227566488" r="0.33442547656595706" fill="#399e6e" opacity="0.8"></circle>
      
        <circle cx="251.73760987030903" cy="224.82417393289012" r="1.1804867553990335" fill="#59e319" opacity="0.8"></circle>
      
        <circle cx="254.2324600390267" cy="225.80155694022915" r="1.0266960269771517" fill="#4a1fc7" opacity="0.8"></circle>
      
        <circle cx="256.6838525047847" cy="227.1757624433311" r="1.1889230752829463" fill="#e89374" opacity="0.8"></circle>
      
        <circle cx="259.0380205745311" cy="228.94599414297025" r="1.1269025238696486" fill="#e0a859" opacity="0.8"></circle>
      
        <circle cx="261.2410945137042" cy="231.10474505060023" r="0.417231301497668" fill="#bc89c9" opacity="0.8"></circle>
      
        <circle cx="263.2398977715033" cy="233.63778460762452" r="0.8572704710066319" fill="#d6cfbd" opacity="0.8"></circle>
      
        <circle cx="264.9827433336558" cy="236.5242370517244" r="0.8469511335249991" fill="#bbaa92" opacity="0.8"></circle>
      
        <circle cx="266.4202200099882" cy="239.73675079984088" r="0.9687665889039636" fill="#c00830" opacity="0.8"></circle>
      
        <circle cx="267.50595852274654" cy="243.24175750119934" r="0.3743938258383423" fill="#94557c" opacity="0.8"></circle>
      
        <circle cx="268.1973674405408" cy="246.9998183079735" r="0.423881310923025" fill="#82e251" opacity="0.8"></circle>
      
        <circle cx="268.4563293004393" cy="250.96605382859553" r="0.6464535290841014" fill="#290733" opacity="0.8"></circle>
      
        <circle cx="268.2498476741732" cy="255.09065318191384" r="0.728090216126293" fill="#ad2c1b" opacity="0.8"></circle>
      
        <circle cx="267.5506364593984" cy="259.3194565715871" r="0.6465438385028393" fill="#e64b00" opacity="0.8"></circle>
      
        <circle cx="266.3376433079689" cy="263.59460486100454" r="1.1459210433065892" fill="#c2b596" opacity="0.8"></circle>
      
        <circle cx="264.5964998334879" cy="267.855248760732" r="0.7482316733337939" fill="#a8dc37" opacity="0.8"></circle>
      
        <circle cx="262.31989206211915" cy="272.03830945333414" r="0.4810343232937157" fill="#2c402c" opacity="0.8"></circle>
      
        <circle cx="259.5078454948422" cy="276.07928178388727" r="0.32186143142171203" fill="#e682a6" opacity="0.8"></circle>
      
        <circle cx="256.1679201260914" cy="279.9130705470733" r="0.9886381711810828" fill="#a256f8" opacity="0.8"></circle>
      
        <circle cx="252.31531180227904" cy="283.4748499108351" r="0.8809219812508673" fill="#1330e2" opacity="0.8"></circle>
      
        <circle cx="247.97285739253292" cy="286.70093563845006" r="0.31946075772866606" fill="#19610b" opacity="0.8"></circle>
      
        <circle cx="243.1709423709599" cy="289.529659510552" r="0.477156928461045" fill="#8ecc00" opacity="0.8"></circle>
      
        <circle cx="237.94731056223645" cy="291.9022352098307" r="0.49423319911584257" fill="#710d7c" opacity="0.8"></circle>
      
        <circle cx="232.34677696735454" cy="293.763604916248" r="0.5170818620361388" fill="#1b63bf" opacity="0.8"></circle>
      
        <circle cx="226.42084575072764" cy="295.06325597063704" r="0.3381404273211956" fill="#5d772e" opacity="0.8"></circle>
      
        <circle cx="220.2272366203191" cy="295.7559971991139" r="0.5366202615667135" fill="#88a6e3" opacity="0.8"></circle>
      
        <circle cx="213.8293239558294" cy="295.80268484805293" r="1.0225019405595959" fill="#930c11" opacity="0.8"></circle>
      
        <circle cx="207.29549412330655" cy="295.1708885563004" r="0.3211728671565652" fill="#95ccd9" opacity="0.8"></circle>
      
        <circle cx="200.69842744524482" cy="293.8354883833089" r="0.6860442971345038" fill="#facc0c" opacity="0.8"></circle>
      
        <circle cx="194.11431226123057" cy="291.77919461315463" r="0.7396133115515113" fill="#2d4cf6" opacity="0.8"></circle>
      
        <circle cx="187.62199940405293" cy="288.9929828578604" r="1.1936528069898487" fill="#232b4c" opacity="0.8"></circle>
      
        <circle cx="181.30210621925468" cy="285.4764378808449" r="0.7275716182310135" fill="#e11b9f" opacity="0.8"></circle>
      
        <circle cx="175.23607996259022" cy="281.23800054328166" r="0.7915671159978956" fill="#60e3b5" opacity="0.8"></circle>
      
        <circle cx="169.50523101102414" cy="276.2951133323255" r="0.8323351619299502" fill="#5e80ab" opacity="0.8"></circle>
      
        <circle cx="164.18974681109205" cy="270.67426104929694" r="0.8080797381233424" fill="#702d66" opacity="0.8"></circle>
      
        <circle cx="159.3676978571948" cy="264.410904405965" r="0.9078674690797925" fill="#ad6bc1" opacity="0.8"></circle>
      
        <circle cx="155.11404723653322" cy="257.54930548536055" r="0.4395100466907024" fill="#d7f963" opacity="0.8"></circle>
      
        <circle cx="151.49967539307312" cy="250.14224525689" r="0.575472722016275" fill="#9e9e8f" opacity="0.8"></circle>
      
        <circle cx="148.59043174770306" cy="242.2506345803237" r="0.700467625586316" fill="#5f45cf" opacity="0.8"></circle>
      
        <circle cx="146.44622466459214" cy="233.94302137570628" r="0.5505166882183403" fill="#ccca9b" opacity="0.8"></circle>
      
        <circle cx="145.1201609750919" cy="225.294997862503" r="1.004542142804712" fill="#bda658" opacity="0.8"></circle>
      
        <circle cx="144.65774586222216" cy="216.38851296754092" r="0.6045496770646424" fill="#167257" opacity="0.8"></circle>
      
        <circle cx="145.09615337415335" cy="207.31109615392643" r="0.7140100001823158" fill="#bafa38" opacity="0.8"></circle>
      
        <circle cx="146.46357717886988" cy="198.1550000189314" r="0.9186543558724225" fill="#00a5ba" opacity="0.8"></circle>
      
        <circle cx="148.77867040046513" cy="189.01627003510936" r="0.31407212996855377" fill="#aa9700" opacity="0.8"></circle>
      
        <circle cx="152.05008249769713" cy="179.99375075358859" r="1.211071308190003" fill="#132c55" opacity="0.8"></circle>
      
        <circle cx="156.27610016617598" cy="171.18803864036119" r="1.150534311728552" fill="#a4c591" opacity="0.8"></circle>
      
        <circle cx="161.44439817667313" cy="162.70039246509157" r="0.9549462189432234" fill="#8a7cd1" opacity="0.8"></circle>
      
        <circle cx="167.53190491443178" cy="154.63161279820866" r="1.2777143551036716" fill="#988d6c" opacity="0.8"></circle>
      
        <circle cx="174.50478616982036" cy="147.0809026877057" r="1.0037362034898252" fill="#8e3498" opacity="0.8"></circle>
      
        <circle cx="182.3185494618856" cy="140.14472197521303" r="0.46703066951595246" fill="#f033c0" opacity="0.8"></circle>
      
        <circle cx="190.91826986669258" cy="133.91564796596825" r="1.0685726517811418" fill="#1a6d48" opacity="0.8"></circle>
      
        <circle cx="200.23893698568395" cy="128.48125528511366" r="0.9250043455511332" fill="#ac0329" opacity="0.8"></circle>
      
        <circle cx="210.20592134001478" cy="123.92302773055721" r="1.1664111762773246" fill="#31e669" opacity="0.8"></circle>
      
        <circle cx="220.7355571295138" cy="120.31531476921232" r="1.0126808187458665" fill="#74c712" opacity="0.8"></circle>
      
        <circle cx="231.73583696430367" cy="117.72434501906628" r="1.0798947850242258" fill="#cecb54" opacity="0.8"></circle>
      
        <circle cx="243.10721287784844" cy="116.20730861602142" r="0.6350832290016115" fill="#cd966c" opacity="0.8"></circle>
      
        <circle cx="254.7434966767533" cy="115.81151978513388" r="1.1221637716051192" fill="#19a9fa" opacity="0.8"></circle>
      
        <circle cx="266.53285148912533" cy="116.57367022556244" r="0.9939607744570822" fill="#f6715b" opacity="0.8"></circle>
      
        <circle cx="278.35886525330113" cy="118.51918308351729" r="0.42776449625380336" fill="#0c9278" opacity="0.8"></circle>
      
        <circle cx="290.10169585517247" cy="121.66167633543233" r="0.9593159947078675" fill="#a5b9b4" opacity="0.8"></circle>
      
        <circle cx="301.63927668735073" cy="126.00254334349633" r="0.8521456929855049" fill="#dec414" opacity="0.8"></circle>
      
        <circle cx="312.8485705781285" cy="131.53065718780653" r="1.2629388849716634" fill="#53af36" opacity="0.8"></circle>
      
        <circle cx="323.60685933276693" cy="138.22220413515515" r="1.1143231656868011" fill="#ede7f3" opacity="0.8"></circle>
      
        <circle cx="333.7930555529825" cy="146.0406502862665" r="0.6001818435732276" fill="#44d937" opacity="0.8"></circle>
      
        <circle cx="343.28902296021647" cy="154.93684406448824" r="0.3885109978262335" fill="#6928c4" opacity="0.8"></circle>
      
        <circle cx="351.9808911506413" cy="164.84925578364704" r="1.2598339817021043" fill="#d8e700" opacity="0.8"></circle>
      
        <circle cx="359.76035055964064" cy="175.70435407574024" r="0.8763320955447853" fill="#7868be" opacity="0.8"></circle>
      
        <circle cx="366.5259134139777" cy="187.41711748559786" r="1.09954156675376" fill="#f09d6a" opacity="0.8"></circle>
      
        <circle cx="372.18412660270377" cy="199.89167806514345" r="1.1703601770102978" fill="#b7946a" opacity="0.8"></circle>
      
        <circle cx="376.6507227031889" cy="213.02209234017832" r="0.9033737130928785" fill="#d46ffc" opacity="0.8"></circle>
      
        <circle cx="379.85169585488995" cy="226.69323359336698" r="0.9594928656704724" fill="#d0bfa3" opacity="0.8"></circle>
      
        <circle cx="381.72428977751997" cy="240.78179802391313" r="0.7605296738445759" fill="#b1a212" opacity="0.8"></circle>
      
        <circle cx="382.21788597736315" cy="255.1574160224881" r="1.2920571993570775" fill="#9a100e" opacity="0.8"></circle>
      
        <circle cx="381.29478106931793" cy="269.6838585540048" r="0.46220918111503123" fill="#ad21f9" opacity="0.8"></circle>
      
        <circle cx="378.9308431550156" cy="284.2203274849334" r="1.2780806223861874" fill="#97f89a" opacity="0.8"></circle>
      
        <circle cx="375.1160383298262" cy="298.62281763923" r="0.9902358769439161" fill="#bf5e3c" opacity="0.8"></circle>
      
        <circle cx="369.8548196331044" cy="312.7455374299453" r="1.121809668559581" fill="#ba0cd1" opacity="0.8"></circle>
      
        <circle cx="363.16637209480484" cy="326.4423741033769" r="1.2721456698607654" fill="#687252" opacity="0.8"></circle>
      
        <circle cx="355.08470895459646" cy="339.5683889592061" r="0.7434693618677557" fill="#dc550f" opacity="0.8"></circle>
      
        <circle cx="345.6586156228235" cy="351.98132738209745" r="0.9166250568348915" fill="#522f4a" opacity="0.8"></circle>
      
        <circle cx="334.95143950119007" cy="363.54312814491965" r="1.0779985857196153" fill="#f6c7ac" opacity="0.8"></circle>
      
        <circle cx="323.0407253692774" cy="374.1214162267579" r="0.670597543893382" fill="#7c5800" opacity="0.8"></circle>
      
        <circle cx="310.0176976547223" cy="383.59096333433524" r="0.6855160030070693" fill="#69fc9b" opacity="0.8"></circle>
      
        <circle cx="295.9865925234949" cy="391.8351004257391" r="0.8791580327786506" fill="#36655e" opacity="0.8"></circle>
      
        <circle cx="281.0638443353535" cy="398.7470668112188" r="0.5034999893512577" fill="#e9da50" opacity="0.8"></circle>
      
        <circle cx="265.37713259132227" cy="404.2312808462631" r="0.6870633002370596" fill="#c6f4fb" opacity="0.8"></circle>
      
        <circle cx="249.06429703810622" cy="408.2045178344846" r="0.6988973465748132" fill="#56c65e" opacity="0.8"></circle>
      
        <circle cx="232.27213007220433" cy="410.5969815176014" r="1.202596490457654" fill="#bbe697" opacity="0.8"></circle>
      
        <circle cx="215.15505698806822" cy="411.3532564408757" r="0.9618608466815204" fill="#dab0d6" opacity="0.8"></circle>
      
        <circle cx="197.87371592448056" cy="410.4331295370448" r="0.8666351336985827" fill="#6c7ce7" opacity="0.8"></circle>
      
        <circle cx="180.5934505668062" cy="407.8122704606885" r="0.5247532985638828" fill="#280f0f" opacity="0.8"></circle>
      
        <circle cx="163.48272974620522" cy="403.4827615173673" r="0.9799841823522002" fill="#9d0a19" opacity="0.8"></circle>
      
        <circle cx="146.7115090276299" cy="397.4534694555" r="0.9422673771157861" fill="#4ca317" opacity="0.8"></circle>
      
        <circle cx="130.44955018523305" cy="389.7502529103913" r="0.8239169313572348" fill="#f5a168" opacity="0.8"></circle>
      
        <circle cx="114.86471511661784" cy="380.4160008944319" r="0.31493098447099327" fill="#fd30d1" opacity="0.8"></circle>
      
        <circle cx="100.12125123772839" cy="369.51049939965776" r="1.1448135417420418" fill="#96ed5a" opacity="0.8"></circle>
      
        <circle cx="86.37808572121324" cy="357.1101249020818" r="0.6908278888557107" fill="#eaee9d" opacity="0.8"></circle>
      
        <circle cx="73.78714608757656" cy="343.3073653143425" r="0.36140491762198507" fill="#46897c" opacity="0.8"></circle>
      
        <circle cx="62.49172462686607" cy="328.2101707065143" r="0.5734428276307881" fill="#aeb25d" opacity="0.8"></circle>
      
        <circle cx="52.624903917398484" cy="311.9411378863866" r="0.6313806364312768" fill="#aba4b8" opacity="0.8"></circle>
      
        <circle cx="44.3080603171945" cy="294.63653468189443" r="0.5514153595548124" fill="#524fe0" opacity="0.8"></circle>
      
        <circle cx="37.64946173542367" cy="276.44517148150294" r="0.3083607528358698" fill="#0750f9" opacity="0.8"></circle>
      
        <circle cx="32.74297524905745" cy="257.5271292452174" r="0.41820991011336445" fill="#0a54a2" opacity="0.8"></circle>
      
        <circle cx="29.666899219767572" cy="238.05235478191577" r="0.7427065569907427" fill="#2189fd" opacity="0.8"></circle>
      
        <circle cx="28.482933495316644" cy="218.19913558089092" r="0.7062031488865614" fill="#a8ef2c" opacity="0.8"></circle>
      
        <circle cx="29.23530005742046" cy="198.15246787053223" r="0.466075668297708" fill="#3a2687" opacity="0.8"></circle>
      
        <circle cx="31.950025115123992" cy="178.10233283972298" r="1.2631354880984873" fill="#f1b81f" opacity="0.8"></circle>
      
        <circle cx="36.634392151448964" cy="158.2418970834911" r="0.7075145528186113" fill="#c5cafb" opacity="0.8"></circle>
      
        <circle cx="43.276573825231566" cy="138.7656543107372" r="1.1940600664354861" fill="#032976" opacity="0.8"></circle>
      
        <circle cx="51.84544892474335" cy="119.86752616696008" r="0.899430721718818" fill="#12ed68" opacity="0.8"></circle>
      
        <circle cx="62.29060878113481" cy="101.73894066864926" r="1.1633231313433499" fill="#e39312" opacity="0.8"></circle>
      
        <circle cx="74.54255569519702" cy="84.56690721008351" r="0.8679753418080509" fill="#071668" opacity="0.8"></circle>
      
        <circle cx="88.51309402854699" cy="68.5321073808972" r="0.5242868104949594" fill="#4b63e8" opacity="0.8"></circle>
      
        <circle cx="104.09591267880049" cy="53.80702091921313" r="0.8295450720004738" fill="#1a4abb" opacity="0.8"></circle>
      
        <circle cx="121.16735571695622" cy="40.55410601729824" r="0.3746946239378303" fill="#b5a273" opacity="0.8"></circle>
      
        <circle cx="139.58737603351938" cy="28.9240528936906" r="0.6271511921193451" fill="#72e495" opacity="0.8"></circle>
      
        <circle cx="159.20066493756923" cy="19.054129048413643" r="0.9932835960760713" fill="#6cb81b" opacity="0.8"></circle>
      
        <circle cx="179.83794879949673" cy="11.066633929242101" r="0.7842545057181269" fill="#dfe0ee" opacity="0.8"></circle>
      
        <circle cx="201.31744204281773" cy="5.067479861836773" r="1.2791462705470622" fill="#ca7d8d" opacity="0.8"></circle>
      
        <circle cx="223.44644409197087" cy="1.144915041810151" r="0.972429672908038" fill="#457534" opacity="0.8"></circle>
      
        <circle cx="246.02306628944" cy="0" r="0.5310758389066905" fill="#590bed" opacity="0.8"></circle>
      
        <circle cx="268.83807332408884" cy="0" r="0.4813536731060594" fill="#2a19af" opacity="0.8"></circle>
      
        <circle cx="291.6768223792879" cy="2.4319486203575877" r="1.0393457903526724" fill="#564058" opacity="0.8"></circle>
      
        <circle cx="314.321282029234" cy="7.309373193181585" r="0.3661717045586556" fill="#620ea2" opacity="0.8"></circle>
      
        <circle cx="336.5521118981918" cy="14.406629572665508" r="0.3866199855227023" fill="#d7f76a" opacity="0.8"></circle>
      
        <circle cx="358.15078326227126" cy="23.68876900648334" r="0.8811599525623024" fill="#20ce4d" opacity="0.8"></circle>
      
        <circle cx="378.90172012691505" cy="35.09924926333889" r="1.0754179376643151" fill="#036039" opacity="0.8"></circle>
      
        <circle cx="398.5944398641359" cy="48.560185486370074" r="1.2910391399171204" fill="#d04f8a" opacity="0.8"></circle>
      
        <circle cx="417.0256722481252" cy="63.97281383327751" r="1.212778189405799" fill="#5f98ea" opacity="0.8"></circle>
      
        <circle cx="434.00143569084634" cy="81.2181659983988" r="0.6804073086939753" fill="#840abf" opacity="0.8"></circle>
      
        <circle cx="449.3390496531234" cy="100.15795059650875" r="0.5324663086328656" fill="#97a93a" opacity="0.8"></circle>
      
        <circle cx="462.8690625919853" cy="120.6356352892619" r="0.9737741220276803" fill="#90317c" opacity="0.8"></circle>
      
        <circle cx="469" cy="142.4777214740725" r="0.5829130585305393" fill="#4a81dc" opacity="0.8"></circle>
      
        <circle cx="469" cy="165.4952013527772" r="1.0055109466891736" fill="#c3620a" opacity="0.8"></circle>
      
        <circle cx="469" cy="189.4851852742262" r="1.2912069435231388" fill="#19cde4" opacity="0.8"></circle>
      
        <circle cx="469" cy="214.2326854210186" r="1.1989157131873072" fill="#24c48b" opacity="0.8"></circle>
      
        <circle cx="469" cy="239.51254020504288" r="0.6712951573543251" fill="#78900a" opacity="0.8"></circle>
      
        <circle cx="469" cy="265.09146216763264" r="0.3838833232410252" fill="#6fc736" opacity="0.8"></circle>
      
        <circle cx="469" cy="290.73019076473093" r="0.8344803815241904" fill="#6b2848" opacity="0.8"></circle>
      </g></svg>